STARTFONT 2.3
FONT -FontForge-Rajdhani-Book-R-Normal--8-80-72-72-P-49-ISO10646-1
SIZE 8 72 72  2
FONTBOUNDINGBOX 19 10 -3 -3
COMMENT "Generated by fontforge, http://fontforge.sourceforge.net"
COMMENT "Copyright (c) 2014 Indian Type Foundry (info@indiantypefoundry.com)"
STARTPROPERTIES 41
FOUNDRY "FontForge"
FAMILY_NAME "Rajdhani"
WEIGHT_NAME "Book"
SLANT "R"
SETWIDTH_NAME "Normal"
ADD_STYLE_NAME ""
PIXEL_SIZE 8
POINT_SIZE 80
RESOLUTION_X 72
RESOLUTION_Y 72
SPACING "P"
AVERAGE_WIDTH 49
CHARSET_REGISTRY "ISO10646"
CHARSET_ENCODING "1"
FONTNAME_REGISTRY ""
CHARSET_COLLECTIONS "ISO8859-2 ISO8859-9 ISO8859-4 ISO10646-1"
BITS_PER_PIXEL 2
FONT_NAME "Rajdhani-Regular"
FACE_NAME "Rajdhani Regular"
COPYRIGHT "Copyright (c) 2014 Indian Type Foundry (info@indiantypefoundry.com)"
FONT_VERSION "1.201;PS 1.0;hotconv 1.0.78;makeotf.lib2.5.61930; ttfautohint (v1.1) -l 7 -r 28 -G 50 -x 13 -D latn -f deva -w G"
FONT_ASCENT 6
FONT_DESCENT 2
UNDERLINE_POSITION -1
UNDERLINE_THICKNESS 1
X_HEIGHT 3
CAP_HEIGHT 4
DEFAULT_CHAR 3
RAW_ASCENT 800
RAW_DESCENT 200
NORM_SPACE 2
RELATIVE_WEIGHT 40
RELATIVE_SETWIDTH 50
SUPERSCRIPT_X 0
SUPERSCRIPT_Y 2
SUPERSCRIPT_SIZE 4
SUBSCRIPT_X 0
SUBSCRIPT_Y 0
SUBSCRIPT_SIZE 4
AVG_LOWERCASE_WIDTH 35
AVG_UPPERCASE_WIDTH 40
ENDPROPERTIES
CHARS 1043
STARTCHAR NULL.dup1
ENCODING 0
SWIDTH 0 0
DWIDTH 0 0
BBX 1 1 0 0
BITMAP
00
ENDCHAR
STARTCHAR CR
ENCODING 13
SWIDTH 0 0
DWIDTH 0 0
BBX 1 1 0 0
BITMAP
00
ENDCHAR
STARTCHAR space
ENCODING 32
SWIDTH 267 0
DWIDTH 2 0
BBX 1 1 0 0
BITMAP
00
ENDCHAR
STARTCHAR exclam
ENCODING 33
SWIDTH 237 0
DWIDTH 2 0
BBX 2 5 0 0
BITMAP
50
40
40
00
40
ENDCHAR
STARTCHAR quotedbl
ENCODING 34
SWIDTH 330 0
DWIDTH 3 0
BBX 2 1 0 4
BITMAP
50
ENDCHAR
STARTCHAR numbersign
ENCODING 35
SWIDTH 677 0
DWIDTH 5 0
BBX 5 5 0 0
BITMAP
0440
1940
1100
6600
1100
ENDCHAR
STARTCHAR dollar
ENCODING 36
SWIDTH 504 0
DWIDTH 4 0
BBX 4 7 0 -1
BITMAP
04
55
40
14
41
55
04
ENDCHAR
STARTCHAR percent
ENCODING 37
SWIDTH 717 0
DWIDTH 6 0
BBX 6 5 0 0
BITMAP
5500
4500
0540
0510
1150
ENDCHAR
STARTCHAR ampersand
ENCODING 38
SWIDTH 597 0
DWIDTH 5 0
BBX 4 5 0 0
BITMAP
15
21
19
45
56
ENDCHAR
STARTCHAR quotesingle
ENCODING 39
SWIDTH 186 0
DWIDTH 1 0
BBX 1 1 0 4
BITMAP
40
ENDCHAR
STARTCHAR parenleft
ENCODING 40
SWIDTH 283 0
DWIDTH 2 0
BBX 2 6 0 -1
BITMAP
50
40
40
40
40
10
ENDCHAR
STARTCHAR parenright
ENCODING 41
SWIDTH 283 0
DWIDTH 2 0
BBX 2 6 0 -1
BITMAP
50
10
10
10
10
50
ENDCHAR
STARTCHAR asterisk
ENCODING 42
SWIDTH 406 0
DWIDTH 3 0
BBX 2 2 1 3
BITMAP
50
40
ENDCHAR
STARTCHAR plus
ENCODING 43
SWIDTH 523 0
DWIDTH 4 0
BBX 3 3 1 1
BITMAP
10
64
10
ENDCHAR
STARTCHAR comma
ENCODING 44
SWIDTH 191 0
DWIDTH 2 0
BBX 1 2 0 -1
BITMAP
40
40
ENDCHAR
STARTCHAR hyphen
ENCODING 45
SWIDTH 312 0
DWIDTH 3 0
BBX 2 1 0 2
BITMAP
50
ENDCHAR
STARTCHAR period
ENCODING 46
SWIDTH 191 0
DWIDTH 2 0
BBX 1 1 0 0
BITMAP
40
ENDCHAR
STARTCHAR slash
ENCODING 47
SWIDTH 396 0
DWIDTH 3 0
BBX 3 5 0 0
BITMAP
04
10
10
10
40
ENDCHAR
STARTCHAR zero
ENCODING 48
SWIDTH 514 0
DWIDTH 4 0
BBX 4 5 0 0
BITMAP
55
41
41
41
55
ENDCHAR
STARTCHAR one
ENCODING 49
SWIDTH 317 0
DWIDTH 3 0
BBX 2 5 0 0
BITMAP
60
10
10
10
10
ENDCHAR
STARTCHAR two
ENCODING 50
SWIDTH 478 0
DWIDTH 4 0
BBX 4 5 0 0
BITMAP
54
41
04
50
54
ENDCHAR
STARTCHAR three
ENCODING 51
SWIDTH 496 0
DWIDTH 4 0
BBX 4 5 0 0
BITMAP
55
41
04
41
55
ENDCHAR
STARTCHAR four
ENCODING 52
SWIDTH 520 0
DWIDTH 4 0
BBX 4 5 0 0
BITMAP
09
15
15
55
05
ENDCHAR
STARTCHAR five
ENCODING 53
SWIDTH 482 0
DWIDTH 4 0
BBX 4 5 0 0
BITMAP
54
54
01
41
55
ENDCHAR
STARTCHAR six
ENCODING 54
SWIDTH 497 0
DWIDTH 4 0
BBX 4 5 0 0
BITMAP
54
40
54
41
55
ENDCHAR
STARTCHAR seven
ENCODING 55
SWIDTH 380 0
DWIDTH 3 0
BBX 3 5 0 0
BITMAP
58
04
10
10
10
ENDCHAR
STARTCHAR eight
ENCODING 56
SWIDTH 519 0
DWIDTH 4 0
BBX 4 5 0 0
BITMAP
55
41
65
41
55
ENDCHAR
STARTCHAR nine
ENCODING 57
SWIDTH 497 0
DWIDTH 4 0
BBX 4 5 0 0
BITMAP
55
41
55
01
15
ENDCHAR
STARTCHAR colon
ENCODING 58
SWIDTH 191 0
DWIDTH 2 0
BBX 1 4 0 0
BITMAP
40
00
00
40
ENDCHAR
STARTCHAR semicolon
ENCODING 59
SWIDTH 191 0
DWIDTH 2 0
BBX 1 5 0 -1
BITMAP
40
00
00
40
40
ENDCHAR
STARTCHAR less
ENCODING 60
SWIDTH 513 0
DWIDTH 4 0
BBX 4 3 0 1
BITMAP
05
50
05
ENDCHAR
STARTCHAR equal
ENCODING 61
SWIDTH 531 0
DWIDTH 4 0
BBX 3 2 1 1
BITMAP
54
54
ENDCHAR
STARTCHAR greater
ENCODING 62
SWIDTH 531 0
DWIDTH 4 0
BBX 3 3 1 1
BITMAP
50
14
40
ENDCHAR
STARTCHAR question
ENCODING 63
SWIDTH 473 0
DWIDTH 4 0
BBX 3 5 0 0
BITMAP
54
44
04
00
14
ENDCHAR
STARTCHAR at
ENCODING 64
SWIDTH 753 0
DWIDTH 6 0
BBX 6 6 0 -1
BITMAP
1540
1510
4510
4510
1540
1500
ENDCHAR
STARTCHAR A
ENCODING 65
SWIDTH 533 0
DWIDTH 4 0
BBX 4 5 0 0
BITMAP
14
14
15
55
41
ENDCHAR
STARTCHAR B
ENCODING 66
SWIDTH 546 0
DWIDTH 4 0
BBX 4 5 0 0
BITMAP
55
41
55
41
55
ENDCHAR
STARTCHAR C
ENCODING 67
SWIDTH 542 0
DWIDTH 4 0
BBX 4 5 0 0
BITMAP
55
41
40
41
55
ENDCHAR
STARTCHAR D
ENCODING 68
SWIDTH 557 0
DWIDTH 4 0
BBX 4 5 0 0
BITMAP
55
41
41
41
55
ENDCHAR
STARTCHAR E
ENCODING 69
SWIDTH 481 0
DWIDTH 4 0
BBX 3 5 0 0
BITMAP
54
40
54
40
54
ENDCHAR
STARTCHAR F
ENCODING 70
SWIDTH 459 0
DWIDTH 4 0
BBX 3 5 0 0
BITMAP
54
40
54
40
40
ENDCHAR
STARTCHAR G
ENCODING 71
SWIDTH 539 0
DWIDTH 4 0
BBX 4 5 0 0
BITMAP
55
41
45
41
55
ENDCHAR
STARTCHAR H
ENCODING 72
SWIDTH 570 0
DWIDTH 5 0
BBX 4 5 0 0
BITMAP
41
41
56
41
41
ENDCHAR
STARTCHAR I
ENCODING 73
SWIDTH 230 0
DWIDTH 2 0
BBX 1 5 0 0
BITMAP
40
40
40
40
40
ENDCHAR
STARTCHAR J
ENCODING 74
SWIDTH 499 0
DWIDTH 4 0
BBX 4 5 0 0
BITMAP
01
01
01
41
54
ENDCHAR
STARTCHAR K
ENCODING 75
SWIDTH 530 0
DWIDTH 4 0
BBX 4 5 0 0
BITMAP
41
44
64
44
41
ENDCHAR
STARTCHAR L
ENCODING 76
SWIDTH 451 0
DWIDTH 4 0
BBX 3 5 0 0
BITMAP
40
40
40
40
54
ENDCHAR
STARTCHAR M
ENCODING 77
SWIDTH 696 0
DWIDTH 6 0
BBX 5 5 0 0
BITMAP
5080
5140
4540
4540
4040
ENDCHAR
STARTCHAR N
ENCODING 78
SWIDTH 579 0
DWIDTH 5 0
BBX 4 5 0 0
BITMAP
51
51
45
46
42
ENDCHAR
STARTCHAR O
ENCODING 79
SWIDTH 553 0
DWIDTH 4 0
BBX 4 5 0 0
BITMAP
55
41
41
41
55
ENDCHAR
STARTCHAR P
ENCODING 80
SWIDTH 524 0
DWIDTH 4 0
BBX 4 5 0 0
BITMAP
55
41
55
40
40
ENDCHAR
STARTCHAR Q
ENCODING 81
SWIDTH 556 0
DWIDTH 4 0
BBX 4 6 0 -1
BITMAP
55
41
41
41
55
04
ENDCHAR
STARTCHAR R
ENCODING 82
SWIDTH 534 0
DWIDTH 4 0
BBX 4 5 0 0
BITMAP
55
41
59
45
41
ENDCHAR
STARTCHAR S
ENCODING 83
SWIDTH 562 0
DWIDTH 5 0
BBX 4 5 0 0
BITMAP
55
40
15
41
55
ENDCHAR
STARTCHAR T
ENCODING 84
SWIDTH 420 0
DWIDTH 3 0
BBX 3 5 0 0
BITMAP
64
10
10
10
10
ENDCHAR
STARTCHAR U
ENCODING 85
SWIDTH 552 0
DWIDTH 4 0
BBX 4 5 0 0
BITMAP
41
41
41
41
55
ENDCHAR
STARTCHAR V
ENCODING 86
SWIDTH 500 0
DWIDTH 4 0
BBX 4 5 0 0
BITMAP
41
41
14
14
14
ENDCHAR
STARTCHAR W
ENCODING 87
SWIDTH 794 0
DWIDTH 6 0
BBX 6 5 0 0
BITMAP
4510
4510
5510
1450
2080
ENDCHAR
STARTCHAR X
ENCODING 88
SWIDTH 504 0
DWIDTH 4 0
BBX 4 5 0 0
BITMAP
41
14
14
14
41
ENDCHAR
STARTCHAR Y
ENCODING 89
SWIDTH 493 0
DWIDTH 4 0
BBX 4 5 0 0
BITMAP
41
14
14
14
14
ENDCHAR
STARTCHAR Z
ENCODING 90
SWIDTH 482 0
DWIDTH 4 0
BBX 4 5 0 0
BITMAP
59
04
10
10
95
ENDCHAR
STARTCHAR bracketleft
ENCODING 91
SWIDTH 287 0
DWIDTH 2 0
BBX 2 6 0 -1
BITMAP
50
40
40
40
40
50
ENDCHAR
STARTCHAR backslash
ENCODING 92
SWIDTH 396 0
DWIDTH 3 0
BBX 3 5 0 0
BITMAP
40
10
10
10
04
ENDCHAR
STARTCHAR bracketright
ENCODING 93
SWIDTH 287 0
DWIDTH 2 0
BBX 1 6 1 -1
BITMAP
40
40
40
40
40
40
ENDCHAR
STARTCHAR asciicircum
ENCODING 94
SWIDTH 465 0
DWIDTH 4 0
BBX 3 2 0 3
BITMAP
14
44
ENDCHAR
STARTCHAR underscore
ENCODING 95
SWIDTH 372 0
DWIDTH 3 0
BBX 3 1 0 -1
BITMAP
54
ENDCHAR
STARTCHAR grave
ENCODING 96
SWIDTH 269 0
DWIDTH 2 0
BBX 1 1 1 5
BITMAP
40
ENDCHAR
STARTCHAR a
ENCODING 97
SWIDTH 502 0
DWIDTH 4 0
BBX 4 4 0 0
BITMAP
55
41
41
55
ENDCHAR
STARTCHAR b
ENCODING 98
SWIDTH 504 0
DWIDTH 4 0
BBX 4 6 0 0
BITMAP
40
40
55
41
41
55
ENDCHAR
STARTCHAR c
ENCODING 99
SWIDTH 394 0
DWIDTH 3 0
BBX 3 4 0 0
BITMAP
54
40
40
54
ENDCHAR
STARTCHAR d
ENCODING 100
SWIDTH 504 0
DWIDTH 4 0
BBX 4 6 0 0
BITMAP
01
01
55
41
41
55
ENDCHAR
STARTCHAR e
ENCODING 101
SWIDTH 492 0
DWIDTH 4 0
BBX 4 4 0 0
BITMAP
55
41
55
54
ENDCHAR
STARTCHAR f
ENCODING 102
SWIDTH 303 0
DWIDTH 2 0
BBX 2 6 0 0
BITMAP
10
10
60
10
10
10
ENDCHAR
STARTCHAR g
ENCODING 103
SWIDTH 506 0
DWIDTH 4 0
BBX 4 5 0 -1
BITMAP
55
41
41
15
15
ENDCHAR
STARTCHAR h
ENCODING 104
SWIDTH 507 0
DWIDTH 4 0
BBX 4 6 0 0
BITMAP
40
40
55
41
41
41
ENDCHAR
STARTCHAR i
ENCODING 105
SWIDTH 210 0
DWIDTH 2 0
BBX 1 6 0 0
BITMAP
40
00
40
40
40
40
ENDCHAR
STARTCHAR j
ENCODING 106
SWIDTH 210 0
DWIDTH 2 0
BBX 1 7 0 -1
BITMAP
40
00
40
40
40
40
80
ENDCHAR
STARTCHAR k
ENCODING 107
SWIDTH 431 0
DWIDTH 3 0
BBX 3 6 0 0
BITMAP
40
40
44
54
44
44
ENDCHAR
STARTCHAR l
ENCODING 108
SWIDTH 210 0
DWIDTH 2 0
BBX 1 6 0 0
BITMAP
40
40
40
40
40
40
ENDCHAR
STARTCHAR m
ENCODING 109
SWIDTH 769 0
DWIDTH 6 0
BBX 6 4 0 0
BITMAP
5550
4110
4110
4110
ENDCHAR
STARTCHAR n
ENCODING 110
SWIDTH 507 0
DWIDTH 4 0
BBX 4 4 0 0
BITMAP
55
41
41
41
ENDCHAR
STARTCHAR o
ENCODING 111
SWIDTH 496 0
DWIDTH 4 0
BBX 4 4 0 0
BITMAP
55
41
41
55
ENDCHAR
STARTCHAR p
ENCODING 112
SWIDTH 504 0
DWIDTH 4 0
BBX 4 5 0 -1
BITMAP
55
41
41
55
40
ENDCHAR
STARTCHAR q
ENCODING 113
SWIDTH 502 0
DWIDTH 4 0
BBX 4 5 0 -1
BITMAP
55
41
41
55
01
ENDCHAR
STARTCHAR r
ENCODING 114
SWIDTH 313 0
DWIDTH 3 0
BBX 2 4 0 0
BITMAP
50
40
40
40
ENDCHAR
STARTCHAR s
ENCODING 115
SWIDTH 431 0
DWIDTH 3 0
BBX 3 4 0 0
BITMAP
54
50
04
58
ENDCHAR
STARTCHAR t
ENCODING 116
SWIDTH 347 0
DWIDTH 3 0
BBX 2 5 0 0
BITMAP
10
60
10
10
20
ENDCHAR
STARTCHAR u
ENCODING 117
SWIDTH 507 0
DWIDTH 4 0
BBX 4 4 0 0
BITMAP
41
41
41
55
ENDCHAR
STARTCHAR v
ENCODING 118
SWIDTH 416 0
DWIDTH 3 0
BBX 3 4 0 0
BITMAP
44
44
14
20
ENDCHAR
STARTCHAR w
ENCODING 119
SWIDTH 683 0
DWIDTH 5 0
BBX 5 4 0 0
BITMAP
4840
4540
1540
2140
ENDCHAR
STARTCHAR x
ENCODING 120
SWIDTH 413 0
DWIDTH 3 0
BBX 3 4 0 0
BITMAP
44
24
24
44
ENDCHAR
STARTCHAR y
ENCODING 121
SWIDTH 459 0
DWIDTH 4 0
BBX 4 5 0 -1
BITMAP
41
44
14
14
50
ENDCHAR
STARTCHAR z
ENCODING 122
SWIDTH 405 0
DWIDTH 3 0
BBX 3 4 0 0
BITMAP
58
14
10
94
ENDCHAR
STARTCHAR braceleft
ENCODING 123
SWIDTH 298 0
DWIDTH 2 0
BBX 2 6 0 -1
BITMAP
10
10
40
10
10
10
ENDCHAR
STARTCHAR bar
ENCODING 124
SWIDTH 207 0
DWIDTH 2 0
BBX 1 5 0 0
BITMAP
40
40
40
40
40
ENDCHAR
STARTCHAR braceright
ENCODING 125
SWIDTH 298 0
DWIDTH 2 0
BBX 2 6 0 -1
BITMAP
40
10
20
10
10
40
ENDCHAR
STARTCHAR asciitilde
ENCODING 126
SWIDTH 523 0
DWIDTH 4 0
BBX 2 1 1 2
BITMAP
50
ENDCHAR
STARTCHAR uni00A0
ENCODING 160
SWIDTH 267 0
DWIDTH 2 0
BBX 1 1 0 0
BITMAP
00
ENDCHAR
STARTCHAR exclamdown
ENCODING 161
SWIDTH 237 0
DWIDTH 2 0
BBX 2 5 0 0
BITMAP
40
00
40
40
50
ENDCHAR
STARTCHAR cent
ENCODING 162
SWIDTH 414 0
DWIDTH 3 0
BBX 3 6 0 -1
BITMAP
04
54
40
40
54
04
ENDCHAR
STARTCHAR sterling
ENCODING 163
SWIDTH 528 0
DWIDTH 4 0
BBX 4 5 0 0
BITMAP
15
10
64
10
55
ENDCHAR
STARTCHAR yen
ENCODING 165
SWIDTH 499 0
DWIDTH 4 0
BBX 4 5 0 0
BITMAP
41
14
69
55
14
ENDCHAR
STARTCHAR brokenbar
ENCODING 166
SWIDTH 201 0
DWIDTH 2 0
BBX 1 5 0 0
BITMAP
40
40
00
40
40
ENDCHAR
STARTCHAR section
ENCODING 167
SWIDTH 454 0
DWIDTH 4 0
BBX 3 5 0 0
BITMAP
54
50
44
18
18
ENDCHAR
STARTCHAR dieresis
ENCODING 168
SWIDTH 345 0
DWIDTH 3 0
BBX 3 1 0 5
BITMAP
44
ENDCHAR
STARTCHAR copyright
ENCODING 169
SWIDTH 723 0
DWIDTH 6 0
BBX 6 5 0 0
BITMAP
5540
4510
5110
4510
5540
ENDCHAR
STARTCHAR guillemotleft
ENCODING 171
SWIDTH 431 0
DWIDTH 3 0
BBX 3 2 0 1
BITMAP
54
14
ENDCHAR
STARTCHAR registered
ENCODING 174
SWIDTH 439 0
DWIDTH 4 0
BBX 3 3 0 3
BITMAP
54
54
14
ENDCHAR
STARTCHAR macron
ENCODING 175
SWIDTH 358 0
DWIDTH 3 0
BBX 1 1 1 4
BITMAP
40
ENDCHAR
STARTCHAR degree
ENCODING 176
SWIDTH 298 0
DWIDTH 2 0
BBX 2 2 0 4
BITMAP
50
10
ENDCHAR
STARTCHAR plusminus
ENCODING 177
SWIDTH 523 0
DWIDTH 4 0
BBX 3 3 1 1
BITMAP
10
64
54
ENDCHAR
STARTCHAR acute
ENCODING 180
SWIDTH 269 0
DWIDTH 2 0
BBX 2 1 0 5
BITMAP
50
ENDCHAR
STARTCHAR paragraph
ENCODING 182
SWIDTH 513 0
DWIDTH 4 0
BBX 4 5 0 0
BITMAP
65
A1
21
11
11
ENDCHAR
STARTCHAR periodcentered
ENCODING 183
SWIDTH 207 0
DWIDTH 2 0
BBX 1 1 0 2
BITMAP
40
ENDCHAR
STARTCHAR cedilla
ENCODING 184
SWIDTH 257 0
DWIDTH 2 0
BBX 2 2 0 -2
BITMAP
50
10
ENDCHAR
STARTCHAR guillemotright
ENCODING 187
SWIDTH 431 0
DWIDTH 3 0
BBX 2 2 1 1
BITMAP
50
50
ENDCHAR
STARTCHAR questiondown
ENCODING 191
SWIDTH 473 0
DWIDTH 4 0
BBX 3 5 0 0
BITMAP
10
00
10
40
58
ENDCHAR
STARTCHAR Agrave
ENCODING 192
SWIDTH 532 0
DWIDTH 4 0
BBX 4 7 0 0
BITMAP
10
00
14
14
15
55
41
ENDCHAR
STARTCHAR Aacute
ENCODING 193
SWIDTH 532 0
DWIDTH 4 0
BBX 4 7 0 0
BITMAP
04
04
14
14
15
55
41
ENDCHAR
STARTCHAR Acircumflex
ENCODING 194
SWIDTH 532 0
DWIDTH 4 0
BBX 4 7 0 0
BITMAP
04
00
14
14
15
55
41
ENDCHAR
STARTCHAR Atilde
ENCODING 195
SWIDTH 532 0
DWIDTH 4 0
BBX 4 7 0 0
BITMAP
04
14
14
14
15
55
41
ENDCHAR
STARTCHAR Adieresis
ENCODING 196
SWIDTH 532 0
DWIDTH 4 0
BBX 4 7 0 0
BITMAP
14
00
14
14
15
55
41
ENDCHAR
STARTCHAR Aring
ENCODING 197
SWIDTH 532 0
DWIDTH 4 0
BBX 4 7 0 0
BITMAP
14
00
14
14
15
55
41
ENDCHAR
STARTCHAR AE
ENCODING 198
SWIDTH 773 0
DWIDTH 6 0
BBX 6 5 0 0
BITMAP
0650
0500
1240
6500
4250
ENDCHAR
STARTCHAR Ccedilla
ENCODING 199
SWIDTH 542 0
DWIDTH 4 0
BBX 4 7 0 -2
BITMAP
55
41
40
41
55
04
04
ENDCHAR
STARTCHAR Egrave
ENCODING 200
SWIDTH 481 0
DWIDTH 4 0
BBX 3 7 0 0
BITMAP
10
00
54
40
54
40
54
ENDCHAR
STARTCHAR Eacute
ENCODING 201
SWIDTH 481 0
DWIDTH 4 0
BBX 3 7 0 0
BITMAP
04
00
54
40
54
40
54
ENDCHAR
STARTCHAR Ecircumflex
ENCODING 202
SWIDTH 481 0
DWIDTH 4 0
BBX 3 5 0 0
BITMAP
54
40
54
40
54
ENDCHAR
STARTCHAR Edieresis
ENCODING 203
SWIDTH 481 0
DWIDTH 4 0
BBX 3 7 0 0
BITMAP
14
00
54
40
54
40
54
ENDCHAR
STARTCHAR Igrave
ENCODING 204
SWIDTH 230 0
DWIDTH 2 0
BBX 1 7 0 0
BITMAP
40
40
40
40
40
40
40
ENDCHAR
STARTCHAR Iacute
ENCODING 205
SWIDTH 231 0
DWIDTH 2 0
BBX 2 7 0 0
BITMAP
10
00
40
40
40
40
40
ENDCHAR
STARTCHAR Icircumflex
ENCODING 206
SWIDTH 229 0
DWIDTH 2 0
BBX 1 7 0 0
BITMAP
40
00
40
40
40
40
40
ENDCHAR
STARTCHAR Idieresis
ENCODING 207
SWIDTH 230 0
DWIDTH 2 0
BBX 2 7 0 0
BITMAP
50
00
40
40
40
40
40
ENDCHAR
STARTCHAR Eth
ENCODING 208
SWIDTH 514 0
DWIDTH 4 0
BBX 4 5 0 0
BITMAP
55
41
51
41
55
ENDCHAR
STARTCHAR Ntilde
ENCODING 209
SWIDTH 579 0
DWIDTH 5 0
BBX 4 7 0 0
BITMAP
04
14
51
51
45
46
42
ENDCHAR
STARTCHAR Ograve
ENCODING 210
SWIDTH 553 0
DWIDTH 4 0
BBX 4 7 0 0
BITMAP
10
00
55
41
41
41
55
ENDCHAR
STARTCHAR Oacute
ENCODING 211
SWIDTH 553 0
DWIDTH 4 0
BBX 4 7 0 0
BITMAP
04
04
55
41
41
41
55
ENDCHAR
STARTCHAR Ocircumflex
ENCODING 212
SWIDTH 553 0
DWIDTH 4 0
BBX 4 7 0 0
BITMAP
04
00
55
41
41
41
55
ENDCHAR
STARTCHAR Otilde
ENCODING 213
SWIDTH 553 0
DWIDTH 4 0
BBX 4 7 0 0
BITMAP
04
14
55
41
41
41
55
ENDCHAR
STARTCHAR Odieresis
ENCODING 214
SWIDTH 553 0
DWIDTH 4 0
BBX 4 7 0 0
BITMAP
14
00
55
41
41
41
55
ENDCHAR
STARTCHAR multiply
ENCODING 215
SWIDTH 493 0
DWIDTH 4 0
BBX 2 3 1 1
BITMAP
50
50
50
ENDCHAR
STARTCHAR Oslash
ENCODING 216
SWIDTH 559 0
DWIDTH 4 0
BBX 4 5 0 0
BITMAP
56
46
45
51
55
ENDCHAR
STARTCHAR Ugrave
ENCODING 217
SWIDTH 552 0
DWIDTH 4 0
BBX 4 7 0 0
BITMAP
10
00
41
41
41
41
55
ENDCHAR
STARTCHAR Uacute
ENCODING 218
SWIDTH 552 0
DWIDTH 4 0
BBX 4 7 0 0
BITMAP
04
04
41
41
41
41
55
ENDCHAR
STARTCHAR Ucircumflex
ENCODING 219
SWIDTH 552 0
DWIDTH 4 0
BBX 4 7 0 0
BITMAP
04
00
41
41
41
41
55
ENDCHAR
STARTCHAR Udieresis
ENCODING 220
SWIDTH 552 0
DWIDTH 4 0
BBX 4 7 0 0
BITMAP
14
00
41
41
41
41
55
ENDCHAR
STARTCHAR Yacute
ENCODING 221
SWIDTH 493 0
DWIDTH 4 0
BBX 4 7 0 0
BITMAP
04
00
41
14
14
14
14
ENDCHAR
STARTCHAR Thorn
ENCODING 222
SWIDTH 501 0
DWIDTH 4 0
BBX 3 5 1 0
BITMAP
40
94
44
90
40
ENDCHAR
STARTCHAR germandbls
ENCODING 223
SWIDTH 540 0
DWIDTH 4 0
BBX 4 5 0 0
BITMAP
55
41
45
41
45
ENDCHAR
STARTCHAR agrave
ENCODING 224
SWIDTH 502 0
DWIDTH 4 0
BBX 4 6 0 0
BITMAP
10
00
55
41
41
55
ENDCHAR
STARTCHAR aacute
ENCODING 225
SWIDTH 502 0
DWIDTH 4 0
BBX 4 6 0 0
BITMAP
04
00
55
41
41
55
ENDCHAR
STARTCHAR acircumflex
ENCODING 226
SWIDTH 502 0
DWIDTH 4 0
BBX 4 6 0 0
BITMAP
14
00
55
41
41
55
ENDCHAR
STARTCHAR atilde
ENCODING 227
SWIDTH 504 0
DWIDTH 4 0
BBX 4 6 0 0
BITMAP
14
14
55
41
41
55
ENDCHAR
STARTCHAR adieresis
ENCODING 228
SWIDTH 502 0
DWIDTH 4 0
BBX 4 6 0 0
BITMAP
14
00
55
41
41
55
ENDCHAR
STARTCHAR aring
ENCODING 229
SWIDTH 502 0
DWIDTH 4 0
BBX 4 6 0 0
BITMAP
14
14
55
41
41
55
ENDCHAR
STARTCHAR ae
ENCODING 230
SWIDTH 795 0
DWIDTH 6 0
BBX 6 4 0 0
BITMAP
1650
1510
4250
5650
ENDCHAR
STARTCHAR ccedilla
ENCODING 231
SWIDTH 394 0
DWIDTH 3 0
BBX 3 6 0 -2
BITMAP
54
40
40
54
14
04
ENDCHAR
STARTCHAR egrave
ENCODING 232
SWIDTH 492 0
DWIDTH 4 0
BBX 4 6 0 0
BITMAP
10
00
55
41
55
54
ENDCHAR
STARTCHAR eacute
ENCODING 233
SWIDTH 492 0
DWIDTH 4 0
BBX 4 6 0 0
BITMAP
04
00
55
41
55
54
ENDCHAR
STARTCHAR ecircumflex
ENCODING 234
SWIDTH 492 0
DWIDTH 4 0
BBX 4 6 0 0
BITMAP
14
00
55
41
55
54
ENDCHAR
STARTCHAR edieresis
ENCODING 235
SWIDTH 492 0
DWIDTH 4 0
BBX 4 6 0 0
BITMAP
14
00
55
41
55
54
ENDCHAR
STARTCHAR igrave
ENCODING 236
SWIDTH 210 0
DWIDTH 2 0
BBX 1 6 0 0
BITMAP
40
00
40
40
40
40
ENDCHAR
STARTCHAR iacute
ENCODING 237
SWIDTH 208 0
DWIDTH 2 0
BBX 2 6 0 0
BITMAP
10
00
40
40
40
40
ENDCHAR
STARTCHAR icircumflex
ENCODING 238
SWIDTH 210 0
DWIDTH 2 0
BBX 2 6 0 0
BITMAP
50
00
40
40
40
40
ENDCHAR
STARTCHAR idieresis
ENCODING 239
SWIDTH 210 0
DWIDTH 2 0
BBX 2 6 0 0
BITMAP
50
00
40
40
40
40
ENDCHAR
STARTCHAR eth
ENCODING 240
SWIDTH 488 0
DWIDTH 4 0
BBX 4 6 0 0
BITMAP
14
14
15
41
41
55
ENDCHAR
STARTCHAR ntilde
ENCODING 241
SWIDTH 507 0
DWIDTH 4 0
BBX 4 6 0 0
BITMAP
14
10
55
41
41
41
ENDCHAR
STARTCHAR ograve
ENCODING 242
SWIDTH 496 0
DWIDTH 4 0
BBX 4 6 0 0
BITMAP
10
00
55
41
41
55
ENDCHAR
STARTCHAR oacute
ENCODING 243
SWIDTH 496 0
DWIDTH 4 0
BBX 4 6 0 0
BITMAP
04
00
55
41
41
55
ENDCHAR
STARTCHAR ocircumflex
ENCODING 244
SWIDTH 496 0
DWIDTH 4 0
BBX 4 6 0 0
BITMAP
14
00
55
41
41
55
ENDCHAR
STARTCHAR otilde
ENCODING 245
SWIDTH 496 0
DWIDTH 4 0
BBX 4 6 0 0
BITMAP
14
10
55
41
41
55
ENDCHAR
STARTCHAR odieresis
ENCODING 246
SWIDTH 496 0
DWIDTH 4 0
BBX 4 6 0 0
BITMAP
14
00
55
41
41
55
ENDCHAR
STARTCHAR divide
ENCODING 247
SWIDTH 510 0
DWIDTH 4 0
BBX 2 1 1 2
BITMAP
50
ENDCHAR
STARTCHAR oslash
ENCODING 248
SWIDTH 521 0
DWIDTH 4 0
BBX 4 4 0 0
BITMAP
55
45
51
55
ENDCHAR
STARTCHAR ugrave
ENCODING 249
SWIDTH 507 0
DWIDTH 4 0
BBX 4 6 0 0
BITMAP
10
00
41
41
41
55
ENDCHAR
STARTCHAR uacute
ENCODING 250
SWIDTH 507 0
DWIDTH 4 0
BBX 4 6 0 0
BITMAP
04
00
41
41
41
55
ENDCHAR
STARTCHAR ucircumflex
ENCODING 251
SWIDTH 507 0
DWIDTH 4 0
BBX 4 6 0 0
BITMAP
14
00
41
41
41
55
ENDCHAR
STARTCHAR udieresis
ENCODING 252
SWIDTH 507 0
DWIDTH 4 0
BBX 4 6 0 0
BITMAP
14
00
41
41
41
55
ENDCHAR
STARTCHAR yacute
ENCODING 253
SWIDTH 459 0
DWIDTH 4 0
BBX 4 7 0 -1
BITMAP
04
00
41
44
14
14
50
ENDCHAR
STARTCHAR thorn
ENCODING 254
SWIDTH 508 0
DWIDTH 4 0
BBX 4 7 0 -1
BITMAP
40
40
55
41
41
55
40
ENDCHAR
STARTCHAR ydieresis
ENCODING 255
SWIDTH 459 0
DWIDTH 4 0
BBX 4 7 0 -1
BITMAP
14
00
41
44
14
14
50
ENDCHAR
STARTCHAR Amacron
ENCODING 256
SWIDTH 532 0
DWIDTH 4 0
BBX 4 7 0 0
BITMAP
14
00
14
14
15
55
41
ENDCHAR
STARTCHAR amacron
ENCODING 257
SWIDTH 502 0
DWIDTH 4 0
BBX 4 5 0 0
BITMAP
14
55
41
41
55
ENDCHAR
STARTCHAR Abreve
ENCODING 258
SWIDTH 532 0
DWIDTH 4 0
BBX 4 6 0 0
BITMAP
14
14
14
15
55
41
ENDCHAR
STARTCHAR abreve
ENCODING 259
SWIDTH 502 0
DWIDTH 4 0
BBX 4 6 0 0
BITMAP
14
14
55
41
41
55
ENDCHAR
STARTCHAR Aogonek
ENCODING 260
SWIDTH 532 0
DWIDTH 4 0
BBX 4 6 0 -1
BITMAP
14
14
15
55
41
01
ENDCHAR
STARTCHAR aogonek
ENCODING 261
SWIDTH 502 0
DWIDTH 4 0
BBX 4 5 0 -1
BITMAP
55
41
41
55
04
ENDCHAR
STARTCHAR Cacute
ENCODING 262
SWIDTH 542 0
DWIDTH 4 0
BBX 4 7 0 0
BITMAP
04
04
55
41
40
41
55
ENDCHAR
STARTCHAR cacute
ENCODING 263
SWIDTH 394 0
DWIDTH 3 0
BBX 3 6 0 0
BITMAP
04
00
54
40
40
54
ENDCHAR
STARTCHAR Cdotaccent
ENCODING 266
SWIDTH 542 0
DWIDTH 4 0
BBX 4 7 0 0
BITMAP
04
00
55
41
40
41
55
ENDCHAR
STARTCHAR cdotaccent
ENCODING 267
SWIDTH 394 0
DWIDTH 3 0
BBX 3 6 0 0
BITMAP
10
00
54
40
40
54
ENDCHAR
STARTCHAR Ccaron
ENCODING 268
SWIDTH 542 0
DWIDTH 4 0
BBX 4 6 0 0
BITMAP
04
55
41
40
41
55
ENDCHAR
STARTCHAR ccaron
ENCODING 269
SWIDTH 394 0
DWIDTH 3 0
BBX 3 6 0 0
BITMAP
14
00
54
40
40
54
ENDCHAR
STARTCHAR Dcaron
ENCODING 270
SWIDTH 557 0
DWIDTH 4 0
BBX 4 6 0 0
BITMAP
04
55
41
41
41
55
ENDCHAR
STARTCHAR dcaron
ENCODING 271
SWIDTH 534 0
DWIDTH 4 0
BBX 5 6 0 0
BITMAP
0140
0100
4100
4100
4100
5500
ENDCHAR
STARTCHAR Dcroat
ENCODING 272
SWIDTH 514 0
DWIDTH 4 0
BBX 4 5 0 0
BITMAP
55
41
51
41
55
ENDCHAR
STARTCHAR dcroat
ENCODING 273
SWIDTH 539 0
DWIDTH 4 0
BBX 4 6 0 0
BITMAP
01
06
15
41
41
55
ENDCHAR
STARTCHAR Emacron
ENCODING 274
SWIDTH 481 0
DWIDTH 4 0
BBX 3 7 0 0
BITMAP
14
00
54
40
54
40
54
ENDCHAR
STARTCHAR emacron
ENCODING 275
SWIDTH 492 0
DWIDTH 4 0
BBX 4 5 0 0
BITMAP
14
55
41
55
54
ENDCHAR
STARTCHAR Ebreve
ENCODING 276
SWIDTH 481 0
DWIDTH 4 0
BBX 3 6 0 0
BITMAP
14
54
40
54
40
54
ENDCHAR
STARTCHAR ebreve
ENCODING 277
SWIDTH 492 0
DWIDTH 4 0
BBX 4 6 0 0
BITMAP
14
14
55
41
55
54
ENDCHAR
STARTCHAR Edotaccent
ENCODING 278
SWIDTH 496 0
DWIDTH 4 0
BBX 3 7 0 0
BITMAP
14
00
54
40
54
40
54
ENDCHAR
STARTCHAR edotaccent
ENCODING 279
SWIDTH 492 0
DWIDTH 4 0
BBX 4 6 0 0
BITMAP
14
00
55
41
55
54
ENDCHAR
STARTCHAR Eogonek
ENCODING 280
SWIDTH 481 0
DWIDTH 4 0
BBX 3 6 0 -1
BITMAP
54
40
54
40
54
04
ENDCHAR
STARTCHAR eogonek
ENCODING 281
SWIDTH 492 0
DWIDTH 4 0
BBX 4 5 0 -1
BITMAP
55
41
55
54
04
ENDCHAR
STARTCHAR Ecaron
ENCODING 282
SWIDTH 481 0
DWIDTH 4 0
BBX 3 5 0 0
BITMAP
54
40
54
40
54
ENDCHAR
STARTCHAR ecaron
ENCODING 283
SWIDTH 492 0
DWIDTH 4 0
BBX 4 6 0 0
BITMAP
14
00
55
41
55
54
ENDCHAR
STARTCHAR Gcircumflex
ENCODING 284
SWIDTH 539 0
DWIDTH 4 0
BBX 4 7 0 0
BITMAP
04
00
55
41
45
41
55
ENDCHAR
STARTCHAR gcircumflex
ENCODING 285
SWIDTH 506 0
DWIDTH 4 0
BBX 4 7 0 -1
BITMAP
14
00
55
41
41
15
15
ENDCHAR
STARTCHAR Gbreve
ENCODING 286
SWIDTH 539 0
DWIDTH 4 0
BBX 4 6 0 0
BITMAP
14
55
41
45
41
55
ENDCHAR
STARTCHAR gbreve
ENCODING 287
SWIDTH 506 0
DWIDTH 4 0
BBX 4 7 0 -1
BITMAP
14
04
55
41
41
15
15
ENDCHAR
STARTCHAR Gdotaccent
ENCODING 288
SWIDTH 539 0
DWIDTH 4 0
BBX 4 7 0 0
BITMAP
04
00
55
41
45
41
55
ENDCHAR
STARTCHAR gdotaccent
ENCODING 289
SWIDTH 506 0
DWIDTH 4 0
BBX 4 7 0 -1
BITMAP
04
00
55
41
41
15
15
ENDCHAR
STARTCHAR uni0122
ENCODING 290
SWIDTH 539 0
DWIDTH 4 0
BBX 4 7 0 -2
BITMAP
55
41
45
41
55
04
04
ENDCHAR
STARTCHAR uni0123
ENCODING 291
SWIDTH 506 0
DWIDTH 4 0
BBX 4 7 0 -1
BITMAP
04
04
55
41
41
15
15
ENDCHAR
STARTCHAR hcircumflex
ENCODING 293
SWIDTH 507 0
DWIDTH 4 0
BBX 4 6 0 0
BITMAP
44
40
55
41
41
41
ENDCHAR
STARTCHAR Hbar
ENCODING 294
SWIDTH 523 0
DWIDTH 4 0
BBX 4 5 0 0
BITMAP
41
56
56
41
41
ENDCHAR
STARTCHAR hbar
ENCODING 295
SWIDTH 544 0
DWIDTH 4 0
BBX 4 6 0 0
BITMAP
10
64
25
11
11
11
ENDCHAR
STARTCHAR Itilde
ENCODING 296
SWIDTH 230 0
DWIDTH 2 0
BBX 2 7 0 0
BITMAP
50
40
40
40
40
40
40
ENDCHAR
STARTCHAR itilde
ENCODING 297
SWIDTH 210 0
DWIDTH 2 0
BBX 2 6 0 0
BITMAP
50
40
40
40
40
40
ENDCHAR
STARTCHAR Imacron
ENCODING 298
SWIDTH 230 0
DWIDTH 2 0
BBX 2 7 0 0
BITMAP
50
00
40
40
40
40
40
ENDCHAR
STARTCHAR imacron
ENCODING 299
SWIDTH 208 0
DWIDTH 2 0
BBX 2 5 0 0
BITMAP
50
40
40
40
40
ENDCHAR
STARTCHAR Ibreve
ENCODING 300
SWIDTH 231 0
DWIDTH 2 0
BBX 2 6 0 0
BITMAP
50
40
40
40
40
40
ENDCHAR
STARTCHAR ibreve
ENCODING 301
SWIDTH 211 0
DWIDTH 2 0
BBX 2 6 0 0
BITMAP
50
50
40
40
40
40
ENDCHAR
STARTCHAR Iogonek
ENCODING 302
SWIDTH 230 0
DWIDTH 2 0
BBX 1 6 0 -1
BITMAP
40
40
40
40
40
40
ENDCHAR
STARTCHAR iogonek
ENCODING 303
SWIDTH 210 0
DWIDTH 2 0
BBX 1 7 0 -1
BITMAP
40
00
40
40
40
40
40
ENDCHAR
STARTCHAR Idotaccent
ENCODING 304
SWIDTH 230 0
DWIDTH 2 0
BBX 1 6 0 0
BITMAP
40
40
40
40
40
40
ENDCHAR
STARTCHAR dotlessi
ENCODING 305
SWIDTH 212 0
DWIDTH 2 0
BBX 1 4 0 0
BITMAP
40
40
40
40
ENDCHAR
STARTCHAR IJ
ENCODING 306
SWIDTH 721 0
DWIDTH 6 0
BBX 5 5 0 0
BITMAP
4040
4040
4040
4440
4580
ENDCHAR
STARTCHAR ij
ENCODING 307
SWIDTH 419 0
DWIDTH 3 0
BBX 3 7 0 -1
BITMAP
44
00
44
44
44
44
14
ENDCHAR
STARTCHAR Jcircumflex
ENCODING 308
SWIDTH 494 0
DWIDTH 4 0
BBX 4 7 0 0
BITMAP
01
00
01
01
01
41
54
ENDCHAR
STARTCHAR jcircumflex
ENCODING 309
SWIDTH 209 0
DWIDTH 2 0
BBX 2 7 0 -1
BITMAP
50
00
40
40
40
40
80
ENDCHAR
STARTCHAR uni0136
ENCODING 310
SWIDTH 530 0
DWIDTH 4 0
BBX 4 6 0 -1
BITMAP
41
44
64
44
41
04
ENDCHAR
STARTCHAR uni0137
ENCODING 311
SWIDTH 431 0
DWIDTH 3 0
BBX 3 8 0 -2
BITMAP
40
40
44
54
44
44
10
10
ENDCHAR
STARTCHAR Lacute
ENCODING 313
SWIDTH 451 0
DWIDTH 4 0
BBX 3 7 0 0
BITMAP
10
00
40
40
40
40
54
ENDCHAR
STARTCHAR lacute
ENCODING 314
SWIDTH 207 0
DWIDTH 2 0
BBX 2 7 0 0
BITMAP
10
40
40
40
40
40
40
ENDCHAR
STARTCHAR uni013B
ENCODING 315
SWIDTH 451 0
DWIDTH 4 0
BBX 3 5 0 0
BITMAP
40
40
40
40
54
ENDCHAR
STARTCHAR uni013C
ENCODING 316
SWIDTH 211 0
DWIDTH 2 0
BBX 1 8 0 -2
BITMAP
40
40
40
40
40
40
40
40
ENDCHAR
STARTCHAR Lcaron
ENCODING 317
SWIDTH 451 0
DWIDTH 4 0
BBX 3 5 0 0
BITMAP
44
44
40
40
54
ENDCHAR
STARTCHAR lcaron
ENCODING 318
SWIDTH 274 0
DWIDTH 2 0
BBX 2 6 0 0
BITMAP
50
50
40
40
40
40
ENDCHAR
STARTCHAR Ldot
ENCODING 319
SWIDTH 500 0
DWIDTH 4 0
BBX 3 5 0 0
BITMAP
40
40
44
40
54
ENDCHAR
STARTCHAR ldot
ENCODING 320
SWIDTH 314 0
DWIDTH 3 0
BBX 2 6 0 0
BITMAP
40
40
40
50
40
40
ENDCHAR
STARTCHAR Lslash
ENCODING 321
SWIDTH 504 0
DWIDTH 4 0
BBX 3 5 0 0
BITMAP
40
50
40
40
54
ENDCHAR
STARTCHAR lslash
ENCODING 322
SWIDTH 296 0
DWIDTH 2 0
BBX 2 6 0 0
BITMAP
10
10
60
10
10
10
ENDCHAR
STARTCHAR Nacute
ENCODING 323
SWIDTH 579 0
DWIDTH 5 0
BBX 4 6 0 0
BITMAP
04
51
51
45
46
42
ENDCHAR
STARTCHAR nacute
ENCODING 324
SWIDTH 507 0
DWIDTH 4 0
BBX 4 6 0 0
BITMAP
04
00
55
41
41
41
ENDCHAR
STARTCHAR uni0145
ENCODING 325
SWIDTH 579 0
DWIDTH 5 0
BBX 4 7 0 -2
BITMAP
51
51
45
46
42
04
04
ENDCHAR
STARTCHAR uni0146
ENCODING 326
SWIDTH 505 0
DWIDTH 4 0
BBX 4 4 0 0
BITMAP
55
41
41
41
ENDCHAR
STARTCHAR Ncaron
ENCODING 327
SWIDTH 579 0
DWIDTH 5 0
BBX 4 7 0 0
BITMAP
04
04
51
51
45
46
42
ENDCHAR
STARTCHAR ncaron
ENCODING 328
SWIDTH 507 0
DWIDTH 4 0
BBX 4 6 0 0
BITMAP
14
00
55
41
41
41
ENDCHAR
STARTCHAR Eng
ENCODING 330
SWIDTH 519 0
DWIDTH 4 0
BBX 4 6 0 -1
BITMAP
51
51
45
46
42
01
ENDCHAR
STARTCHAR eng
ENCODING 331
SWIDTH 507 0
DWIDTH 4 0
BBX 4 5 0 -1
BITMAP
55
41
41
41
05
ENDCHAR
STARTCHAR Omacron
ENCODING 332
SWIDTH 553 0
DWIDTH 4 0
BBX 4 7 0 0
BITMAP
14
00
55
41
41
41
55
ENDCHAR
STARTCHAR omacron
ENCODING 333
SWIDTH 496 0
DWIDTH 4 0
BBX 4 5 0 0
BITMAP
14
55
41
41
55
ENDCHAR
STARTCHAR Obreve
ENCODING 334
SWIDTH 553 0
DWIDTH 4 0
BBX 4 6 0 0
BITMAP
04
55
41
41
41
55
ENDCHAR
STARTCHAR obreve
ENCODING 335
SWIDTH 496 0
DWIDTH 4 0
BBX 4 6 0 0
BITMAP
14
14
55
41
41
55
ENDCHAR
STARTCHAR Ohungarumlaut
ENCODING 336
SWIDTH 553 0
DWIDTH 4 0
BBX 4 7 0 0
BITMAP
05
00
55
41
41
41
55
ENDCHAR
STARTCHAR ohungarumlaut
ENCODING 337
SWIDTH 496 0
DWIDTH 4 0
BBX 4 6 0 0
BITMAP
14
00
55
41
41
55
ENDCHAR
STARTCHAR OE
ENCODING 338
SWIDTH 775 0
DWIDTH 6 0
BBX 6 5 0 0
BITMAP
5650
4100
4240
4100
5650
ENDCHAR
STARTCHAR oe
ENCODING 339
SWIDTH 812 0
DWIDTH 7 0
BBX 6 4 0 0
BITMAP
5650
4110
4250
5650
ENDCHAR
STARTCHAR Racute
ENCODING 340
SWIDTH 534 0
DWIDTH 4 0
BBX 4 7 0 0
BITMAP
04
00
55
41
59
45
41
ENDCHAR
STARTCHAR racute
ENCODING 341
SWIDTH 313 0
DWIDTH 3 0
BBX 2 6 0 0
BITMAP
10
00
50
40
40
40
ENDCHAR
STARTCHAR uni0156
ENCODING 342
SWIDTH 534 0
DWIDTH 4 0
BBX 4 7 0 -2
BITMAP
55
41
59
45
41
04
04
ENDCHAR
STARTCHAR uni0157
ENCODING 343
SWIDTH 313 0
DWIDTH 3 0
BBX 2 6 0 -2
BITMAP
50
40
40
40
40
40
ENDCHAR
STARTCHAR Rcaron
ENCODING 344
SWIDTH 534 0
DWIDTH 4 0
BBX 4 5 0 0
BITMAP
55
41
59
45
41
ENDCHAR
STARTCHAR rcaron
ENCODING 345
SWIDTH 313 0
DWIDTH 3 0
BBX 2 6 0 0
BITMAP
50
10
50
40
40
40
ENDCHAR
STARTCHAR Sacute
ENCODING 346
SWIDTH 562 0
DWIDTH 5 0
BBX 4 7 0 0
BITMAP
04
04
55
40
15
41
55
ENDCHAR
STARTCHAR sacute
ENCODING 347
SWIDTH 427 0
DWIDTH 3 0
BBX 3 6 0 0
BITMAP
14
00
54
50
04
58
ENDCHAR
STARTCHAR Scircumflex
ENCODING 348
SWIDTH 562 0
DWIDTH 5 0
BBX 4 7 0 0
BITMAP
04
04
55
40
15
41
55
ENDCHAR
STARTCHAR scircumflex
ENCODING 349
SWIDTH 427 0
DWIDTH 3 0
BBX 3 6 0 0
BITMAP
10
00
54
50
04
58
ENDCHAR
STARTCHAR uni015E
ENCODING 350
SWIDTH 562 0
DWIDTH 5 0
BBX 4 7 0 -2
BITMAP
55
40
15
41
55
04
04
ENDCHAR
STARTCHAR uni015F
ENCODING 351
SWIDTH 427 0
DWIDTH 3 0
BBX 3 5 0 -1
BITMAP
54
50
04
58
10
ENDCHAR
STARTCHAR Scaron
ENCODING 352
SWIDTH 562 0
DWIDTH 5 0
BBX 4 7 0 0
BITMAP
04
04
55
40
15
41
55
ENDCHAR
STARTCHAR scaron
ENCODING 353
SWIDTH 427 0
DWIDTH 3 0
BBX 3 6 0 0
BITMAP
14
10
54
50
04
58
ENDCHAR
STARTCHAR uni0162
ENCODING 354
SWIDTH 420 0
DWIDTH 3 0
BBX 3 6 0 -1
BITMAP
64
10
10
10
10
10
ENDCHAR
STARTCHAR uni0163
ENCODING 355
SWIDTH 347 0
DWIDTH 3 0
BBX 2 6 0 -1
BITMAP
10
60
10
10
20
10
ENDCHAR
STARTCHAR Tcaron
ENCODING 356
SWIDTH 420 0
DWIDTH 3 0
BBX 3 7 0 0
BITMAP
10
10
64
10
10
10
10
ENDCHAR
STARTCHAR tcaron
ENCODING 357
SWIDTH 396 0
DWIDTH 3 0
BBX 3 5 0 0
BITMAP
14
64
10
10
20
ENDCHAR
STARTCHAR Tbar
ENCODING 358
SWIDTH 501 0
DWIDTH 4 0
BBX 3 5 0 0
BITMAP
64
10
24
10
10
ENDCHAR
STARTCHAR tbar
ENCODING 359
SWIDTH 350 0
DWIDTH 3 0
BBX 2 5 0 0
BITMAP
10
60
60
10
20
ENDCHAR
STARTCHAR Utilde
ENCODING 360
SWIDTH 552 0
DWIDTH 4 0
BBX 4 7 0 0
BITMAP
04
14
41
41
41
41
55
ENDCHAR
STARTCHAR utilde
ENCODING 361
SWIDTH 507 0
DWIDTH 4 0
BBX 4 6 0 0
BITMAP
14
10
41
41
41
55
ENDCHAR
STARTCHAR Umacron
ENCODING 362
SWIDTH 552 0
DWIDTH 4 0
BBX 4 7 0 0
BITMAP
14
00
41
41
41
41
55
ENDCHAR
STARTCHAR umacron
ENCODING 363
SWIDTH 507 0
DWIDTH 4 0
BBX 4 5 0 0
BITMAP
14
41
41
41
55
ENDCHAR
STARTCHAR Ubreve
ENCODING 364
SWIDTH 552 0
DWIDTH 4 0
BBX 4 6 0 0
BITMAP
04
41
41
41
41
55
ENDCHAR
STARTCHAR ubreve
ENCODING 365
SWIDTH 507 0
DWIDTH 4 0
BBX 4 6 0 0
BITMAP
14
14
41
41
41
55
ENDCHAR
STARTCHAR Uring
ENCODING 366
SWIDTH 552 0
DWIDTH 4 0
BBX 4 7 0 0
BITMAP
14
00
41
41
41
41
55
ENDCHAR
STARTCHAR uring
ENCODING 367
SWIDTH 507 0
DWIDTH 4 0
BBX 4 6 0 0
BITMAP
10
10
41
41
41
55
ENDCHAR
STARTCHAR Uhungarumlaut
ENCODING 368
SWIDTH 552 0
DWIDTH 4 0
BBX 4 7 0 0
BITMAP
14
00
41
41
41
41
55
ENDCHAR
STARTCHAR uhungarumlaut
ENCODING 369
SWIDTH 507 0
DWIDTH 4 0
BBX 4 6 0 0
BITMAP
14
00
41
41
41
55
ENDCHAR
STARTCHAR Uogonek
ENCODING 370
SWIDTH 552 0
DWIDTH 4 0
BBX 4 6 0 -1
BITMAP
41
41
41
41
55
04
ENDCHAR
STARTCHAR uogonek
ENCODING 371
SWIDTH 503 0
DWIDTH 4 0
BBX 4 5 0 -1
BITMAP
41
41
41
55
04
ENDCHAR
STARTCHAR Wcircumflex
ENCODING 372
SWIDTH 795 0
DWIDTH 6 0
BBX 6 7 0 0
BITMAP
0100
0000
4510
4510
5510
1450
2080
ENDCHAR
STARTCHAR wcircumflex
ENCODING 373
SWIDTH 682 0
DWIDTH 5 0
BBX 5 6 0 0
BITMAP
0400
0000
4840
4540
1540
2140
ENDCHAR
STARTCHAR Ycircumflex
ENCODING 374
SWIDTH 493 0
DWIDTH 4 0
BBX 4 5 0 0
BITMAP
41
14
14
14
14
ENDCHAR
STARTCHAR ycircumflex
ENCODING 375
SWIDTH 459 0
DWIDTH 4 0
BBX 4 7 0 -1
BITMAP
14
00
41
44
14
14
50
ENDCHAR
STARTCHAR Ydieresis
ENCODING 376
SWIDTH 493 0
DWIDTH 4 0
BBX 4 7 0 0
BITMAP
14
00
41
14
14
14
14
ENDCHAR
STARTCHAR Zacute
ENCODING 377
SWIDTH 482 0
DWIDTH 4 0
BBX 4 7 0 0
BITMAP
04
04
59
04
10
10
95
ENDCHAR
STARTCHAR zacute
ENCODING 378
SWIDTH 405 0
DWIDTH 3 0
BBX 3 6 0 0
BITMAP
04
00
58
14
10
94
ENDCHAR
STARTCHAR Zdotaccent
ENCODING 379
SWIDTH 482 0
DWIDTH 4 0
BBX 4 7 0 0
BITMAP
04
00
59
04
10
10
95
ENDCHAR
STARTCHAR zdotaccent
ENCODING 380
SWIDTH 405 0
DWIDTH 3 0
BBX 3 6 0 0
BITMAP
10
00
58
14
10
94
ENDCHAR
STARTCHAR Zcaron
ENCODING 381
SWIDTH 482 0
DWIDTH 4 0
BBX 4 5 0 0
BITMAP
59
04
10
10
95
ENDCHAR
STARTCHAR zcaron
ENCODING 382
SWIDTH 405 0
DWIDTH 3 0
BBX 3 6 0 0
BITMAP
14
00
58
14
10
94
ENDCHAR
STARTCHAR florin
ENCODING 402
SWIDTH 494 0
DWIDTH 4 0
BBX 4 7 0 -1
BITMAP
05
04
18
10
10
10
50
ENDCHAR
STARTCHAR AEacute
ENCODING 508
SWIDTH 773 0
DWIDTH 6 0
BBX 6 7 0 0
BITMAP
0100
0100
0650
0500
1240
6500
4250
ENDCHAR
STARTCHAR aeacute
ENCODING 509
SWIDTH 795 0
DWIDTH 6 0
BBX 6 6 0 0
BITMAP
0100
0000
1650
1510
4250
5650
ENDCHAR
STARTCHAR Oslashacute
ENCODING 510
SWIDTH 558 0
DWIDTH 4 0
BBX 4 7 0 0
BITMAP
04
04
56
46
45
51
55
ENDCHAR
STARTCHAR oslashacute
ENCODING 511
SWIDTH 521 0
DWIDTH 4 0
BBX 4 6 0 0
BITMAP
04
00
55
45
51
55
ENDCHAR
STARTCHAR uni0218
ENCODING 536
SWIDTH 562 0
DWIDTH 5 0
BBX 4 7 0 -2
BITMAP
55
40
15
41
55
04
04
ENDCHAR
STARTCHAR uni0219
ENCODING 537
SWIDTH 427 0
DWIDTH 3 0
BBX 3 5 0 -1
BITMAP
54
50
04
58
10
ENDCHAR
STARTCHAR circumflex
ENCODING 710
SWIDTH 326 0
DWIDTH 3 0
BBX 2 1 0 5
BITMAP
50
ENDCHAR
STARTCHAR caron
ENCODING 711
SWIDTH 326 0
DWIDTH 3 0
BBX 2 1 0 5
BITMAP
50
ENDCHAR
STARTCHAR uni02C9
ENCODING 713
SWIDTH 358 0
DWIDTH 3 0
BBX 1 1 1 4
BITMAP
40
ENDCHAR
STARTCHAR breve
ENCODING 728
SWIDTH 332 0
DWIDTH 3 0
BBX 1 1 1 5
BITMAP
40
ENDCHAR
STARTCHAR dotaccent
ENCODING 729
SWIDTH 183 0
DWIDTH 1 0
BBX 1 1 0 5
BITMAP
40
ENDCHAR
STARTCHAR ring
ENCODING 730
SWIDTH 297 0
DWIDTH 2 0
BBX 2 2 0 4
BITMAP
50
10
ENDCHAR
STARTCHAR ogonek
ENCODING 731
SWIDTH 243 0
DWIDTH 2 0
BBX 1 1 0 -1
BITMAP
40
ENDCHAR
STARTCHAR tilde
ENCODING 732
SWIDTH 369 0
DWIDTH 3 0
BBX 2 1 0 5
BITMAP
50
ENDCHAR
STARTCHAR hungarumlaut
ENCODING 733
SWIDTH 377 0
DWIDTH 3 0
BBX 3 1 0 5
BITMAP
54
ENDCHAR
STARTCHAR Mu
ENCODING 924
SWIDTH 527 0
DWIDTH 4 0
BBX 4 5 0 -1
BITMAP
41
41
41
55
40
ENDCHAR
STARTCHAR Pi
ENCODING 928
SWIDTH 605 0
DWIDTH 5 0
BBX 5 5 0 0
BITMAP
6640
1100
1100
1100
1100
ENDCHAR
STARTCHAR Sigma
ENCODING 931
SWIDTH 481 0
DWIDTH 4 0
BBX 3 5 0 0
BITMAP
54
10
14
10
54
ENDCHAR
STARTCHAR uni0901
ENCODING 2305
SWIDTH 0 0
DWIDTH 0 0
BBX 2 1 -2 5
BITMAP
50
ENDCHAR
STARTCHAR uni0902
ENCODING 2306
SWIDTH 0 0
DWIDTH 0 0
BBX 1 1 -1 6
BITMAP
00
ENDCHAR
STARTCHAR uni0903
ENCODING 2307
SWIDTH 247 0
DWIDTH 2 0
BBX 1 1 1 0
BITMAP
00
ENDCHAR
STARTCHAR uni0905
ENCODING 2309
SWIDTH 598 0
DWIDTH 5 0
BBX 5 5 0 0
BITMAP
1540
0500
0A00
0500
5500
ENDCHAR
STARTCHAR uni0906
ENCODING 2310
SWIDTH 828 0
DWIDTH 7 0
BBX 7 5 0 0
BITMAP
1564
0510
1A10
0510
5510
ENDCHAR
STARTCHAR uni0907
ENCODING 2311
SWIDTH 478 0
DWIDTH 4 0
BBX 4 6 0 -1
BITMAP
59
14
40
14
55
40
ENDCHAR
STARTCHAR uni0908
ENCODING 2312
SWIDTH 478 0
DWIDTH 4 0
BBX 4 8 0 -1
BITMAP
05
04
59
14
40
14
55
40
ENDCHAR
STARTCHAR uni0909
ENCODING 2313
SWIDTH 471 0
DWIDTH 4 0
BBX 4 5 0 0
BITMAP
59
04
18
45
54
ENDCHAR
STARTCHAR uni090A
ENCODING 2314
SWIDTH 661 0
DWIDTH 5 0
BBX 5 5 0 0
BITMAP
5940
0400
1940
4540
5480
ENDCHAR
STARTCHAR uni090B
ENCODING 2315
SWIDTH 753 0
DWIDTH 6 0
BBX 6 5 0 0
BITMAP
5550
1550
4550
4550
1590
ENDCHAR
STARTCHAR uni090C
ENCODING 2316
SWIDTH 676 0
DWIDTH 5 0
BBX 6 7 0 -2
BITMAP
5590
1580
4440
4440
5040
0100
0150
ENDCHAR
STARTCHAR uni090D
ENCODING 2317
SWIDTH 521 0
DWIDTH 4 0
BBX 4 7 0 0
BITMAP
11
14
96
41
45
40
14
ENDCHAR
STARTCHAR uni090E
ENCODING 2318
SWIDTH 522 0
DWIDTH 4 0
BBX 4 7 0 0
BITMAP
14
05
96
41
45
40
14
ENDCHAR
STARTCHAR uni090F
ENCODING 2319
SWIDTH 526 0
DWIDTH 4 0
BBX 4 5 0 0
BITMAP
96
41
45
40
14
ENDCHAR
STARTCHAR uni0910
ENCODING 2320
SWIDTH 526 0
DWIDTH 4 0
BBX 4 7 0 0
BITMAP
04
01
96
41
45
40
14
ENDCHAR
STARTCHAR uni0911
ENCODING 2321
SWIDTH 829 0
DWIDTH 7 0
BBX 7 6 0 0
BITMAP
0050
1564
0510
0A10
0510
5510
ENDCHAR
STARTCHAR uni0912
ENCODING 2322
SWIDTH 828 0
DWIDTH 7 0
BBX 7 7 0 0
BITMAP
0040
0010
1564
0510
0A10
0510
5510
ENDCHAR
STARTCHAR uni0913
ENCODING 2323
SWIDTH 829 0
DWIDTH 7 0
BBX 7 7 0 0
BITMAP
0040
0010
1564
0510
0A10
0510
5510
ENDCHAR
STARTCHAR uni0914
ENCODING 2324
SWIDTH 829 0
DWIDTH 7 0
BBX 7 7 0 0
BITMAP
0050
0020
1564
0510
0A10
0510
5510
ENDCHAR
STARTCHAR uni0915
ENCODING 2325
SWIDTH 725 0
DWIDTH 6 0
BBX 6 5 0 0
BITMAP
5950
1540
4410
4410
1940
ENDCHAR
STARTCHAR uni0916
ENCODING 2326
SWIDTH 696 0
DWIDTH 6 0
BBX 6 5 0 0
BITMAP
6590
1540
5440
5180
1040
ENDCHAR
STARTCHAR uni0917
ENCODING 2327
SWIDTH 494 0
DWIDTH 4 0
BBX 4 5 0 0
BITMAP
65
15
15
45
01
ENDCHAR
STARTCHAR uni0918
ENCODING 2328
SWIDTH 559 0
DWIDTH 4 0
BBX 5 5 0 0
BITMAP
9640
4100
5100
4100
1600
ENDCHAR
STARTCHAR uni0919
ENCODING 2329
SWIDTH 505 0
DWIDTH 4 0
BBX 4 5 0 0
BITMAP
59
14
41
14
55
ENDCHAR
STARTCHAR uni091A
ENCODING 2330
SWIDTH 563 0
DWIDTH 5 0
BBX 5 5 0 0
BITMAP
5640
6500
1100
1600
0100
ENDCHAR
STARTCHAR uni091B
ENCODING 2331
SWIDTH 581 0
DWIDTH 5 0
BBX 5 5 0 0
BITMAP
9640
4100
2100
4100
5600
ENDCHAR
STARTCHAR uni091C
ENCODING 2332
SWIDTH 547 0
DWIDTH 4 0
BBX 4 5 0 0
BITMAP
56
25
15
15
51
ENDCHAR
STARTCHAR uni091D
ENCODING 2333
SWIDTH 664 0
DWIDTH 5 0
BBX 5 5 0 0
BITMAP
5980
5440
5940
4440
5840
ENDCHAR
STARTCHAR uni091E
ENCODING 2334
SWIDTH 592 0
DWIDTH 5 0
BBX 5 5 0 0
BITMAP
5640
5100
0A00
0500
5100
ENDCHAR
STARTCHAR uni091F
ENCODING 2335
SWIDTH 485 0
DWIDTH 4 0
BBX 4 5 0 0
BITMAP
59
14
40
41
55
ENDCHAR
STARTCHAR uni0920
ENCODING 2336
SWIDTH 512 0
DWIDTH 4 0
BBX 4 5 0 0
BITMAP
59
18
41
41
55
ENDCHAR
STARTCHAR uni0921
ENCODING 2337
SWIDTH 475 0
DWIDTH 4 0
BBX 4 5 0 0
BITMAP
59
14
40
14
55
ENDCHAR
STARTCHAR uni0922
ENCODING 2338
SWIDTH 485 0
DWIDTH 4 0
BBX 4 5 0 0
BITMAP
59
14
40
45
55
ENDCHAR
STARTCHAR uni0923
ENCODING 2339
SWIDTH 681 0
DWIDTH 5 0
BBX 6 5 0 0
BITMAP
9990
4440
4440
1440
0040
ENDCHAR
STARTCHAR uni0924
ENCODING 2340
SWIDTH 496 0
DWIDTH 4 0
BBX 4 5 0 0
BITMAP
56
15
41
41
51
ENDCHAR
STARTCHAR uni0925
ENCODING 2341
SWIDTH 593 0
DWIDTH 5 0
BBX 5 5 0 0
BITMAP
1540
0500
5500
5600
0100
ENDCHAR
STARTCHAR uni0926
ENCODING 2342
SWIDTH 489 0
DWIDTH 4 0
BBX 4 5 0 0
BITMAP
55
14
40
41
15
ENDCHAR
STARTCHAR uni0927
ENCODING 2343
SWIDTH 560 0
DWIDTH 4 0
BBX 5 5 0 0
BITMAP
9240
4100
6100
4100
1600
ENDCHAR
STARTCHAR uni0928
ENCODING 2344
SWIDTH 473 0
DWIDTH 4 0
BBX 4 5 0 0
BITMAP
59
04
58
44
04
ENDCHAR
STARTCHAR uni0928093C
ENCODING 2345
SWIDTH 473 0
DWIDTH 4 0
BBX 4 5 0 0
BITMAP
59
04
58
44
14
ENDCHAR
STARTCHAR uni092A
ENCODING 2346
SWIDTH 503 0
DWIDTH 4 0
BBX 4 5 0 0
BITMAP
96
41
41
15
01
ENDCHAR
STARTCHAR uni092B
ENCODING 2347
SWIDTH 739 0
DWIDTH 6 0
BBX 6 5 0 0
BITMAP
9550
4540
4510
1510
0540
ENDCHAR
STARTCHAR uni092C
ENCODING 2348
SWIDTH 491 0
DWIDTH 4 0
BBX 4 5 0 0
BITMAP
55
15
55
49
15
ENDCHAR
STARTCHAR uni092D
ENCODING 2349
SWIDTH 491 0
DWIDTH 4 0
BBX 4 5 0 0
BITMAP
45
45
55
45
05
ENDCHAR
STARTCHAR uni092E
ENCODING 2350
SWIDTH 490 0
DWIDTH 4 0
BBX 4 5 0 0
BITMAP
95
45
55
45
05
ENDCHAR
STARTCHAR uni092F
ENCODING 2351
SWIDTH 564 0
DWIDTH 5 0
BBX 5 5 0 0
BITMAP
6640
1100
5100
1600
0100
ENDCHAR
STARTCHAR uni0930
ENCODING 2352
SWIDTH 337 0
DWIDTH 3 0
BBX 3 5 0 0
BITMAP
64
10
50
50
10
ENDCHAR
STARTCHAR uni0930093C
ENCODING 2353
SWIDTH 347 0
DWIDTH 3 0
BBX 3 5 0 0
BITMAP
64
10
50
10
10
ENDCHAR
STARTCHAR uni0932
ENCODING 2354
SWIDTH 676 0
DWIDTH 5 0
BBX 6 5 0 0
BITMAP
5590
1580
4440
4440
5040
ENDCHAR
STARTCHAR uni0933
ENCODING 2355
SWIDTH 672 0
DWIDTH 5 0
BBX 5 5 0 0
BITMAP
5640
1540
4440
4440
5940
ENDCHAR
STARTCHAR uni0933093C
ENCODING 2356
SWIDTH 672 0
DWIDTH 5 0
BBX 5 6 0 -1
BITMAP
5640
1540
4440
4440
5940
1000
ENDCHAR
STARTCHAR uni0935
ENCODING 2357
SWIDTH 484 0
DWIDTH 4 0
BBX 4 5 0 0
BITMAP
59
14
44
44
18
ENDCHAR
STARTCHAR uni0936
ENCODING 2358
SWIDTH 614 0
DWIDTH 5 0
BBX 5 5 0 0
BITMAP
5540
4540
5540
1140
1140
ENDCHAR
STARTCHAR uni0937
ENCODING 2359
SWIDTH 505 0
DWIDTH 4 0
BBX 4 5 0 0
BITMAP
A6
55
45
15
01
ENDCHAR
STARTCHAR uni0938
ENCODING 2360
SWIDTH 575 0
DWIDTH 5 0
BBX 5 5 0 0
BITMAP
6640
1100
6600
5100
1100
ENDCHAR
STARTCHAR uni0939
ENCODING 2361
SWIDTH 481 0
DWIDTH 4 0
BBX 4 6 0 -1
BITMAP
59
14
14
40
40
14
ENDCHAR
STARTCHAR uni093C
ENCODING 2364
SWIDTH 0 0
DWIDTH 0 0
BBX 1 1 -1 -1
BITMAP
00
ENDCHAR
STARTCHAR uni093D
ENCODING 2365
SWIDTH 529 0
DWIDTH 4 0
BBX 3 5 1 0
BITMAP
90
40
10
04
54
ENDCHAR
STARTCHAR uni093E
ENCODING 2366
SWIDTH 231 0
DWIDTH 2 0
BBX 2 5 0 0
BITMAP
90
40
40
40
40
ENDCHAR
STARTCHAR uni093F
ENCODING 2367
SWIDTH 231 0
DWIDTH 2 0
BBX 5 7 0 0
BITMAP
1580
4040
9000
4000
4000
4000
4000
ENDCHAR
STARTCHAR uni0940
ENCODING 2368
SWIDTH 231 0
DWIDTH 2 0
BBX 3 7 -1 0
BITMAP
A0
10
24
10
10
10
10
ENDCHAR
STARTCHAR uni0941
ENCODING 2369
SWIDTH 0 0
DWIDTH 0 0
BBX 3 2 -3 -2
BITMAP
40
54
ENDCHAR
STARTCHAR uni0942
ENCODING 2370
SWIDTH 0 0
DWIDTH 0 0
BBX 3 2 -2 -2
BITMAP
50
44
ENDCHAR
STARTCHAR uni0943
ENCODING 2371
SWIDTH 0 0
DWIDTH 0 0
BBX 2 2 -2 -2
BITMAP
40
50
ENDCHAR
STARTCHAR uni0945
ENCODING 2373
SWIDTH 0 0
DWIDTH 0 0
BBX 2 1 -2 5
BITMAP
50
ENDCHAR
STARTCHAR uni0946
ENCODING 2374
SWIDTH 0 0
DWIDTH 0 0
BBX 2 2 -3 5
BITMAP
40
10
ENDCHAR
STARTCHAR uni0947
ENCODING 2375
SWIDTH 0 0
DWIDTH 0 0
BBX 2 2 -3 5
BITMAP
50
10
ENDCHAR
STARTCHAR uni0948
ENCODING 2376
SWIDTH 0 0
DWIDTH 0 0
BBX 3 2 -3 5
BITMAP
54
14
ENDCHAR
STARTCHAR uni0949
ENCODING 2377
SWIDTH 231 0
DWIDTH 2 0
BBX 2 6 0 0
BITMAP
50
90
40
40
40
40
ENDCHAR
STARTCHAR uni094A
ENCODING 2378
SWIDTH 231 0
DWIDTH 2 0
BBX 3 7 -1 0
BITMAP
40
10
24
10
10
10
10
ENDCHAR
STARTCHAR uni094B
ENCODING 2379
SWIDTH 231 0
DWIDTH 2 0
BBX 3 7 -1 0
BITMAP
40
10
24
10
10
10
10
ENDCHAR
STARTCHAR uni094C
ENCODING 2380
SWIDTH 231 0
DWIDTH 2 0
BBX 3 7 -1 0
BITMAP
50
10
24
10
10
10
10
ENDCHAR
STARTCHAR uni094D
ENCODING 2381
SWIDTH 0 0
DWIDTH 0 0
BBX 1 2 -1 -2
BITMAP
40
40
ENDCHAR
STARTCHAR uni0950
ENCODING 2384
SWIDTH 847 0
DWIDTH 7 0
BBX 6 5 0 0
BITMAP
1850
0450
1810
4450
5460
ENDCHAR
STARTCHAR uni0951
ENCODING 2385
SWIDTH 0 0
DWIDTH 0 0
BBX 1 1 -1 6
BITMAP
40
ENDCHAR
STARTCHAR uni0952
ENCODING 2386
SWIDTH 0 0
DWIDTH 0 0
BBX 2 1 -3 -1
BITMAP
50
ENDCHAR
STARTCHAR uni0953
ENCODING 2387
SWIDTH 0 0
DWIDTH 0 0
BBX 1 1 -2 6
BITMAP
40
ENDCHAR
STARTCHAR uni0954
ENCODING 2388
SWIDTH 0 0
DWIDTH 0 0
BBX 1 2 -1 5
BITMAP
40
40
ENDCHAR
STARTCHAR uni0915093C
ENCODING 2392
SWIDTH 725 0
DWIDTH 6 0
BBX 6 6 0 -1
BITMAP
5950
1540
4410
4410
1940
1000
ENDCHAR
STARTCHAR uni0916093C
ENCODING 2393
SWIDTH 696 0
DWIDTH 6 0
BBX 6 6 0 -1
BITMAP
6590
1540
5440
5180
1040
4000
ENDCHAR
STARTCHAR uni0917093C
ENCODING 2394
SWIDTH 494 0
DWIDTH 4 0
BBX 4 5 0 0
BITMAP
65
15
15
45
01
ENDCHAR
STARTCHAR uni091C093C
ENCODING 2395
SWIDTH 547 0
DWIDTH 4 0
BBX 4 5 0 0
BITMAP
56
25
15
15
51
ENDCHAR
STARTCHAR uni0921093C
ENCODING 2396
SWIDTH 475 0
DWIDTH 4 0
BBX 4 5 0 0
BITMAP
59
14
40
14
55
ENDCHAR
STARTCHAR uni0922093C
ENCODING 2397
SWIDTH 485 0
DWIDTH 4 0
BBX 4 5 0 0
BITMAP
59
14
40
45
55
ENDCHAR
STARTCHAR uni092B093C
ENCODING 2398
SWIDTH 739 0
DWIDTH 6 0
BBX 6 6 0 -1
BITMAP
9550
4540
4510
1510
0540
1000
ENDCHAR
STARTCHAR uni092F093C
ENCODING 2399
SWIDTH 564 0
DWIDTH 5 0
BBX 5 5 0 0
BITMAP
6640
1100
5100
1600
0100
ENDCHAR
STARTCHAR uni0960
ENCODING 2400
SWIDTH 753 0
DWIDTH 6 0
BBX 6 6 0 -1
BITMAP
5550
1550
4650
0940
1590
0050
ENDCHAR
STARTCHAR uni0961
ENCODING 2401
SWIDTH 676 0
DWIDTH 5 0
BBX 6 7 0 -2
BITMAP
5590
1580
4440
4140
5100
0140
0140
ENDCHAR
STARTCHAR uni0964
ENCODING 2404
SWIDTH 286 0
DWIDTH 2 0
BBX 1 5 1 0
BITMAP
40
40
40
40
40
ENDCHAR
STARTCHAR uni0965
ENCODING 2405
SWIDTH 518 0
DWIDTH 4 0
BBX 3 5 1 0
BITMAP
44
44
44
44
44
ENDCHAR
STARTCHAR uni0966
ENCODING 2406
SWIDTH 519 0
DWIDTH 4 0
BBX 4 5 0 0
BITMAP
55
41
41
41
55
ENDCHAR
STARTCHAR uni0967
ENCODING 2407
SWIDTH 288 0
DWIDTH 2 0
BBX 2 5 0 0
BITMAP
50
10
10
10
10
ENDCHAR
STARTCHAR uni0968
ENCODING 2408
SWIDTH 453 0
DWIDTH 4 0
BBX 4 5 0 0
BITMAP
54
41
04
50
54
ENDCHAR
STARTCHAR uni0969
ENCODING 2409
SWIDTH 489 0
DWIDTH 4 0
BBX 4 5 0 0
BITMAP
55
41
08
41
55
ENDCHAR
STARTCHAR uni096A
ENCODING 2410
SWIDTH 453 0
DWIDTH 4 0
BBX 4 5 0 0
BITMAP
08
14
44
59
04
ENDCHAR
STARTCHAR uni096B
ENCODING 2411
SWIDTH 480 0
DWIDTH 4 0
BBX 4 5 0 0
BITMAP
54
54
01
41
55
ENDCHAR
STARTCHAR uni096C
ENCODING 2412
SWIDTH 495 0
DWIDTH 4 0
BBX 4 5 0 0
BITMAP
54
40
55
41
55
ENDCHAR
STARTCHAR uni096D
ENCODING 2413
SWIDTH 380 0
DWIDTH 3 0
BBX 3 5 0 0
BITMAP
58
04
10
10
10
ENDCHAR
STARTCHAR uni096E
ENCODING 2414
SWIDTH 523 0
DWIDTH 4 0
BBX 4 5 0 0
BITMAP
55
41
65
41
55
ENDCHAR
STARTCHAR uni096F
ENCODING 2415
SWIDTH 493 0
DWIDTH 4 0
BBX 4 5 0 0
BITMAP
55
41
55
01
15
ENDCHAR
STARTCHAR uni0970
ENCODING 2416
SWIDTH 391 0
DWIDTH 3 0
BBX 3 3 0 1
BITMAP
54
44
54
ENDCHAR
STARTCHAR uni0972
ENCODING 2418
SWIDTH 598 0
DWIDTH 5 0
BBX 5 6 0 0
BITMAP
0140
1540
0500
0A00
0500
5500
ENDCHAR
STARTCHAR Wgrave
ENCODING 7808
SWIDTH 795 0
DWIDTH 6 0
BBX 6 7 0 0
BITMAP
0400
0000
4510
4510
5510
1450
2080
ENDCHAR
STARTCHAR wgrave
ENCODING 7809
SWIDTH 682 0
DWIDTH 5 0
BBX 5 6 0 0
BITMAP
0400
0000
4840
4540
1540
2140
ENDCHAR
STARTCHAR Wacute
ENCODING 7810
SWIDTH 795 0
DWIDTH 6 0
BBX 6 7 0 0
BITMAP
0100
0100
4510
4510
5510
1450
2080
ENDCHAR
STARTCHAR wacute
ENCODING 7811
SWIDTH 682 0
DWIDTH 5 0
BBX 5 6 0 0
BITMAP
0100
0000
4840
4540
1540
2140
ENDCHAR
STARTCHAR Wdieresis
ENCODING 7812
SWIDTH 795 0
DWIDTH 6 0
BBX 6 7 0 0
BITMAP
0500
0000
4510
4510
5510
1450
2080
ENDCHAR
STARTCHAR wdieresis
ENCODING 7813
SWIDTH 682 0
DWIDTH 5 0
BBX 5 6 0 0
BITMAP
0500
0000
4840
4540
1540
2140
ENDCHAR
STARTCHAR uni1E9E
ENCODING 7838
SWIDTH 542 0
DWIDTH 4 0
BBX 4 5 0 0
BITMAP
56
45
45
41
45
ENDCHAR
STARTCHAR Ygrave
ENCODING 7922
SWIDTH 493 0
DWIDTH 4 0
BBX 4 7 0 0
BITMAP
10
00
41
14
14
14
14
ENDCHAR
STARTCHAR ygrave
ENCODING 7923
SWIDTH 459 0
DWIDTH 4 0
BBX 4 7 0 -1
BITMAP
10
00
41
44
14
14
50
ENDCHAR
STARTCHAR uni200B
ENCODING 8203
SWIDTH 0 0
DWIDTH 0 0
BBX 1 1 0 0
BITMAP
00
ENDCHAR
STARTCHAR uni200C
ENCODING 8204
SWIDTH 0 0
DWIDTH 0 0
BBX 2 8 -1 -2
BITMAP
50
50
50
50
50
50
50
50
ENDCHAR
STARTCHAR uni200D
ENCODING 8205
SWIDTH 0 0
DWIDTH 0 0
BBX 2 8 -1 -2
BITMAP
50
60
50
50
50
50
50
50
ENDCHAR
STARTCHAR endash
ENCODING 8211
SWIDTH 408 0
DWIDTH 3 0
BBX 3 1 0 2
BITMAP
54
ENDCHAR
STARTCHAR emdash
ENCODING 8212
SWIDTH 537 0
DWIDTH 4 0
BBX 4 1 0 2
BITMAP
55
ENDCHAR
STARTCHAR quoteleft
ENCODING 8216
SWIDTH 179 0
DWIDTH 1 0
BBX 1 2 0 3
BITMAP
40
40
ENDCHAR
STARTCHAR quoteright
ENCODING 8217
SWIDTH 179 0
DWIDTH 1 0
BBX 1 2 0 3
BITMAP
40
40
ENDCHAR
STARTCHAR quotesinglbase
ENCODING 8218
SWIDTH 187 0
DWIDTH 2 0
BBX 1 2 0 -1
BITMAP
40
40
ENDCHAR
STARTCHAR quotedblleft
ENCODING 8220
SWIDTH 329 0
DWIDTH 3 0
BBX 2 2 0 3
BITMAP
40
50
ENDCHAR
STARTCHAR quotedblright
ENCODING 8221
SWIDTH 329 0
DWIDTH 3 0
BBX 2 2 0 3
BITMAP
50
50
ENDCHAR
STARTCHAR quotedblbase
ENCODING 8222
SWIDTH 337 0
DWIDTH 3 0
BBX 2 2 0 -1
BITMAP
50
50
ENDCHAR
STARTCHAR dagger
ENCODING 8224
SWIDTH 427 0
DWIDTH 3 0
BBX 3 5 0 0
BITMAP
10
64
10
10
10
ENDCHAR
STARTCHAR daggerdbl
ENCODING 8225
SWIDTH 427 0
DWIDTH 3 0
BBX 3 5 0 0
BITMAP
10
64
10
64
10
ENDCHAR
STARTCHAR bullet
ENCODING 8226
SWIDTH 273 0
DWIDTH 2 0
BBX 2 1 0 2
BITMAP
50
ENDCHAR
STARTCHAR ellipsis
ENCODING 8230
SWIDTH 591 0
DWIDTH 5 0
BBX 5 1 0 0
BITMAP
4540
ENDCHAR
STARTCHAR perthousand
ENCODING 8240
SWIDTH 1027 0
DWIDTH 8 0
BBX 8 5 0 0
BITMAP
5500
4500
0545
0515
1155
ENDCHAR
STARTCHAR guilsinglleft
ENCODING 8249
SWIDTH 290 0
DWIDTH 2 0
BBX 2 2 0 1
BITMAP
50
10
ENDCHAR
STARTCHAR guilsinglright
ENCODING 8250
SWIDTH 290 0
DWIDTH 2 0
BBX 1 2 1 1
BITMAP
40
40
ENDCHAR
STARTCHAR fraction
ENCODING 8260
SWIDTH 117 0
DWIDTH 1 0
BBX 5 5 -2 0
BITMAP
0140
0100
0400
1000
5000
ENDCHAR
STARTCHAR Euro
ENCODING 8364
SWIDTH 523 0
DWIDTH 4 0
BBX 4 5 0 0
BITMAP
15
54
64
11
25
ENDCHAR
STARTCHAR uni20B9
ENCODING 8377
SWIDTH 414 0
DWIDTH 3 0
BBX 3 5 0 0
BITMAP
64
54
50
10
10
ENDCHAR
STARTCHAR trademark
ENCODING 8482
SWIDTH 591 0
DWIDTH 5 0
BBX 4 2 1 3
BITMAP
55
55
ENDCHAR
STARTCHAR uni2126
ENCODING 8486
SWIDTH 629 0
DWIDTH 5 0
BBX 5 5 0 0
BITMAP
2600
5040
5040
5040
6240
ENDCHAR
STARTCHAR partialdiff
ENCODING 8706
SWIDTH 481 0
DWIDTH 4 0
BBX 4 6 0 0
BITMAP
10
04
15
41
41
55
ENDCHAR
STARTCHAR uni2206
ENCODING 8710
SWIDTH 594 0
DWIDTH 5 0
BBX 5 5 0 0
BITMAP
0800
1500
1100
5100
9540
ENDCHAR
STARTCHAR minus
ENCODING 8722
SWIDTH 523 0
DWIDTH 4 0
BBX 3 1 1 2
BITMAP
54
ENDCHAR
STARTCHAR approxequal
ENCODING 8776
SWIDTH 523 0
DWIDTH 4 0
BBX 3 3 1 1
BITMAP
40
14
50
ENDCHAR
STARTCHAR notequal
ENCODING 8800
SWIDTH 523 0
DWIDTH 4 0
BBX 3 2 1 1
BITMAP
64
94
ENDCHAR
STARTCHAR lessequal
ENCODING 8804
SWIDTH 523 0
DWIDTH 4 0
BBX 4 4 0 1
BITMAP
01
54
15
15
ENDCHAR
STARTCHAR greaterequal
ENCODING 8805
SWIDTH 523 0
DWIDTH 4 0
BBX 3 3 1 1
BITMAP
54
50
54
ENDCHAR
STARTCHAR uni25CC
ENCODING 9676
SWIDTH 701 0
DWIDTH 6 0
BBX 5 5 0 0
BITMAP
0500
1040
4040
1040
0540
ENDCHAR
STARTCHAR commaaccent
ENCODING 63171
SWIDTH 0 0
DWIDTH 0 0
BBX 1 2 1 -2
BITMAP
40
40
ENDCHAR
STARTCHAR .notdef
ENCODING -1
SWIDTH 600 0
DWIDTH 5 0
BBX 3 5 1 0
BITMAP
54
44
44
44
54
ENDCHAR
STARTCHAR .null
ENCODING -1
SWIDTH 0 0
DWIDTH 0 0
BBX 1 1 0 0
BITMAP
00
ENDCHAR
STARTCHAR nonmarkingreturn
ENCODING -1
SWIDTH 333 0
DWIDTH 3 0
BBX 1 1 0 0
BITMAP
00
ENDCHAR
STARTCHAR uni0915094D
ENCODING -1
SWIDTH 519 0
DWIDTH 4 0
BBX 5 5 0 0
BITMAP
5940
1540
4400
4400
1800
ENDCHAR
STARTCHAR uni0916094D
ENCODING -1
SWIDTH 468 0
DWIDTH 4 0
BBX 5 5 0 0
BITMAP
6540
1500
5400
5140
1000
ENDCHAR
STARTCHAR uni0917094D
ENCODING -1
SWIDTH 264 0
DWIDTH 2 0
BBX 2 4 0 1
BITMAP
60
10
10
40
ENDCHAR
STARTCHAR uni0918094D
ENCODING -1
SWIDTH 321 0
DWIDTH 3 0
BBX 4 5 0 0
BITMAP
95
40
50
40
15
ENDCHAR
STARTCHAR uni0919094D
ENCODING -1
SWIDTH 505 0
DWIDTH 4 0
BBX 4 7 0 -2
BITMAP
59
14
41
14
55
04
04
ENDCHAR
STARTCHAR uni091A094D
ENCODING -1
SWIDTH 330 0
DWIDTH 3 0
BBX 4 4 0 1
BITMAP
55
64
10
15
ENDCHAR
STARTCHAR uni091B094D
ENCODING -1
SWIDTH 581 0
DWIDTH 5 0
BBX 5 5 0 0
BITMAP
9540
4100
2100
4100
5600
ENDCHAR
STARTCHAR uni091C094D
ENCODING -1
SWIDTH 309 0
DWIDTH 2 0
BBX 3 5 0 0
BITMAP
54
24
14
14
50
ENDCHAR
STARTCHAR uni091D094D
ENCODING -1
SWIDTH 432 0
DWIDTH 3 0
BBX 4 6 0 -1
BITMAP
59
14
40
15
54
40
ENDCHAR
STARTCHAR uni091E094D
ENCODING -1
SWIDTH 359 0
DWIDTH 3 0
BBX 4 5 0 0
BITMAP
55
50
09
04
50
ENDCHAR
STARTCHAR uni091F094D
ENCODING -1
SWIDTH 485 0
DWIDTH 4 0
BBX 4 7 0 -2
BITMAP
59
14
40
41
55
00
04
ENDCHAR
STARTCHAR uni0920094D
ENCODING -1
SWIDTH 512 0
DWIDTH 4 0
BBX 4 7 0 -2
BITMAP
59
18
41
41
55
00
04
ENDCHAR
STARTCHAR uni0921094D
ENCODING -1
SWIDTH 475 0
DWIDTH 4 0
BBX 4 7 0 -2
BITMAP
59
14
40
14
55
04
04
ENDCHAR
STARTCHAR uni0922094D
ENCODING -1
SWIDTH 485 0
DWIDTH 4 0
BBX 4 7 0 -2
BITMAP
59
14
40
45
55
00
04
ENDCHAR
STARTCHAR uni0923094D
ENCODING -1
SWIDTH 454 0
DWIDTH 4 0
BBX 4 4 0 1
BITMAP
99
44
44
14
ENDCHAR
STARTCHAR uni0924094D
ENCODING -1
SWIDTH 263 0
DWIDTH 2 0
BBX 3 5 0 0
BITMAP
54
14
40
40
50
ENDCHAR
STARTCHAR uni0925094D
ENCODING -1
SWIDTH 359 0
DWIDTH 3 0
BBX 4 4 0 1
BITMAP
14
04
54
55
ENDCHAR
STARTCHAR uni0926094D
ENCODING -1
SWIDTH 489 0
DWIDTH 4 0
BBX 4 6 0 -1
BITMAP
55
14
40
41
15
04
ENDCHAR
STARTCHAR uni0927094D
ENCODING -1
SWIDTH 321 0
DWIDTH 3 0
BBX 4 5 0 0
BITMAP
95
40
50
40
15
ENDCHAR
STARTCHAR uni0928094D
ENCODING -1
SWIDTH 233 0
DWIDTH 2 0
BBX 3 4 0 1
BITMAP
54
00
54
40
ENDCHAR
STARTCHAR uni092A094D
ENCODING -1
SWIDTH 269 0
DWIDTH 2 0
BBX 3 4 0 1
BITMAP
94
40
40
14
ENDCHAR
STARTCHAR uni092B094D
ENCODING -1
SWIDTH 530 0
DWIDTH 4 0
BBX 5 5 0 0
BITMAP
9540
4540
4500
1500
0500
ENDCHAR
STARTCHAR uni092C094D
ENCODING -1
SWIDTH 265 0
DWIDTH 2 0
BBX 3 5 0 0
BITMAP
54
10
50
44
14
ENDCHAR
STARTCHAR uni092D094D
ENCODING -1
SWIDTH 261 0
DWIDTH 2 0
BBX 3 3 0 2
BITMAP
44
40
54
ENDCHAR
STARTCHAR uni092E094D
ENCODING -1
SWIDTH 261 0
DWIDTH 2 0
BBX 3 3 0 2
BITMAP
94
40
54
ENDCHAR
STARTCHAR uni092F094D
ENCODING -1
SWIDTH 323 0
DWIDTH 3 0
BBX 4 4 0 1
BITMAP
64
50
40
15
ENDCHAR
STARTCHAR uni0930094D
ENCODING -1
SWIDTH 337 0
DWIDTH 3 0
BBX 3 6 0 -1
BITMAP
64
10
50
50
10
10
ENDCHAR
STARTCHAR uni0932094D
ENCODING -1
SWIDTH 431 0
DWIDTH 3 0
BBX 5 5 0 0
BITMAP
5540
1540
4400
4400
5000
ENDCHAR
STARTCHAR uni0933094D
ENCODING -1
SWIDTH 677 0
DWIDTH 5 0
BBX 6 5 0 0
BITMAP
5550
1540
4440
4440
5940
ENDCHAR
STARTCHAR uni0935094D
ENCODING -1
SWIDTH 255 0
DWIDTH 2 0
BBX 3 5 0 0
BITMAP
54
10
40
40
14
ENDCHAR
STARTCHAR uni0936094D
ENCODING -1
SWIDTH 378 0
DWIDTH 3 0
BBX 3 5 0 0
BITMAP
54
44
54
10
10
ENDCHAR
STARTCHAR uni0937094D
ENCODING -1
SWIDTH 282 0
DWIDTH 2 0
BBX 3 4 0 1
BITMAP
A4
50
44
14
ENDCHAR
STARTCHAR uni0938094D
ENCODING -1
SWIDTH 338 0
DWIDTH 3 0
BBX 4 5 0 0
BITMAP
65
10
65
50
10
ENDCHAR
STARTCHAR uni0939094D
ENCODING -1
SWIDTH 457 0
DWIDTH 4 0
BBX 4 6 0 -1
BITMAP
59
14
15
40
40
14
ENDCHAR
STARTCHAR uni0915093C094D
ENCODING -1
SWIDTH 519 0
DWIDTH 4 0
BBX 5 5 0 0
BITMAP
5940
1540
4400
4400
1800
ENDCHAR
STARTCHAR uni0916093C094D
ENCODING -1
SWIDTH 463 0
DWIDTH 4 0
BBX 5 6 0 -1
BITMAP
6540
1500
5400
5140
1000
4000
ENDCHAR
STARTCHAR uni0917093C094D
ENCODING -1
SWIDTH 264 0
DWIDTH 2 0
BBX 2 3 0 2
BITMAP
60
10
40
ENDCHAR
STARTCHAR uni091C093C094D
ENCODING -1
SWIDTH 314 0
DWIDTH 3 0
BBX 3 5 0 0
BITMAP
54
24
14
14
50
ENDCHAR
STARTCHAR uni0928093C094D
ENCODING -1
SWIDTH 241 0
DWIDTH 2 0
BBX 3 5 0 0
BITMAP
54
00
54
40
10
ENDCHAR
STARTCHAR uni092B093C094D
ENCODING -1
SWIDTH 530 0
DWIDTH 4 0
BBX 5 6 0 -1
BITMAP
9540
4540
4500
1500
0500
1000
ENDCHAR
STARTCHAR uni092F093C094D
ENCODING -1
SWIDTH 325 0
DWIDTH 3 0
BBX 4 6 0 -1
BITMAP
64
50
40
15
00
10
ENDCHAR
STARTCHAR uni09080902
ENCODING -1
SWIDTH 478 0
DWIDTH 4 0
BBX 4 8 0 -1
BITMAP
05
04
59
14
40
14
55
40
ENDCHAR
STARTCHAR uni09300941
ENCODING -1
SWIDTH 533 0
DWIDTH 4 0
BBX 4 5 0 0
BITMAP
65
15
51
55
10
ENDCHAR
STARTCHAR uni09300942
ENCODING -1
SWIDTH 645 0
DWIDTH 5 0
BBX 5 5 0 0
BITMAP
6540
1540
5440
5140
1000
ENDCHAR
STARTCHAR uni09390941
ENCODING -1
SWIDTH 495 0
DWIDTH 4 0
BBX 4 7 0 -2
BITMAP
59
14
14
40
40
14
55
ENDCHAR
STARTCHAR uni09390942
ENCODING -1
SWIDTH 492 0
DWIDTH 4 0
BBX 4 7 0 -2
BITMAP
59
14
40
14
54
54
11
ENDCHAR
STARTCHAR uni09260943
ENCODING -1
SWIDTH 390 0
DWIDTH 3 0
BBX 3 5 0 0
BITMAP
58
14
40
50
54
ENDCHAR
STARTCHAR uni09390943
ENCODING -1
SWIDTH 519 0
DWIDTH 4 0
BBX 4 6 0 -1
BITMAP
59
14
40
55
45
54
ENDCHAR
STARTCHAR uni094D0930
ENCODING -1
SWIDTH 0 0
DWIDTH 0 0
BBX 2 2 -3 -1
BITMAP
50
50
ENDCHAR
STARTCHAR uni0930094D.1
ENCODING -1
SWIDTH 192 0
DWIDTH 2 0
BBX 3 3 -1 2
BITMAP
14
00
54
ENDCHAR
STARTCHAR uni0930094D.2
ENCODING -1
SWIDTH 0 0
DWIDTH 0 0
BBX 1 2 -1 5
BITMAP
40
40
ENDCHAR
STARTCHAR uni0930094D0902
ENCODING -1
SWIDTH 0 0
DWIDTH 0 0
BBX 1 2 -1 5
BITMAP
40
40
ENDCHAR
STARTCHAR uni093E0930094D
ENCODING -1
SWIDTH 231 0
DWIDTH 2 0
BBX 2 7 0 0
BITMAP
10
40
90
40
40
40
40
ENDCHAR
STARTCHAR uni093E0930094D0902
ENCODING -1
SWIDTH 231 0
DWIDTH 2 0
BBX 2 7 0 0
BITMAP
10
50
90
40
40
40
40
ENDCHAR
STARTCHAR uni0930094D.aMatraI
ENCODING -1
SWIDTH 0 0
DWIDTH 0 0
BBX 2 2 -1 5
BITMAP
10
40
ENDCHAR
STARTCHAR uni0902.aMatraI
ENCODING -1
SWIDTH 0 0
DWIDTH 0 0
BBX 1 1 0 6
BITMAP
40
ENDCHAR
STARTCHAR uni0930094D0902.aMatraI
ENCODING -1
SWIDTH 0 0
DWIDTH 0 0
BBX 2 2 -1 5
BITMAP
10
50
ENDCHAR
STARTCHAR uni09400930094D
ENCODING -1
SWIDTH 231 0
DWIDTH 2 0
BBX 3 7 -1 0
BITMAP
94
10
24
10
10
10
10
ENDCHAR
STARTCHAR uni09400902
ENCODING -1
SWIDTH 231 0
DWIDTH 2 0
BBX 3 7 -1 0
BITMAP
A4
10
24
10
10
10
10
ENDCHAR
STARTCHAR uni09400930094D0902
ENCODING -1
SWIDTH 231 0
DWIDTH 2 0
BBX 3 7 -1 0
BITMAP
94
14
24
10
10
10
10
ENDCHAR
STARTCHAR uni0940.aLong
ENCODING -1
SWIDTH 231 0
DWIDTH 2 0
BBX 5 7 -3 0
BITMAP
9600
0100
0240
0100
0100
0100
0100
ENDCHAR
STARTCHAR uni09400930094D.aLong
ENCODING -1
SWIDTH 231 0
DWIDTH 2 0
BBX 5 7 -3 0
BITMAP
9640
0100
0240
0100
0100
0100
0100
ENDCHAR
STARTCHAR uni09400902.aLong
ENCODING -1
SWIDTH 231 0
DWIDTH 2 0
BBX 5 7 -3 0
BITMAP
9640
0100
0240
0100
0100
0100
0100
ENDCHAR
STARTCHAR uni09400930094D0902.aLong
ENCODING -1
SWIDTH 231 0
DWIDTH 2 0
BBX 5 7 -3 0
BITMAP
9540
0140
0240
0100
0100
0100
0100
ENDCHAR
STARTCHAR uni09470930094D
ENCODING -1
SWIDTH 0 0
DWIDTH 0 0
BBX 3 2 -3 5
BITMAP
54
14
ENDCHAR
STARTCHAR uni09470902
ENCODING -1
SWIDTH 0 0
DWIDTH 0 0
BBX 3 2 -3 5
BITMAP
54
10
ENDCHAR
STARTCHAR uni09470901
ENCODING -1
SWIDTH 0 0
DWIDTH 0 0
BBX 4 2 -3 5
BITMAP
50
15
ENDCHAR
STARTCHAR uni09470930094D0902
ENCODING -1
SWIDTH 0 0
DWIDTH 0 0
BBX 3 2 -3 5
BITMAP
54
14
ENDCHAR
STARTCHAR uni09480930094D
ENCODING -1
SWIDTH 0 0
DWIDTH 0 0
BBX 3 2 -3 5
BITMAP
54
14
ENDCHAR
STARTCHAR uni09480902
ENCODING -1
SWIDTH 0 0
DWIDTH 0 0
BBX 3 2 -3 5
BITMAP
54
14
ENDCHAR
STARTCHAR uni09480901
ENCODING -1
SWIDTH 0 0
DWIDTH 0 0
BBX 5 2 -3 5
BITMAP
5400
1540
ENDCHAR
STARTCHAR uni09480930094D0902
ENCODING -1
SWIDTH 0 0
DWIDTH 0 0
BBX 3 2 -3 5
BITMAP
54
14
ENDCHAR
STARTCHAR uni094B0930094D
ENCODING -1
SWIDTH 231 0
DWIDTH 2 0
BBX 3 7 -1 0
BITMAP
54
20
24
10
10
10
10
ENDCHAR
STARTCHAR uni094B0902
ENCODING -1
SWIDTH 231 0
DWIDTH 2 0
BBX 3 7 -1 0
BITMAP
44
10
24
10
10
10
10
ENDCHAR
STARTCHAR uni094B0930094D0902
ENCODING -1
SWIDTH 231 0
DWIDTH 2 0
BBX 3 7 -1 0
BITMAP
54
14
24
10
10
10
10
ENDCHAR
STARTCHAR uni094C0930094D
ENCODING -1
SWIDTH 231 0
DWIDTH 2 0
BBX 3 7 -1 0
BITMAP
54
20
24
10
10
10
10
ENDCHAR
STARTCHAR uni094C0902
ENCODING -1
SWIDTH 231 0
DWIDTH 2 0
BBX 3 7 -1 0
BITMAP
54
10
24
10
10
10
10
ENDCHAR
STARTCHAR uni094C0930094D0902
ENCODING -1
SWIDTH 231 0
DWIDTH 2 0
BBX 3 7 -1 0
BITMAP
54
24
24
10
10
10
10
ENDCHAR
STARTCHAR uni0915094D0937
ENCODING -1
SWIDTH 656 0
DWIDTH 5 0
BBX 5 5 0 0
BITMAP
2480
2540
4040
4440
1840
ENDCHAR
STARTCHAR uni0915094D0937094D
ENCODING -1
SWIDTH 429 0
DWIDTH 3 0
BBX 4 5 0 0
BITMAP
14
25
40
44
18
ENDCHAR
STARTCHAR uni0915094D0937094D092E
ENCODING -1
SWIDTH 933 0
DWIDTH 7 0
BBX 8 5 0 0
BITMAP
2499
2544
4098
4444
1804
ENDCHAR
STARTCHAR uni0915094D0937094D092E094D
ENCODING -1
SWIDTH 717 0
DWIDTH 6 0
BBX 7 5 0 0
BITMAP
2494
2540
4094
4440
1800
ENDCHAR
STARTCHAR uni0915094D0937094D092E094D092F
ENCODING -1
SWIDTH 1283 0
DWIDTH 10 0
BBX 10 5 0 0
BITMAP
249660
254510
409810
440550
140010
ENDCHAR
STARTCHAR uni0915094D0937094D092F
ENCODING -1
SWIDTH 989 0
DWIDTH 8 0
BBX 8 5 0 0
BITMAP
1465
1415
2985
4459
5405
ENDCHAR
STARTCHAR uni0915094D0937094D0935
ENCODING -1
SWIDTH 936 0
DWIDTH 7 0
BBX 8 5 0 0
BITMAP
2459
2544
4044
4458
1804
ENDCHAR
STARTCHAR uni091C094D091E
ENCODING -1
SWIDTH 629 0
DWIDTH 5 0
BBX 5 5 0 0
BITMAP
5580
5540
5440
4540
5540
ENDCHAR
STARTCHAR uni091C094D091E094D
ENCODING -1
SWIDTH 398 0
DWIDTH 3 0
BBX 4 6 0 -1
BITMAP
55
15
40
14
54
40
ENDCHAR
STARTCHAR uni091C094D091E094D092F
ENCODING -1
SWIDTH 975 0
DWIDTH 8 0
BBX 8 5 0 0
BITMAP
5569
5514
5544
4558
5404
ENDCHAR
STARTCHAR uni0915094D0928
ENCODING -1
SWIDTH 1003 0
DWIDTH 8 0
BBX 8 5 0 0
BITMAP
5956
1541
4455
4441
1801
ENDCHAR
STARTCHAR uni0916094D0928
ENCODING -1
SWIDTH 958 0
DWIDTH 8 0
BBX 8 5 0 0
BITMAP
6559
1144
5458
5144
1004
ENDCHAR
STARTCHAR uni0917094D0928
ENCODING -1
SWIDTH 736 0
DWIDTH 6 0
BBX 6 5 0 0
BITMAP
6590
1040
1580
0440
0040
ENDCHAR
STARTCHAR uni0918094D0928
ENCODING -1
SWIDTH 814 0
DWIDTH 7 0
BBX 7 5 0 0
BITMAP
9564
5010
4160
1510
0010
ENDCHAR
STARTCHAR uni091A094D0928
ENCODING -1
SWIDTH 829 0
DWIDTH 7 0
BBX 7 5 0 0
BITMAP
5564
6410
1160
1510
0010
ENDCHAR
STARTCHAR uni091B094D0928
ENCODING -1
SWIDTH 977 0
DWIDTH 8 0
BBX 8 5 0 0
BITMAP
9559
4104
2158
4144
5604
ENDCHAR
STARTCHAR uni091C094D0928
ENCODING -1
SWIDTH 831 0
DWIDTH 7 0
BBX 7 5 0 0
BITMAP
5564
0010
1660
1510
5010
ENDCHAR
STARTCHAR uni091D094D0928
ENCODING -1
SWIDTH 935 0
DWIDTH 7 0
BBX 8 5 0 0
BITMAP
5959
5404
5944
4404
5804
ENDCHAR
STARTCHAR uni091F094D0928
ENCODING -1
SWIDTH 494 0
DWIDTH 4 0
BBX 4 7 0 -2
BITMAP
59
14
40
41
15
18
44
ENDCHAR
STARTCHAR uni0920094D0928
ENCODING -1
SWIDTH 516 0
DWIDTH 4 0
BBX 4 7 0 -2
BITMAP
55
18
41
41
15
18
44
ENDCHAR
STARTCHAR uni0921094D0928
ENCODING -1
SWIDTH 481 0
DWIDTH 4 0
BBX 4 7 0 -2
BITMAP
59
54
14
41
18
18
44
ENDCHAR
STARTCHAR uni0924094D0928
ENCODING -1
SWIDTH 756 0
DWIDTH 6 0
BBX 6 5 0 0
BITMAP
5560
1410
4550
4410
5010
ENDCHAR
STARTCHAR uni0925094D0928
ENCODING -1
SWIDTH 855 0
DWIDTH 7 0
BBX 7 5 0 0
BITMAP
1564
0410
5560
1510
0010
ENDCHAR
STARTCHAR uni0926094D0928
ENCODING -1
SWIDTH 955 0
DWIDTH 8 0
BBX 8 7 0 -2
BITMAP
5559
1404
4058
4144
1504
0100
0100
ENDCHAR
STARTCHAR uni0927094D0928
ENCODING -1
SWIDTH 814 0
DWIDTH 7 0
BBX 7 5 0 0
BITMAP
9164
5010
4160
1510
0010
ENDCHAR
STARTCHAR uni0928094D0928
ENCODING -1
SWIDTH 738 0
DWIDTH 6 0
BBX 6 5 0 0
BITMAP
5550
0050
5550
4450
0040
ENDCHAR
STARTCHAR uni092A094D0928
ENCODING -1
SWIDTH 782 0
DWIDTH 6 0
BBX 6 5 0 0
BITMAP
9560
4010
4150
1510
0010
ENDCHAR
STARTCHAR uni092B094D0928
ENCODING -1
SWIDTH 1013 0
DWIDTH 8 0
BBX 8 5 0 0
BITMAP
9556
4541
4555
1501
0501
ENDCHAR
STARTCHAR uni092C094D0928
ENCODING -1
SWIDTH 810 0
DWIDTH 6 0
BBX 7 5 0 0
BITMAP
5564
1010
5160
4510
1410
ENDCHAR
STARTCHAR uni092D094D0928
ENCODING -1
SWIDTH 757 0
DWIDTH 6 0
BBX 6 5 0 0
BITMAP
4560
4010
5550
4410
0010
ENDCHAR
STARTCHAR uni092E094D0928
ENCODING -1
SWIDTH 757 0
DWIDTH 6 0
BBX 6 5 0 0
BITMAP
9560
4010
5550
4410
0010
ENDCHAR
STARTCHAR uni092F094D0928
ENCODING -1
SWIDTH 829 0
DWIDTH 7 0
BBX 7 5 0 0
BITMAP
6564
5010
4160
1510
0010
ENDCHAR
STARTCHAR uni0935094D0928
ENCODING -1
SWIDTH 798 0
DWIDTH 6 0
BBX 6 5 0 0
BITMAP
5560
1010
4150
4110
1410
ENDCHAR
STARTCHAR uni0936094D0928
ENCODING -1
SWIDTH 845 0
DWIDTH 7 0
BBX 7 5 0 0
BITMAP
5564
4410
5510
1010
1010
ENDCHAR
STARTCHAR uni0938094D0928
ENCODING -1
SWIDTH 831 0
DWIDTH 7 0
BBX 7 5 0 0
BITMAP
6564
1010
6510
5010
1010
ENDCHAR
STARTCHAR uni0939094D0928
ENCODING -1
SWIDTH 500 0
DWIDTH 4 0
BBX 4 6 0 -1
BITMAP
56
15
40
25
45
18
ENDCHAR
STARTCHAR uni0915094D0930
ENCODING -1
SWIDTH 725 0
DWIDTH 6 0
BBX 6 6 0 -1
BITMAP
5950
1540
4410
4410
1940
1000
ENDCHAR
STARTCHAR uni0916094D0930
ENCODING -1
SWIDTH 698 0
DWIDTH 6 0
BBX 6 5 0 0
BITMAP
6590
1140
5440
5180
1140
ENDCHAR
STARTCHAR uni0917094D0930
ENCODING -1
SWIDTH 494 0
DWIDTH 4 0
BBX 4 5 0 0
BITMAP
65
15
15
49
15
ENDCHAR
STARTCHAR uni0918094D0930
ENCODING -1
SWIDTH 559 0
DWIDTH 4 0
BBX 5 6 0 -1
BITMAP
9640
4100
5100
4100
1A00
1000
ENDCHAR
STARTCHAR uni0919094D0930
ENCODING -1
SWIDTH 505 0
DWIDTH 4 0
BBX 4 6 0 -1
BITMAP
59
14
41
14
55
14
ENDCHAR
STARTCHAR uni091A094D0930
ENCODING -1
SWIDTH 563 0
DWIDTH 5 0
BBX 5 5 0 0
BITMAP
5640
6500
1100
1A00
1500
ENDCHAR
STARTCHAR uni091B094D0930
ENCODING -1
SWIDTH 581 0
DWIDTH 5 0
BBX 5 6 0 -1
BITMAP
9640
4100
2100
4100
5600
1500
ENDCHAR
STARTCHAR uni091C094D0930
ENCODING -1
SWIDTH 547 0
DWIDTH 4 0
BBX 4 5 0 0
BITMAP
56
25
15
15
55
ENDCHAR
STARTCHAR uni091D094D0930
ENCODING -1
SWIDTH 684 0
DWIDTH 5 0
BBX 6 5 0 0
BITMAP
5990
5440
5980
4480
5A40
ENDCHAR
STARTCHAR uni091E094D0930
ENCODING -1
SWIDTH 598 0
DWIDTH 5 0
BBX 5 5 0 0
BITMAP
5640
5100
0A00
5200
0500
ENDCHAR
STARTCHAR uni091F094D0930
ENCODING -1
SWIDTH 485 0
DWIDTH 4 0
BBX 4 6 0 -1
BITMAP
59
14
40
41
55
14
ENDCHAR
STARTCHAR uni0920094D0930
ENCODING -1
SWIDTH 512 0
DWIDTH 4 0
BBX 4 6 0 -1
BITMAP
59
18
41
41
55
14
ENDCHAR
STARTCHAR uni0921094D0930
ENCODING -1
SWIDTH 475 0
DWIDTH 4 0
BBX 4 6 0 -1
BITMAP
59
14
40
54
55
14
ENDCHAR
STARTCHAR uni0922094D0930
ENCODING -1
SWIDTH 485 0
DWIDTH 4 0
BBX 4 6 0 -1
BITMAP
59
14
40
45
55
14
ENDCHAR
STARTCHAR uni0923094D0930
ENCODING -1
SWIDTH 681 0
DWIDTH 5 0
BBX 6 5 0 0
BITMAP
9990
4440
4440
1580
0540
ENDCHAR
STARTCHAR uni0924094D0930
ENCODING -1
SWIDTH 493 0
DWIDTH 4 0
BBX 4 5 0 0
BITMAP
55
15
45
09
15
ENDCHAR
STARTCHAR uni0925094D0930
ENCODING -1
SWIDTH 593 0
DWIDTH 5 0
BBX 5 5 0 0
BITMAP
1540
0500
5500
5A00
1500
ENDCHAR
STARTCHAR uni0926094D0930
ENCODING -1
SWIDTH 489 0
DWIDTH 4 0
BBX 4 6 0 -1
BITMAP
55
14
40
41
19
10
ENDCHAR
STARTCHAR uni0927094D0930
ENCODING -1
SWIDTH 560 0
DWIDTH 4 0
BBX 5 6 0 -1
BITMAP
9240
4100
6100
4100
1A00
1000
ENDCHAR
STARTCHAR uni0928094D0930
ENCODING -1
SWIDTH 473 0
DWIDTH 4 0
BBX 4 5 0 0
BITMAP
59
04
58
48
14
ENDCHAR
STARTCHAR uni092A094D0930
ENCODING -1
SWIDTH 503 0
DWIDTH 4 0
BBX 4 5 0 0
BITMAP
96
41
41
19
11
ENDCHAR
STARTCHAR uni092B094D0930
ENCODING -1
SWIDTH 741 0
DWIDTH 6 0
BBX 6 5 0 0
BITMAP
9550
4540
4510
1940
1500
ENDCHAR
STARTCHAR uni092C094D0930
ENCODING -1
SWIDTH 491 0
DWIDTH 4 0
BBX 4 6 0 -1
BITMAP
55
15
55
49
19
10
ENDCHAR
STARTCHAR uni092D094D0930
ENCODING -1
SWIDTH 491 0
DWIDTH 4 0
BBX 4 5 0 0
BITMAP
45
45
59
49
15
ENDCHAR
STARTCHAR uni092E094D0930
ENCODING -1
SWIDTH 490 0
DWIDTH 4 0
BBX 4 5 0 0
BITMAP
95
45
59
49
15
ENDCHAR
STARTCHAR uni092F094D0930
ENCODING -1
SWIDTH 564 0
DWIDTH 5 0
BBX 5 5 0 0
BITMAP
6640
1100
5100
1A00
1500
ENDCHAR
STARTCHAR uni0935094D0930
ENCODING -1
SWIDTH 484 0
DWIDTH 4 0
BBX 4 6 0 -1
BITMAP
59
14
44
44
18
10
ENDCHAR
STARTCHAR uni0936094D0930
ENCODING -1
SWIDTH 558 0
DWIDTH 4 0
BBX 5 5 0 0
BITMAP
5540
4500
2500
4A00
1500
ENDCHAR
STARTCHAR uni0938094D0930
ENCODING -1
SWIDTH 604 0
DWIDTH 5 0
BBX 5 5 0 0
BITMAP
6640
1100
6600
5500
1100
ENDCHAR
STARTCHAR uni0939094D0930
ENCODING -1
SWIDTH 505 0
DWIDTH 4 0
BBX 4 6 0 -1
BITMAP
56
14
40
55
45
14
ENDCHAR
STARTCHAR uni0915093C094D0930
ENCODING -1
SWIDTH 725 0
DWIDTH 6 0
BBX 6 6 0 -1
BITMAP
5950
1540
4410
4410
1940
1000
ENDCHAR
STARTCHAR uni0916093C094D0930
ENCODING -1
SWIDTH 698 0
DWIDTH 6 0
BBX 6 6 0 -1
BITMAP
6590
1140
5440
5180
1140
0100
ENDCHAR
STARTCHAR uni0917093C094D0930
ENCODING -1
SWIDTH 494 0
DWIDTH 4 0
BBX 4 5 0 0
BITMAP
65
15
15
49
15
ENDCHAR
STARTCHAR uni091C093C094D0930
ENCODING -1
SWIDTH 547 0
DWIDTH 4 0
BBX 4 6 0 -1
BITMAP
56
25
15
15
55
40
ENDCHAR
STARTCHAR uni0921093C094D0930
ENCODING -1
SWIDTH 475 0
DWIDTH 4 0
BBX 4 6 0 -1
BITMAP
59
14
40
54
55
54
ENDCHAR
STARTCHAR uni0922093C094D0930
ENCODING -1
SWIDTH 485 0
DWIDTH 4 0
BBX 4 6 0 -1
BITMAP
59
14
40
45
55
54
ENDCHAR
STARTCHAR uni0928093C094D0930
ENCODING -1
SWIDTH 473 0
DWIDTH 4 0
BBX 4 6 0 -1
BITMAP
59
04
58
48
14
10
ENDCHAR
STARTCHAR uni092B093C094D0930
ENCODING -1
SWIDTH 741 0
DWIDTH 6 0
BBX 6 5 0 0
BITMAP
9550
4540
4510
1940
1500
ENDCHAR
STARTCHAR uni092F093C094D0930
ENCODING -1
SWIDTH 564 0
DWIDTH 5 0
BBX 5 6 0 -1
BITMAP
6640
1100
5100
1A00
1500
0400
ENDCHAR
STARTCHAR uni0915094D0930094D
ENCODING -1
SWIDTH 518 0
DWIDTH 4 0
BBX 5 6 0 -1
BITMAP
5940
1540
4400
4400
1800
1000
ENDCHAR
STARTCHAR uni0916094D0930094D
ENCODING -1
SWIDTH 469 0
DWIDTH 4 0
BBX 5 5 0 0
BITMAP
6540
1100
5400
5140
1100
ENDCHAR
STARTCHAR uni0917094D0930094D
ENCODING -1
SWIDTH 264 0
DWIDTH 2 0
BBX 3 5 0 0
BITMAP
60
10
10
44
10
ENDCHAR
STARTCHAR uni0918094D0930094D
ENCODING -1
SWIDTH 319 0
DWIDTH 3 0
BBX 4 6 0 -1
BITMAP
94
40
50
40
19
10
ENDCHAR
STARTCHAR uni091A094D0930094D
ENCODING -1
SWIDTH 331 0
DWIDTH 3 0
BBX 4 5 0 0
BITMAP
54
64
10
19
10
ENDCHAR
STARTCHAR uni091C094D0930094D
ENCODING -1
SWIDTH 312 0
DWIDTH 3 0
BBX 3 5 0 0
BITMAP
54
24
14
14
54
ENDCHAR
STARTCHAR uni091D094D0930094D
ENCODING -1
SWIDTH 441 0
DWIDTH 4 0
BBX 5 6 0 -1
BITMAP
5900
1400
4000
1540
5540
4100
ENDCHAR
STARTCHAR uni091E094D0930094D
ENCODING -1
SWIDTH 374 0
DWIDTH 3 0
BBX 4 5 0 0
BITMAP
55
50
09
52
04
ENDCHAR
STARTCHAR uni091F094D0930094D
ENCODING -1
SWIDTH 485 0
DWIDTH 4 0
BBX 4 7 0 -2
BITMAP
59
14
40
41
55
14
04
ENDCHAR
STARTCHAR uni0920094D0930094D
ENCODING -1
SWIDTH 512 0
DWIDTH 4 0
BBX 4 7 0 -2
BITMAP
59
18
41
41
55
14
04
ENDCHAR
STARTCHAR uni0921094D0930094D
ENCODING -1
SWIDTH 475 0
DWIDTH 4 0
BBX 4 8 0 -3
BITMAP
59
14
40
14
55
14
04
04
ENDCHAR
STARTCHAR uni0922094D0930094D
ENCODING -1
SWIDTH 485 0
DWIDTH 4 0
BBX 4 8 0 -3
BITMAP
59
14
40
45
55
14
04
04
ENDCHAR
STARTCHAR uni0923094D0930094D
ENCODING -1
SWIDTH 457 0
DWIDTH 4 0
BBX 4 5 0 0
BITMAP
99
44
44
15
05
ENDCHAR
STARTCHAR uni0924094D0930094D
ENCODING -1
SWIDTH 268 0
DWIDTH 2 0
BBX 3 5 0 0
BITMAP
54
14
44
04
10
ENDCHAR
STARTCHAR uni0925094D0930094D
ENCODING -1
SWIDTH 358 0
DWIDTH 3 0
BBX 4 5 0 0
BITMAP
14
04
54
59
14
ENDCHAR
STARTCHAR uni0926094D0930094D
ENCODING -1
SWIDTH 489 0
DWIDTH 4 0
BBX 4 6 0 -1
BITMAP
55
14
40
41
19
04
ENDCHAR
STARTCHAR uni0927094D0930094D
ENCODING -1
SWIDTH 322 0
DWIDTH 3 0
BBX 4 6 0 -1
BITMAP
90
40
60
40
19
10
ENDCHAR
STARTCHAR uni0928094D0930094D
ENCODING -1
SWIDTH 247 0
DWIDTH 2 0
BBX 3 5 0 0
BITMAP
54
00
54
44
10
ENDCHAR
STARTCHAR uni092A094D0930094D
ENCODING -1
SWIDTH 270 0
DWIDTH 2 0
BBX 3 5 0 0
BITMAP
94
40
40
14
10
ENDCHAR
STARTCHAR uni092B094D0930094D
ENCODING -1
SWIDTH 523 0
DWIDTH 4 0
BBX 5 5 0 0
BITMAP
9940
4540
4400
1800
1400
ENDCHAR
STARTCHAR uni092C094D0930094D
ENCODING -1
SWIDTH 267 0
DWIDTH 2 0
BBX 3 6 0 -1
BITMAP
54
10
50
44
14
10
ENDCHAR
STARTCHAR uni092D094D0930094D
ENCODING -1
SWIDTH 257 0
DWIDTH 2 0
BBX 3 5 0 0
BITMAP
44
40
54
44
10
ENDCHAR
STARTCHAR uni092E094D0930094D
ENCODING -1
SWIDTH 261 0
DWIDTH 2 0
BBX 3 5 0 0
BITMAP
94
40
54
44
10
ENDCHAR
STARTCHAR uni092F094D0930094D
ENCODING -1
SWIDTH 323 0
DWIDTH 3 0
BBX 4 5 0 0
BITMAP
64
50
40
19
10
ENDCHAR
STARTCHAR uni0935094D0930094D
ENCODING -1
SWIDTH 255 0
DWIDTH 2 0
BBX 3 6 0 -1
BITMAP
54
10
40
40
14
10
ENDCHAR
STARTCHAR uni0938094D0930094D
ENCODING -1
SWIDTH 347 0
DWIDTH 3 0
BBX 4 5 0 0
BITMAP
64
10
65
54
10
ENDCHAR
STARTCHAR uni0915093C094D0930094D
ENCODING -1
SWIDTH 518 0
DWIDTH 4 0
BBX 5 6 0 -1
BITMAP
5940
1540
4400
4400
1800
1000
ENDCHAR
STARTCHAR uni0916093C094D0930094D
ENCODING -1
SWIDTH 466 0
DWIDTH 4 0
BBX 5 6 0 -1
BITMAP
6540
1100
5400
5140
1100
0100
ENDCHAR
STARTCHAR uni0917093C094D0930094D
ENCODING -1
SWIDTH 264 0
DWIDTH 2 0
BBX 3 5 0 0
BITMAP
60
10
10
44
10
ENDCHAR
STARTCHAR uni091C093C094D0930094D
ENCODING -1
SWIDTH 320 0
DWIDTH 3 0
BBX 4 6 0 -1
BITMAP
54
24
14
15
54
40
ENDCHAR
STARTCHAR uni0928093C094D0930094D
ENCODING -1
SWIDTH 247 0
DWIDTH 2 0
BBX 3 6 0 -1
BITMAP
54
00
54
44
10
10
ENDCHAR
STARTCHAR uni092B093C094D0930094D
ENCODING -1
SWIDTH 523 0
DWIDTH 4 0
BBX 5 6 0 -1
BITMAP
9940
4540
4400
1800
1400
1000
ENDCHAR
STARTCHAR uni092F093C094D0930094D
ENCODING -1
SWIDTH 323 0
DWIDTH 3 0
BBX 4 6 0 -1
BITMAP
64
50
40
19
10
04
ENDCHAR
STARTCHAR uni0915094D0915
ENCODING -1
SWIDTH 1255 0
DWIDTH 10 0
BBX 10 5 0 0
BITMAP
595650
155240
444110
444110
181540
ENDCHAR
STARTCHAR uni0915094D0916
ENCODING -1
SWIDTH 1256 0
DWIDTH 10 0
BBX 10 5 0 0
BITMAP
595960
154550
446510
441150
140410
ENDCHAR
STARTCHAR uni0915094D091A
ENCODING -1
SWIDTH 1086 0
DWIDTH 9 0
BBX 9 5 0 0
BITMAP
595640
056500
441100
441600
140100
ENDCHAR
STARTCHAR uni0915094D091C
ENCODING -1
SWIDTH 1071 0
DWIDTH 9 0
BBX 9 5 0 0
BITMAP
595640
055600
440500
440500
185100
ENDCHAR
STARTCHAR uni0915094D091F
ENCODING -1
SWIDTH 984 0
DWIDTH 8 0
BBX 8 5 0 0
BITMAP
5959
1554
4440
4441
1855
ENDCHAR
STARTCHAR uni0915094D0923
ENCODING -1
SWIDTH 1183 0
DWIDTH 9 0
BBX 10 5 0 0
BITMAP
599990
158440
444440
441440
180040
ENDCHAR
STARTCHAR uni0915094D0924
ENCODING -1
SWIDTH 761 0
DWIDTH 6 0
BBX 6 5 0 0
BITMAP
5650
6640
1110
1110
1140
ENDCHAR
STARTCHAR uni0915094D0925
ENCODING -1
SWIDTH 1118 0
DWIDTH 9 0
BBX 9 5 0 0
BITMAP
591440
055540
444140
441540
140040
ENDCHAR
STARTCHAR uni0915094D0926
ENCODING -1
SWIDTH 1009 0
DWIDTH 8 0
BBX 8 5 0 0
BITMAP
5956
1555
4440
4441
1815
ENDCHAR
STARTCHAR uni0915094D092A
ENCODING -1
SWIDTH 1007 0
DWIDTH 8 0
BBX 8 5 0 0
BITMAP
5996
1581
4441
4415
1801
ENDCHAR
STARTCHAR uni0915094D092B
ENCODING -1
SWIDTH 1242 0
DWIDTH 10 0
BBX 10 5 0 0
BITMAP
599550
158240
444510
441510
180140
ENDCHAR
STARTCHAR uni0915094D092E
ENCODING -1
SWIDTH 994 0
DWIDTH 8 0
BBX 8 5 0 0
BITMAP
5995
1585
4455
4445
1801
ENDCHAR
STARTCHAR uni0915094D092F
ENCODING -1
SWIDTH 1076 0
DWIDTH 9 0
BBX 9 5 0 0
BITMAP
596640
055100
444100
441600
140100
ENDCHAR
STARTCHAR uni0915094D0932
ENCODING -1
SWIDTH 1178 0
DWIDTH 9 0
BBX 10 5 0 0
BITMAP
595590
155580
444440
444440
185040
ENDCHAR
STARTCHAR uni0915094D0935
ENCODING -1
SWIDTH 1013 0
DWIDTH 8 0
BBX 8 5 0 0
BITMAP
5956
1551
4451
4451
1815
ENDCHAR
STARTCHAR uni0915094D0936
ENCODING -1
SWIDTH 1194 0
DWIDTH 10 0
BBX 10 5 0 0
BITMAP
595550
154140
442440
441040
180440
ENDCHAR
STARTCHAR uni0915094D0938
ENCODING -1
SWIDTH 1143 0
DWIDTH 9 0
BBX 9 5 0 0
BITMAP
595980
154440
446540
441040
180440
ENDCHAR
STARTCHAR uni0916094D0916
ENCODING -1
SWIDTH 1223 0
DWIDTH 10 0
BBX 10 5 0 0
BITMAP
655990
150540
545540
515180
101440
ENDCHAR
STARTCHAR uni0916094D0924
ENCODING -1
SWIDTH 984 0
DWIDTH 8 0
BBX 8 5 0 0
BITMAP
6559
1558
5444
5184
1054
ENDCHAR
STARTCHAR uni0916094D092E
ENCODING -1
SWIDTH 965 0
DWIDTH 8 0
BBX 8 5 0 0
BITMAP
6599
1544
5458
5144
1004
ENDCHAR
STARTCHAR uni0916094D092F
ENCODING -1
SWIDTH 1047 0
DWIDTH 8 0
BBX 8 5 0 0
BITMAP
6566
1511
5441
5155
1001
ENDCHAR
STARTCHAR uni0916094D0935
ENCODING -1
SWIDTH 975 0
DWIDTH 8 0
BBX 8 5 0 0
BITMAP
6559
1554
5444
5144
1018
ENDCHAR
STARTCHAR uni0916094D0936
ENCODING -1
SWIDTH 1123 0
DWIDTH 9 0
BBX 9 5 0 0
BITMAP
655480
150440
545440
514040
101040
ENDCHAR
STARTCHAR uni0917094D0917
ENCODING -1
SWIDTH 744 0
DWIDTH 6 0
BBX 6 5 0 0
BITMAP
6650
1150
1150
4450
0010
ENDCHAR
STARTCHAR uni0917094D0918
ENCODING -1
SWIDTH 823 0
DWIDTH 7 0
BBX 7 5 0 0
BITMAP
6664
1410
1210
4410
0160
ENDCHAR
STARTCHAR uni0917094D091C
ENCODING -1
SWIDTH 801 0
DWIDTH 6 0
BBX 7 5 0 0
BITMAP
6564
1250
1150
4150
0510
ENDCHAR
STARTCHAR uni0917094D0923
ENCODING -1
SWIDTH 945 0
DWIDTH 8 0
BBX 8 5 0 0
BITMAP
6999
1444
1544
4144
0004
ENDCHAR
STARTCHAR uni0917094D0926
ENCODING -1
SWIDTH 748 0
DWIDTH 6 0
BBX 6 5 0 0
BITMAP
6560
1140
1400
4410
0150
ENDCHAR
STARTCHAR uni0917094D0927
ENCODING -1
SWIDTH 823 0
DWIDTH 7 0
BBX 7 5 0 0
BITMAP
6524
1410
1210
4410
0160
ENDCHAR
STARTCHAR uni0917094D092C
ENCODING -1
SWIDTH 755 0
DWIDTH 6 0
BBX 6 5 0 0
BITMAP
6560
1150
1510
4450
0150
ENDCHAR
STARTCHAR uni0917094D092D
ENCODING -1
SWIDTH 755 0
DWIDTH 6 0
BBX 6 5 0 0
BITMAP
6460
1410
1550
4410
0010
ENDCHAR
STARTCHAR uni0917094D092E
ENCODING -1
SWIDTH 754 0
DWIDTH 6 0
BBX 6 5 0 0
BITMAP
6960
1410
1550
4410
0010
ENDCHAR
STARTCHAR uni0917094D092F
ENCODING -1
SWIDTH 828 0
DWIDTH 7 0
BBX 7 5 0 0
BITMAP
6664
1150
1510
0160
0010
ENDCHAR
STARTCHAR uni0917094D0932
ENCODING -1
SWIDTH 924 0
DWIDTH 7 0
BBX 7 5 0 0
BITMAP
6558
1154
1444
0444
0504
ENDCHAR
STARTCHAR uni0917094D0935
ENCODING -1
SWIDTH 747 0
DWIDTH 6 0
BBX 6 5 0 0
BITMAP
6560
1150
1410
4450
0150
ENDCHAR
STARTCHAR uni0917094D0938
ENCODING -1
SWIDTH 839 0
DWIDTH 7 0
BBX 7 5 0 0
BITMAP
6664
1110
1660
4110
0110
ENDCHAR
STARTCHAR uni0918094D092E
ENCODING -1
SWIDTH 818 0
DWIDTH 7 0
BBX 7 5 0 0
BITMAP
9664
4110
5260
4110
1510
ENDCHAR
STARTCHAR uni0918094D092F
ENCODING -1
SWIDTH 867 0
DWIDTH 7 0
BBX 7 5 0 0
BITMAP
9594
4054
5114
4254
1414
ENDCHAR
STARTCHAR uni091A094D091A
ENCODING -1
SWIDTH 868 0
DWIDTH 7 0
BBX 7 5 0 0
BITMAP
5554
6254
1114
1554
0014
ENDCHAR
STARTCHAR uni091A094D091B
ENCODING -1
SWIDTH 922 0
DWIDTH 7 0
BBX 7 5 0 0
BITMAP
5658
0104
1144
1104
1654
ENDCHAR
STARTCHAR uni091A094D092E
ENCODING -1
SWIDTH 830 0
DWIDTH 7 0
BBX 7 5 0 0
BITMAP
5664
6510
1160
1510
0010
ENDCHAR
STARTCHAR uni091A094D092F
ENCODING -1
SWIDTH 904 0
DWIDTH 7 0
BBX 7 5 0 0
BITMAP
5598
6444
1144
1554
0004
ENDCHAR
STARTCHAR uni091B094D092F
ENCODING -1
SWIDTH 1068 0
DWIDTH 9 0
BBX 9 5 0 0
BITMAP
955640
425100
111100
411100
561600
ENDCHAR
STARTCHAR uni091B094D0935
ENCODING -1
SWIDTH 581 0
DWIDTH 5 0
BBX 5 6 0 -1
BITMAP
9640
4200
5100
2600
1100
1500
ENDCHAR
STARTCHAR uni091C094D0915
ENCODING -1
SWIDTH 1054 0
DWIDTH 8 0
BBX 9 5 0 0
BITMAP
556540
251000
151100
151100
515500
ENDCHAR
STARTCHAR uni091C094D091C
ENCODING -1
SWIDTH 903 0
DWIDTH 7 0
BBX 7 5 0 0
BITMAP
5558
2494
1444
1444
5144
ENDCHAR
STARTCHAR uni091C094D091D
ENCODING -1
SWIDTH 990 0
DWIDTH 8 0
BBX 8 5 0 0
BITMAP
5565
2505
1555
1515
5255
ENDCHAR
STARTCHAR uni091C094D091F
ENCODING -1
SWIDTH 815 0
DWIDTH 7 0
BBX 7 5 0 0
BITMAP
5564
0150
2600
1500
5150
ENDCHAR
STARTCHAR uni091C094D0921
ENCODING -1
SWIDTH 797 0
DWIDTH 6 0
BBX 6 5 0 0
BITMAP
5560
2650
1100
1150
5150
ENDCHAR
STARTCHAR uni091C094D0924
ENCODING -1
SWIDTH 830 0
DWIDTH 7 0
BBX 7 5 0 0
BITMAP
5564
6560
1110
1110
5150
ENDCHAR
STARTCHAR uni091C094D0926
ENCODING -1
SWIDTH 817 0
DWIDTH 7 0
BBX 7 5 0 0
BITMAP
5564
2650
1500
1510
5160
ENDCHAR
STARTCHAR uni091C094D092C
ENCODING -1
SWIDTH 820 0
DWIDTH 7 0
BBX 7 5 0 0
BITMAP
5564
2610
1550
1520
5160
ENDCHAR
STARTCHAR uni091C094D092E
ENCODING -1
SWIDTH 813 0
DWIDTH 7 0
BBX 7 5 0 0
BITMAP
5664
2510
1660
1510
5010
ENDCHAR
STARTCHAR uni091C094D092F
ENCODING -1
SWIDTH 893 0
DWIDTH 7 0
BBX 7 5 0 0
BITMAP
5598
2544
1144
1154
5004
ENDCHAR
STARTCHAR uni091C094D0935
ENCODING -1
SWIDTH 813 0
DWIDTH 7 0
BBX 7 5 0 0
BITMAP
5564
2510
1510
1510
5160
ENDCHAR
STARTCHAR uni091D094D092E
ENCODING -1
SWIDTH 936 0
DWIDTH 7 0
BBX 8 5 0 0
BITMAP
5999
5444
5998
4444
5804
ENDCHAR
STARTCHAR uni091D094D092F
ENCODING -1
SWIDTH 1000 0
DWIDTH 8 0
BBX 8 5 0 0
BITMAP
5966
5411
5941
4455
5801
ENDCHAR
STARTCHAR uni091E094D091B
ENCODING -1
SWIDTH 913 0
DWIDTH 7 0
BBX 7 5 0 0
BITMAP
5658
5104
0A44
0504
5154
ENDCHAR
STARTCHAR uni091E094D091C
ENCODING -1
SWIDTH 932 0
DWIDTH 7 0
BBX 8 5 0 0
BITMAP
5559
1098
0814
0414
5144
ENDCHAR
STARTCHAR uni091E094D0936
ENCODING -1
SWIDTH 975 0
DWIDTH 8 0
BBX 8 5 0 0
BITMAP
5555
5114
0A54
0544
5044
ENDCHAR
STARTCHAR uni091F094D091F
ENCODING -1
SWIDTH 494 0
DWIDTH 4 0
BBX 4 8 0 -3
BITMAP
59
14
41
18
18
40
41
14
ENDCHAR
STARTCHAR uni091F094D0920
ENCODING -1
SWIDTH 495 0
DWIDTH 4 0
BBX 4 8 0 -3
BITMAP
59
14
41
15
18
41
41
14
ENDCHAR
STARTCHAR uni091F094D092F
ENCODING -1
SWIDTH 990 0
DWIDTH 8 0
BBX 8 5 0 0
BITMAP
5955
1555
4015
4155
5559
ENDCHAR
STARTCHAR uni091F094D0935
ENCODING -1
SWIDTH 501 0
DWIDTH 4 0
BBX 4 6 0 -1
BITMAP
59
14
41
65
41
14
ENDCHAR
STARTCHAR uni0920094D092F
ENCODING -1
SWIDTH 998 0
DWIDTH 8 0
BBX 8 5 0 0
BITMAP
5956
1951
4111
4151
5555
ENDCHAR
STARTCHAR uni0921094D0921
ENCODING -1
SWIDTH 493 0
DWIDTH 4 0
BBX 4 8 0 -3
BITMAP
59
54
14
41
54
14
41
14
ENDCHAR
STARTCHAR uni0921094D0922
ENCODING -1
SWIDTH 493 0
DWIDTH 4 0
BBX 4 7 0 -2
BITMAP
59
54
14
41
68
45
55
ENDCHAR
STARTCHAR uni0921094D092F
ENCODING -1
SWIDTH 973 0
DWIDTH 8 0
BBX 8 5 0 0
BITMAP
5959
1554
4014
1494
5558
ENDCHAR
STARTCHAR uni0921094D0935
ENCODING -1
SWIDTH 493 0
DWIDTH 4 0
BBX 4 6 0 -1
BITMAP
59
54
14
41
55
14
ENDCHAR
STARTCHAR uni0922094D092F
ENCODING -1
SWIDTH 981 0
DWIDTH 8 0
BBX 8 5 0 0
BITMAP
5959
1554
4514
4554
5558
ENDCHAR
STARTCHAR uni0923094D091F
ENCODING -1
SWIDTH 908 0
DWIDTH 7 0
BBX 7 5 0 0
BITMAP
9958
4454
4440
1444
0054
ENDCHAR
STARTCHAR uni0923094D0920
ENCODING -1
SWIDTH 936 0
DWIDTH 7 0
BBX 8 5 0 0
BITMAP
9959
4454
4444
1444
0094
ENDCHAR
STARTCHAR uni0923094D0921
ENCODING -1
SWIDTH 892 0
DWIDTH 7 0
BBX 7 5 0 0
BITMAP
9958
4454
4440
1404
0054
ENDCHAR
STARTCHAR uni0923094D0922
ENCODING -1
SWIDTH 908 0
DWIDTH 7 0
BBX 7 5 0 0
BITMAP
9958
4454
4440
1440
0054
ENDCHAR
STARTCHAR uni0923094D0923
ENCODING -1
SWIDTH 1127 0
DWIDTH 9 0
BBX 9 5 0 0
BITMAP
999980
444440
444440
145040
000040
ENDCHAR
STARTCHAR uni0923094D092E
ENCODING -1
SWIDTH 932 0
DWIDTH 7 0
BBX 8 5 0 0
BITMAP
9999
4444
4498
1444
0004
ENDCHAR
STARTCHAR uni0923094D092F
ENCODING -1
SWIDTH 998 0
DWIDTH 8 0
BBX 8 5 0 0
BITMAP
9966
4411
4455
0055
0001
ENDCHAR
STARTCHAR uni0923094D0935
ENCODING -1
SWIDTH 923 0
DWIDTH 7 0
BBX 7 5 0 0
BITMAP
9958
4454
4444
1444
0054
ENDCHAR
STARTCHAR uni0924094D0915
ENCODING -1
SWIDTH 992 0
DWIDTH 8 0
BBX 8 5 0 0
BITMAP
5555
1410
4411
4451
5154
ENDCHAR
STARTCHAR uni0924094D0916
ENCODING -1
SWIDTH 1014 0
DWIDTH 8 0
BBX 8 5 0 0
BITMAP
5596
1451
4651
4115
5041
ENDCHAR
STARTCHAR uni0924094D0924
ENCODING -1
SWIDTH 542 0
DWIDTH 4 0
BBX 4 5 0 0
BITMAP
56
65
11
11
21
ENDCHAR
STARTCHAR uni0924094D0925
ENCODING -1
SWIDTH 869 0
DWIDTH 7 0
BBX 7 5 0 0
BITMAP
5144
0054
1554
4154
5004
ENDCHAR
STARTCHAR uni0924094D092A
ENCODING -1
SWIDTH 757 0
DWIDTH 6 0
BBX 6 5 0 0
BITMAP
5960
1810
4410
4150
5010
ENDCHAR
STARTCHAR uni0924094D092B
ENCODING -1
SWIDTH 992 0
DWIDTH 8 0
BBX 8 5 0 0
BITMAP
5955
1810
4451
4151
5014
ENDCHAR
STARTCHAR uni0924094D092E
ENCODING -1
SWIDTH 764 0
DWIDTH 6 0
BBX 6 5 0 0
BITMAP
5560
1510
4550
4010
5010
ENDCHAR
STARTCHAR uni0924094D092F
ENCODING -1
SWIDTH 830 0
DWIDTH 7 0
BBX 7 5 0 0
BITMAP
5664
0050
1510
4160
5010
ENDCHAR
STARTCHAR uni0924094D0932
ENCODING -1
SWIDTH 957 0
DWIDTH 8 0
BBX 8 5 0 0
BITMAP
5559
1558
4544
4504
5104
ENDCHAR
STARTCHAR uni0924094D0935
ENCODING -1
SWIDTH 751 0
DWIDTH 6 0
BBX 6 5 0 0
BITMAP
5560
1510
4410
4410
5150
ENDCHAR
STARTCHAR uni0924094D0938
ENCODING -1
SWIDTH 876 0
DWIDTH 7 0
BBX 7 5 0 0
BITMAP
5598
1444
4654
4104
5144
ENDCHAR
STARTCHAR uni0925094D092F
ENCODING -1
SWIDTH 931 0
DWIDTH 7 0
BBX 8 5 0 0
BITMAP
1599
4444
5544
5558
0004
ENDCHAR
STARTCHAR uni0925094D0935
ENCODING -1
SWIDTH 862 0
DWIDTH 7 0
BBX 7 5 0 0
BITMAP
1554
0454
5514
5514
0050
ENDCHAR
STARTCHAR uni0926094D0917
ENCODING -1
SWIDTH 489 0
DWIDTH 4 0
BBX 4 6 0 -1
BITMAP
55
14
40
25
11
50
ENDCHAR
STARTCHAR uni0926094D0918
ENCODING -1
SWIDTH 686 0
DWIDTH 5 0
BBX 6 6 0 -1
BITMAP
5590
0540
5400
5440
4580
5400
ENDCHAR
STARTCHAR uni0926094D0926
ENCODING -1
SWIDTH 506 0
DWIDTH 4 0
BBX 4 6 0 -1
BITMAP
56
15
40
50
55
01
ENDCHAR
STARTCHAR uni0926094D0927
ENCODING -1
SWIDTH 686 0
DWIDTH 5 0
BBX 6 6 0 -1
BITMAP
5590
0540
5400
5440
4580
5400
ENDCHAR
STARTCHAR uni0926094D092C
ENCODING -1
SWIDTH 481 0
DWIDTH 4 0
BBX 4 6 0 -1
BITMAP
55
14
40
41
65
14
ENDCHAR
STARTCHAR uni0926094D092D
ENCODING -1
SWIDTH 499 0
DWIDTH 4 0
BBX 4 6 0 -1
BITMAP
56
14
40
45
11
25
ENDCHAR
STARTCHAR uni0926094D092E
ENCODING -1
SWIDTH 706 0
DWIDTH 6 0
BBX 6 5 0 0
BITMAP
5990
5440
4040
0580
0440
ENDCHAR
STARTCHAR uni0926094D092F
ENCODING -1
SWIDTH 583 0
DWIDTH 5 0
BBX 5 5 0 0
BITMAP
5A40
1500
5100
4100
5600
ENDCHAR
STARTCHAR uni0926094D0935
ENCODING -1
SWIDTH 483 0
DWIDTH 4 0
BBX 4 6 0 -1
BITMAP
55
14
40
41
65
14
ENDCHAR
STARTCHAR uni0927094D092E
ENCODING -1
SWIDTH 817 0
DWIDTH 7 0
BBX 7 5 0 0
BITMAP
9264
4110
5260
4110
1510
ENDCHAR
STARTCHAR uni0927094D092F
ENCODING -1
SWIDTH 886 0
DWIDTH 7 0
BBX 7 5 0 0
BITMAP
9198
4044
5144
4154
1404
ENDCHAR
STARTCHAR uni0927094D0935
ENCODING -1
SWIDTH 810 0
DWIDTH 6 0
BBX 7 5 0 0
BITMAP
9164
4150
5110
4110
1560
ENDCHAR
STARTCHAR uni0928094D0915
ENCODING -1
SWIDTH 973 0
DWIDTH 8 0
BBX 8 5 0 0
BITMAP
5595
0154
5841
4441
0184
ENDCHAR
STARTCHAR uni0928094D091A
ENCODING -1
SWIDTH 820 0
DWIDTH 7 0
BBX 7 5 0 0
BITMAP
5564
0650
5510
4160
0010
ENDCHAR
STARTCHAR uni0928094D091B
ENCODING -1
SWIDTH 781 0
DWIDTH 6 0
BBX 6 5 0 0
BITMAP
5960
0410
5910
4410
0550
ENDCHAR
STARTCHAR uni0928094D091F
ENCODING -1
SWIDTH 715 0
DWIDTH 6 0
BBX 6 5 0 0
BITMAP
5590
0140
5400
4400
0540
ENDCHAR
STARTCHAR uni0928094D0921
ENCODING -1
SWIDTH 705 0
DWIDTH 6 0
BBX 6 5 0 0
BITMAP
5590
0140
5800
4040
0540
ENDCHAR
STARTCHAR uni0928094D0924
ENCODING -1
SWIDTH 717 0
DWIDTH 6 0
BBX 6 5 0 0
BITMAP
5590
0180
5440
4440
0540
ENDCHAR
STARTCHAR uni0928094D0925
ENCODING -1
SWIDTH 804 0
DWIDTH 6 0
BBX 7 5 0 0
BITMAP
5514
0450
5510
0560
0010
ENDCHAR
STARTCHAR uni0928094D0926
ENCODING -1
SWIDTH 724 0
DWIDTH 6 0
BBX 6 5 0 0
BITMAP
5590
0140
5800
4450
0190
ENDCHAR
STARTCHAR uni0928094D0927
ENCODING -1
SWIDTH 753 0
DWIDTH 6 0
BBX 6 5 0 0
BITMAP
5860
0410
5910
4410
0550
ENDCHAR
STARTCHAR uni0928094D092A
ENCODING -1
SWIDTH 742 0
DWIDTH 6 0
BBX 6 5 0 0
BITMAP
5950
0450
5850
4150
0050
ENDCHAR
STARTCHAR uni0928094D092B
ENCODING -1
SWIDTH 970 0
DWIDTH 8 0
BBX 8 5 0 0
BITMAP
5995
0454
5845
4185
0044
ENDCHAR
STARTCHAR uni0928094D092D
ENCODING -1
SWIDTH 739 0
DWIDTH 6 0
BBX 6 5 0 0
BITMAP
5450
0450
5950
4450
0050
ENDCHAR
STARTCHAR uni0928094D092E
ENCODING -1
SWIDTH 735 0
DWIDTH 6 0
BBX 6 5 0 0
BITMAP
5990
0440
5980
4440
0040
ENDCHAR
STARTCHAR uni0928094D092F
ENCODING -1
SWIDTH 801 0
DWIDTH 6 0
BBX 7 5 0 0
BITMAP
5664
0110
5510
0550
0010
ENDCHAR
STARTCHAR uni0928094D0935
ENCODING -1
SWIDTH 732 0
DWIDTH 6 0
BBX 6 5 0 0
BITMAP
5590
0140
5840
4440
0180
ENDCHAR
STARTCHAR uni0928094D0938
ENCODING -1
SWIDTH 867 0
DWIDTH 7 0
BBX 7 5 0 0
BITMAP
5554
0154
4654
0114
0114
ENDCHAR
STARTCHAR uni0928094D0939
ENCODING -1
SWIDTH 714 0
DWIDTH 6 0
BBX 6 6 0 -1
BITMAP
5590
0140
4540
0400
0400
0140
ENDCHAR
STARTCHAR uni092A094D091F
ENCODING -1
SWIDTH 489 0
DWIDTH 4 0
BBX 4 5 0 0
BITMAP
96
41
64
41
55
ENDCHAR
STARTCHAR uni092A094D0920
ENCODING -1
SWIDTH 506 0
DWIDTH 4 0
BBX 4 5 0 0
BITMAP
96
41
69
41
55
ENDCHAR
STARTCHAR uni092A094D0924
ENCODING -1
SWIDTH 495 0
DWIDTH 4 0
BBX 4 5 0 0
BITMAP
95
41
65
41
51
ENDCHAR
STARTCHAR uni092A094D092A
ENCODING -1
SWIDTH 770 0
DWIDTH 6 0
BBX 6 5 0 0
BITMAP
9560
4510
4510
1550
0010
ENDCHAR
STARTCHAR uni092A094D092B
ENCODING -1
SWIDTH 1003 0
DWIDTH 8 0
BBX 8 5 0 0
BITMAP
9965
4424
4511
1551
0014
ENDCHAR
STARTCHAR uni092A094D092E
ENCODING -1
SWIDTH 774 0
DWIDTH 6 0
BBX 6 5 0 0
BITMAP
9660
4110
4250
1510
0010
ENDCHAR
STARTCHAR uni092A094D092F
ENCODING -1
SWIDTH 855 0
DWIDTH 7 0
BBX 7 5 0 0
BITMAP
95A4
4050
4110
0160
0010
ENDCHAR
STARTCHAR uni092A094D0932
ENCODING -1
SWIDTH 960 0
DWIDTH 8 0
BBX 8 5 0 0
BITMAP
9559
4158
4144
1504
0104
ENDCHAR
STARTCHAR uni092A094D0935
ENCODING -1
SWIDTH 780 0
DWIDTH 6 0
BBX 6 5 0 0
BITMAP
9560
4150
4110
1510
0150
ENDCHAR
STARTCHAR uni092A094D0938
ENCODING -1
SWIDTH 880 0
DWIDTH 7 0
BBX 7 5 0 0
BITMAP
9598
4044
4654
1504
0144
ENDCHAR
STARTCHAR uni092B094D091C
ENCODING -1
SWIDTH 1100 0
DWIDTH 9 0
BBX 9 5 0 0
BITMAP
955640
465600
450500
150500
051500
ENDCHAR
STARTCHAR uni092B094D091F
ENCODING -1
SWIDTH 1006 0
DWIDTH 8 0
BBX 8 5 0 0
BITMAP
9555
4554
4540
1941
0515
ENDCHAR
STARTCHAR uni092B094D0924
ENCODING -1
SWIDTH 1034 0
DWIDTH 8 0
BBX 8 5 0 0
BITMAP
9556
4515
4511
1551
0521
ENDCHAR
STARTCHAR uni092B094D092A
ENCODING -1
SWIDTH 1021 0
DWIDTH 8 0
BBX 8 5 0 0
BITMAP
9556
4651
4551
1915
0501
ENDCHAR
STARTCHAR uni092B094D092B
ENCODING -1
SWIDTH 1256 0
DWIDTH 10 0
BBX 10 5 0 0
BITMAP
955650
465240
455110
151510
050140
ENDCHAR
STARTCHAR uni092B094D092F
ENCODING -1
SWIDTH 1120 0
DWIDTH 9 0
BBX 9 5 0 0
BITMAP
955A40
455100
455100
051600
050100
ENDCHAR
STARTCHAR uni092B094D0932
ENCODING -1
SWIDTH 1202 0
DWIDTH 10 0
BBX 10 5 0 0
BITMAP
955590
455580
455440
154440
051040
ENDCHAR
STARTCHAR uni092B094D0936
ENCODING -1
SWIDTH 1211 0
DWIDTH 10 0
BBX 10 5 0 0
BITMAP
955550
465140
456440
151040
050440
ENDCHAR
STARTCHAR uni092C094D091C
ENCODING -1
SWIDTH 883 0
DWIDTH 7 0
BBX 7 5 0 0
BITMAP
5558
1194
5044
4444
1544
ENDCHAR
STARTCHAR uni092C094D091D
ENCODING -1
SWIDTH 962 0
DWIDTH 8 0
BBX 8 6 0 -1
BITMAP
5559
1144
5558
1414
0254
0100
ENDCHAR
STARTCHAR uni092C094D0924
ENCODING -1
SWIDTH 786 0
DWIDTH 6 0
BBX 6 5 0 0
BITMAP
5560
0150
5510
4510
1610
ENDCHAR
STARTCHAR uni092C094D0926
ENCODING -1
SWIDTH 775 0
DWIDTH 6 0
BBX 6 5 0 0
BITMAP
5560
1150
5500
4910
1550
ENDCHAR
STARTCHAR uni092C094D0927
ENCODING -1
SWIDTH 844 0
DWIDTH 7 0
BBX 7 5 0 0
BITMAP
5624
1510
5210
4510
1560
ENDCHAR
STARTCHAR uni092C094D092C
ENCODING -1
SWIDTH 783 0
DWIDTH 6 0
BBX 6 5 0 0
BITMAP
5560
1150
5210
4550
1550
ENDCHAR
STARTCHAR uni092C094D092D
ENCODING -1
SWIDTH 764 0
DWIDTH 6 0
BBX 6 5 0 0
BITMAP
5460
1510
5550
4910
1410
ENDCHAR
STARTCHAR uni092C094D092F
ENCODING -1
SWIDTH 852 0
DWIDTH 7 0
BBX 7 5 0 0
BITMAP
55A4
1050
5510
4560
1410
ENDCHAR
STARTCHAR uni092C094D0932
ENCODING -1
SWIDTH 961 0
DWIDTH 8 0
BBX 8 5 0 0
BITMAP
5559
0158
5544
4544
1504
ENDCHAR
STARTCHAR uni092C094D0935
ENCODING -1
SWIDTH 776 0
DWIDTH 6 0
BBX 6 5 0 0
BITMAP
5560
1110
5110
4510
1550
ENDCHAR
STARTCHAR uni092C094D0936
ENCODING -1
SWIDTH 926 0
DWIDTH 7 0
BBX 8 5 0 0
BITMAP
5149
1144
5144
4A04
1444
ENDCHAR
STARTCHAR uni092C094D0938
ENCODING -1
SWIDTH 897 0
DWIDTH 7 0
BBX 7 5 0 0
BITMAP
5598
1044
5254
4A04
1444
ENDCHAR
STARTCHAR uni092D094D092F
ENCODING -1
SWIDTH 827 0
DWIDTH 7 0
BBX 7 5 0 0
BITMAP
4664
4150
5410
0160
0010
ENDCHAR
STARTCHAR uni092D094D0932
ENCODING -1
SWIDTH 941 0
DWIDTH 8 0
BBX 8 5 0 0
BITMAP
4559
4158
5844
4444
0104
ENDCHAR
STARTCHAR uni092D094D0935
ENCODING -1
SWIDTH 755 0
DWIDTH 6 0
BBX 6 5 0 0
BITMAP
4560
4150
5810
4410
0150
ENDCHAR
STARTCHAR uni092E094D0924
ENCODING -1
SWIDTH 765 0
DWIDTH 6 0
BBX 6 5 0 0
BITMAP
9560
4150
5810
4410
0110
ENDCHAR
STARTCHAR uni092E094D0926
ENCODING -1
SWIDTH 766 0
DWIDTH 6 0
BBX 6 5 0 0
BITMAP
9560
4150
5500
4510
0150
ENDCHAR
STARTCHAR uni092E094D092A
ENCODING -1
SWIDTH 762 0
DWIDTH 6 0
BBX 6 5 0 0
BITMAP
9960
4410
5410
4150
0010
ENDCHAR
STARTCHAR uni092E094D092C
ENCODING -1
SWIDTH 768 0
DWIDTH 6 0
BBX 6 5 0 0
BITMAP
9560
4110
5910
4450
0150
ENDCHAR
STARTCHAR uni092E094D092D
ENCODING -1
SWIDTH 768 0
DWIDTH 6 0
BBX 6 5 0 0
BITMAP
9460
4110
5650
4010
0010
ENDCHAR
STARTCHAR uni092E094D092E
ENCODING -1
SWIDTH 759 0
DWIDTH 6 0
BBX 6 5 0 0
BITMAP
9560
4510
5550
4010
0010
ENDCHAR
STARTCHAR uni092E094D092F
ENCODING -1
SWIDTH 834 0
DWIDTH 7 0
BBX 7 5 0 0
BITMAP
9664
4050
5410
0160
0010
ENDCHAR
STARTCHAR uni092E094D0932
ENCODING -1
SWIDTH 945 0
DWIDTH 8 0
BBX 8 5 0 0
BITMAP
9559
4158
5844
4444
0104
ENDCHAR
STARTCHAR uni092E094D0935
ENCODING -1
SWIDTH 761 0
DWIDTH 6 0
BBX 6 5 0 0
BITMAP
9560
4110
5810
4410
0150
ENDCHAR
STARTCHAR uni092E094D0936
ENCODING -1
SWIDTH 884 0
DWIDTH 7 0
BBX 7 5 0 0
BITMAP
9148
4044
5544
4104
0104
ENDCHAR
STARTCHAR uni092E094D0938
ENCODING -1
SWIDTH 816 0
DWIDTH 7 0
BBX 7 5 0 0
BITMAP
9664
4110
5A60
4410
0110
ENDCHAR
STARTCHAR uni092E094D0939
ENCODING -1
SWIDTH 758 0
DWIDTH 6 0
BBX 6 6 0 -1
BITMAP
9560
4150
4240
0110
0100
0140
ENDCHAR
STARTCHAR uni092F094D092F
ENCODING -1
SWIDTH 897 0
DWIDTH 7 0
BBX 7 5 0 0
BITMAP
6598
1044
5144
1554
0004
ENDCHAR
STARTCHAR uni0930094D092F
ENCODING -1
SWIDTH 713 0
DWIDTH 6 0
BBX 6 5 0 0
BITMAP
5990
0140
5440
0580
0040
ENDCHAR
STARTCHAR uni0930094D0939
ENCODING -1
SWIDTH 619 0
DWIDTH 5 0
BBX 5 6 0 -1
BITMAP
5540
0500
0900
1040
1000
0500
ENDCHAR
STARTCHAR uni0932094D0915
ENCODING -1
SWIDTH 1182 0
DWIDTH 9 0
BBX 10 5 0 0
BITMAP
555950
155540
444440
444440
505940
ENDCHAR
STARTCHAR uni0932094D0916
ENCODING -1
SWIDTH 1195 0
DWIDTH 10 0
BBX 10 5 0 0
BITMAP
556590
151540
449440
405180
501040
ENDCHAR
STARTCHAR uni0932094D0917
ENCODING -1
SWIDTH 950 0
DWIDTH 8 0
BBX 8 5 0 0
BITMAP
5599
1544
4444
4404
5004
ENDCHAR
STARTCHAR uni0932094D091C
ENCODING -1
SWIDTH 1035 0
DWIDTH 8 0
BBX 8 5 0 0
BITMAP
5556
1565
4411
4411
5051
ENDCHAR
STARTCHAR uni0932094D091F
ENCODING -1
SWIDTH 929 0
DWIDTH 7 0
BBX 8 5 0 0
BITMAP
5559
1554
4440
4444
5054
ENDCHAR
STARTCHAR uni0932094D0920
ENCODING -1
SWIDTH 953 0
DWIDTH 8 0
BBX 8 5 0 0
BITMAP
5559
1554
4444
4444
5054
ENDCHAR
STARTCHAR uni0932094D0921
ENCODING -1
SWIDTH 916 0
DWIDTH 7 0
BBX 7 5 0 0
BITMAP
5558
1554
4440
4404
5054
ENDCHAR
STARTCHAR uni0932094D0922
ENCODING -1
SWIDTH 924 0
DWIDTH 7 0
BBX 7 5 0 0
BITMAP
5558
1554
4440
4454
5058
ENDCHAR
STARTCHAR uni0932094D0924
ENCODING -1
SWIDTH 929 0
DWIDTH 7 0
BBX 8 5 0 0
BITMAP
5559
1558
4444
4044
5044
ENDCHAR
STARTCHAR uni0932094D0925
ENCODING -1
SWIDTH 1061 0
DWIDTH 8 0
BBX 9 5 0 0
BITMAP
555540
154500
449100
444100
505600
ENDCHAR
STARTCHAR uni0932094D0926
ENCODING -1
SWIDTH 939 0
DWIDTH 8 0
BBX 8 5 0 0
BITMAP
5559
1554
4440
4444
5058
ENDCHAR
STARTCHAR uni0932094D092A
ENCODING -1
SWIDTH 939 0
DWIDTH 8 0
BBX 8 5 0 0
BITMAP
5599
1544
4444
4458
5004
ENDCHAR
STARTCHAR uni0932094D092B
ENCODING -1
SWIDTH 1176 0
DWIDTH 9 0
BBX 10 5 0 0
BITMAP
559950
154940
444440
445840
500540
ENDCHAR
STARTCHAR uni0932094D092C
ENCODING -1
SWIDTH 949 0
DWIDTH 8 0
BBX 8 5 0 0
BITMAP
5559
1544
4454
4448
5058
ENDCHAR
STARTCHAR uni0932094D092D
ENCODING -1
SWIDTH 931 0
DWIDTH 7 0
BBX 8 5 0 0
BITMAP
5549
1544
4498
4444
5004
ENDCHAR
STARTCHAR uni0932094D092E
ENCODING -1
SWIDTH 931 0
DWIDTH 7 0
BBX 8 5 0 0
BITMAP
5599
1544
4498
4444
5004
ENDCHAR
STARTCHAR uni0932094D092F
ENCODING -1
SWIDTH 1033 0
DWIDTH 8 0
BBX 8 5 0 0
BITMAP
5566
1551
4451
4055
5001
ENDCHAR
STARTCHAR uni0932094D0932
ENCODING -1
SWIDTH 1112 0
DWIDTH 9 0
BBX 9 5 0 0
BITMAP
555540
155640
444540
444140
505100
ENDCHAR
STARTCHAR uni0932094D0935
ENCODING -1
SWIDTH 940 0
DWIDTH 8 0
BBX 8 5 0 0
BITMAP
5559
1554
4444
4444
5058
ENDCHAR
STARTCHAR uni0932094D0938
ENCODING -1
SWIDTH 1068 0
DWIDTH 9 0
BBX 9 5 0 0
BITMAP
556640
151100
44A600
405100
501100
ENDCHAR
STARTCHAR uni0932094D0939
ENCODING -1
SWIDTH 922 0
DWIDTH 7 0
BBX 7 6 0 -1
BITMAP
5558
1554
4440
4444
5040
0054
ENDCHAR
STARTCHAR uni0933094D092F
ENCODING -1
SWIDTH 1050 0
DWIDTH 8 0
BBX 9 5 0 0
BITMAP
556640
155100
445100
445500
150100
ENDCHAR
STARTCHAR uni0935094D092F
ENCODING -1
SWIDTH 852 0
DWIDTH 7 0
BBX 7 5 0 0
BITMAP
55A4
1050
4110
4160
1410
ENDCHAR
STARTCHAR uni0935094D0932
ENCODING -1
SWIDTH 961 0
DWIDTH 8 0
BBX 8 5 0 0
BITMAP
5559
1158
4144
4504
1544
ENDCHAR
STARTCHAR uni0935094D0935
ENCODING -1
SWIDTH 776 0
DWIDTH 6 0
BBX 6 5 0 0
BITMAP
5560
1110
4110
4510
1550
ENDCHAR
STARTCHAR uni0935094D0939
ENCODING -1
SWIDTH 754 0
DWIDTH 6 0
BBX 6 6 0 -1
BITMAP
5560
1150
4240
4510
1900
0140
ENDCHAR
STARTCHAR uni0936094D0915
ENCODING -1
SWIDTH 1093 0
DWIDTH 9 0
BBX 9 5 0 0
BITMAP
556540
445500
551140
111140
106100
ENDCHAR
STARTCHAR uni0936094D091A
ENCODING -1
SWIDTH 950 0
DWIDTH 8 0
BBX 8 5 0 0
BITMAP
5559
0594
5444
1058
1004
ENDCHAR
STARTCHAR uni0936094D091B
ENCODING -1
SWIDTH 968 0
DWIDTH 8 0
BBX 8 5 0 0
BITMAP
5599
0508
5484
1104
1058
ENDCHAR
STARTCHAR uni0936094D091F
ENCODING -1
SWIDTH 854 0
DWIDTH 7 0
BBX 7 5 0 0
BITMAP
5564
4450
5500
1104
1154
ENDCHAR
STARTCHAR uni0936094D0924
ENCODING -1
SWIDTH 864 0
DWIDTH 7 0
BBX 7 5 0 0
BITMAP
5554
0454
5514
1114
1154
ENDCHAR
STARTCHAR uni0936094D092E
ENCODING -1
SWIDTH 885 0
DWIDTH 7 0
BBX 7 5 0 0
BITMAP
5558
4544
5554
1004
1004
ENDCHAR
STARTCHAR uni0936094D092F
ENCODING -1
SWIDTH 940 0
DWIDTH 8 0
BBX 8 5 0 0
BITMAP
5599
4444
5504
1058
1004
ENDCHAR
STARTCHAR uni0936094D0932
ENCODING -1
SWIDTH 1039 0
DWIDTH 8 0
BBX 8 5 0 0
BITMAP
5556
4455
5511
1101
1141
ENDCHAR
STARTCHAR uni0936094D0935
ENCODING -1
SWIDTH 850 0
DWIDTH 7 0
BBX 7 5 0 0
BITMAP
5564
4450
5510
1110
1060
ENDCHAR
STARTCHAR uni0936094D0936
ENCODING -1
SWIDTH 1009 0
DWIDTH 8 0
BBX 8 5 0 0
BITMAP
5452
4411
5551
1041
1041
ENDCHAR
STARTCHAR uni0937094D0915
ENCODING -1
SWIDTH 1039 0
DWIDTH 8 0
BBX 8 5 0 0
BITMAP
A565
5165
4511
1511
0155
ENDCHAR
STARTCHAR uni0937094D091F
ENCODING -1
SWIDTH 493 0
DWIDTH 4 0
BBX 4 5 0 0
BITMAP
A6
55
65
41
55
ENDCHAR
STARTCHAR uni0937094D0920
ENCODING -1
SWIDTH 511 0
DWIDTH 4 0
BBX 4 5 0 0
BITMAP
BE
7D
69
41
55
ENDCHAR
STARTCHAR uni0937094D0923
ENCODING -1
SWIDTH 980 0
DWIDTH 8 0
BBX 8 5 0 0
BITMAP
A669
5114
4514
1544
0004
ENDCHAR
STARTCHAR uni0937094D092A
ENCODING -1
SWIDTH 980 0
DWIDTH 8 0
BBX 8 5 0 0
BITMAP
A669
5114
4514
1544
0004
ENDCHAR
STARTCHAR uni0937094D092B
ENCODING -1
SWIDTH 1036 0
DWIDTH 8 0
BBX 8 5 0 0
BITMAP
A665
5125
4511
1551
0015
ENDCHAR
STARTCHAR uni0937094D092E
ENCODING -1
SWIDTH 791 0
DWIDTH 6 0
BBX 6 5 0 0
BITMAP
A660
5110
4650
1510
0010
ENDCHAR
STARTCHAR uni0937094D092F
ENCODING -1
SWIDTH 877 0
DWIDTH 7 0
BBX 7 5 0 0
BITMAP
A598
5044
4544
0154
0004
ENDCHAR
STARTCHAR uni0937094D0935
ENCODING -1
SWIDTH 802 0
DWIDTH 6 0
BBX 7 5 0 0
BITMAP
A564
5150
4510
1510
0150
ENDCHAR
STARTCHAR uni0937094D0937
ENCODING -1
SWIDTH 804 0
DWIDTH 6 0
BBX 7 5 0 0
BITMAP
A664
5150
4520
1560
0010
ENDCHAR
STARTCHAR uni0938094D0915
ENCODING -1
SWIDTH 1089 0
DWIDTH 9 0
BBX 9 5 0 0
BITMAP
656540
115500
661140
511140
106100
ENDCHAR
STARTCHAR uni0938094D0916
ENCODING -1
SWIDTH 990 0
DWIDTH 8 0
BBX 8 5 0 0
BITMAP
6595
1055
6555
5115
1145
ENDCHAR
STARTCHAR uni0938094D091C
ENCODING -1
SWIDTH 970 0
DWIDTH 8 0
BBX 8 5 0 0
BITMAP
6559
1058
6514
5014
1054
ENDCHAR
STARTCHAR uni0938094D091F
ENCODING -1
SWIDTH 844 0
DWIDTH 7 0
BBX 7 5 0 0
BITMAP
6564
1050
6600
5104
1150
ENDCHAR
STARTCHAR uni0938094D0924
ENCODING -1
SWIDTH 852 0
DWIDTH 7 0
BBX 7 5 0 0
BITMAP
6564
1060
6610
5110
1150
ENDCHAR
STARTCHAR uni0938094D0925
ENCODING -1
SWIDTH 960 0
DWIDTH 8 0
BBX 8 5 0 0
BITMAP
6555
1114
6554
5104
1058
ENDCHAR
STARTCHAR uni0938094D0926
ENCODING -1
SWIDTH 851 0
DWIDTH 7 0
BBX 7 5 0 0
BITMAP
6564
1150
6600
5114
1054
ENDCHAR
STARTCHAR uni0938094D092A
ENCODING -1
SWIDTH 857 0
DWIDTH 7 0
BBX 7 5 0 0
BITMAP
6664
1110
6610
5060
1010
ENDCHAR
STARTCHAR uni0938094D092B
ENCODING -1
SWIDTH 1092 0
DWIDTH 9 0
BBX 9 5 0 0
BITMAP
666540
111500
661140
506140
101100
ENDCHAR
STARTCHAR uni0938094D092C
ENCODING -1
SWIDTH 857 0
DWIDTH 7 0
BBX 7 5 0 0
BITMAP
6564
1150
6650
5120
1060
ENDCHAR
STARTCHAR uni0938094D092E
ENCODING -1
SWIDTH 850 0
DWIDTH 7 0
BBX 7 5 0 0
BITMAP
6664
1110
6660
5110
1010
ENDCHAR
STARTCHAR uni0938094D092F
ENCODING -1
SWIDTH 920 0
DWIDTH 7 0
BBX 7 5 0 0
BITMAP
6598
1044
6504
5154
1004
ENDCHAR
STARTCHAR uni0938094D0932
ENCODING -1
SWIDTH 1027 0
DWIDTH 8 0
BBX 8 5 0 0
BITMAP
6556
1155
6611
5101
1141
ENDCHAR
STARTCHAR uni0938094D0935
ENCODING -1
SWIDTH 842 0
DWIDTH 7 0
BBX 7 5 0 0
BITMAP
6564
1150
6610
5110
1060
ENDCHAR
STARTCHAR uni0938094D0938
ENCODING -1
SWIDTH 871 0
DWIDTH 7 0
BBX 7 5 0 0
BITMAP
6598
1044
6654
5104
1104
ENDCHAR
STARTCHAR uni0939094D0923
ENCODING -1
SWIDTH 1136 0
DWIDTH 9 0
BBX 9 7 0 -2
BITMAP
599980
144440
404440
105440
400040
140000
040000
ENDCHAR
STARTCHAR uni0939094D092E
ENCODING -1
SWIDTH 746 0
DWIDTH 6 0
BBX 6 6 0 -1
BITMAP
5560
1410
4010
4150
4410
1400
ENDCHAR
STARTCHAR uni0939094D092F
ENCODING -1
SWIDTH 785 0
DWIDTH 6 0
BBX 6 6 0 -1
BITMAP
5560
1410
5510
4110
4510
1550
ENDCHAR
STARTCHAR uni0939094D0932
ENCODING -1
SWIDTH 1110 0
DWIDTH 9 0
BBX 9 7 0 -2
BITMAP
595640
145600
144500
404100
405100
140000
040000
ENDCHAR
STARTCHAR uni0939094D0935
ENCODING -1
SWIDTH 920 0
DWIDTH 7 0
BBX 7 7 0 -2
BITMAP
5958
1454
1444
4144
4054
1400
0400
ENDCHAR
STARTCHAR uni0915093C094D0915093C
ENCODING -1
SWIDTH 1275 0
DWIDTH 10 0
BBX 10 6 0 -1
BITMAP
595650
155650
441110
441110
181550
101000
ENDCHAR
STARTCHAR uni0915093C094D0924
ENCODING -1
SWIDTH 1016 0
DWIDTH 8 0
BBX 8 6 0 -1
BITMAP
5956
0515
4441
4441
1811
1000
ENDCHAR
STARTCHAR uni0915093C094D092B
ENCODING -1
SWIDTH 1246 0
DWIDTH 10 0
BBX 10 6 0 -1
BITMAP
599650
158240
444110
441510
180140
100000
ENDCHAR
STARTCHAR uni0915093C094D092B093C
ENCODING -1
SWIDTH 1247 0
DWIDTH 10 0
BBX 10 6 0 -1
BITMAP
599650
158240
444110
441510
180140
101000
ENDCHAR
STARTCHAR uni0915093C094D092C
ENCODING -1
SWIDTH 1043 0
DWIDTH 8 0
BBX 8 6 0 -1
BITMAP
5956
1555
4425
4415
1815
1000
ENDCHAR
STARTCHAR uni0915093C094D092E
ENCODING -1
SWIDTH 998 0
DWIDTH 8 0
BBX 8 6 0 -1
BITMAP
5996
1581
4455
4441
1801
1000
ENDCHAR
STARTCHAR uni0916093C094D0924
ENCODING -1
SWIDTH 984 0
DWIDTH 8 0
BBX 8 6 0 -1
BITMAP
6559
1558
5444
5184
1054
0100
ENDCHAR
STARTCHAR uni0916093C094D092E
ENCODING -1
SWIDTH 965 0
DWIDTH 8 0
BBX 8 6 0 -1
BITMAP
6599
1544
5458
5144
1004
0100
ENDCHAR
STARTCHAR uni0916093C094D092F
ENCODING -1
SWIDTH 1045 0
DWIDTH 8 0
BBX 8 6 0 -1
BITMAP
6566
1511
5441
5155
1001
0100
ENDCHAR
STARTCHAR uni0916093C094D0935
ENCODING -1
SWIDTH 972 0
DWIDTH 8 0
BBX 8 6 0 -1
BITMAP
6559
1554
5444
5144
1014
0100
ENDCHAR
STARTCHAR uni0916093C094D0936
ENCODING -1
SWIDTH 1123 0
DWIDTH 9 0
BBX 9 6 0 -1
BITMAP
655480
150440
545440
514040
101040
010000
ENDCHAR
STARTCHAR uni0916093C094D0938
ENCODING -1
SWIDTH 1066 0
DWIDTH 9 0
BBX 9 6 0 -1
BITMAP
656640
151100
546600
514100
101100
010000
ENDCHAR
STARTCHAR uni091C093C094D091C093C
ENCODING -1
SWIDTH 934 0
DWIDTH 7 0
BBX 7 5 0 0
BITMAP
5558
2494
1444
1444
5144
ENDCHAR
STARTCHAR uni091C093C094D092F
ENCODING -1
SWIDTH 893 0
DWIDTH 7 0
BBX 7 5 0 0
BITMAP
5598
2544
1244
1154
5004
ENDCHAR
STARTCHAR uni092B093C094D091C093C
ENCODING -1
SWIDTH 1100 0
DWIDTH 9 0
BBX 9 6 0 -1
BITMAP
955640
465600
450500
150500
051500
001000
ENDCHAR
STARTCHAR uni092B093C094D0924
ENCODING -1
SWIDTH 1036 0
DWIDTH 8 0
BBX 8 5 0 0
BITMAP
9556
4515
4511
1511
0521
ENDCHAR
STARTCHAR uni092B093C094D092B093C
ENCODING -1
SWIDTH 1256 0
DWIDTH 10 0
BBX 10 6 0 -1
BITMAP
955650
465240
455110
151510
050140
001000
ENDCHAR
STARTCHAR uni092B093C094D0938
ENCODING -1
SWIDTH 1141 0
DWIDTH 9 0
BBX 9 5 0 0
BITMAP
955980
454440
456540
151040
050440
ENDCHAR
STARTCHAR uni092C094D091C093C
ENCODING -1
SWIDTH 883 0
DWIDTH 7 0
BBX 7 5 0 0
BITMAP
5558
1194
5044
4444
1544
ENDCHAR
STARTCHAR uni0932094D091C093C
ENCODING -1
SWIDTH 1062 0
DWIDTH 9 0
BBX 8 6 0 -1
BITMAP
5556
1565
4411
4411
5051
0040
ENDCHAR
STARTCHAR uni0936094D0915093C
ENCODING -1
SWIDTH 1093 0
DWIDTH 9 0
BBX 9 5 0 0
BITMAP
556540
445500
551140
111140
106100
ENDCHAR
STARTCHAR uni0924094D0924094D
ENCODING -1
SWIDTH 309 0
DWIDTH 2 0
BBX 3 5 0 0
BITMAP
54
64
10
10
20
ENDCHAR
STARTCHAR uni0928094D092D094D
ENCODING -1
SWIDTH 505 0
DWIDTH 4 0
BBX 5 3 0 2
BITMAP
5440
0400
5940
ENDCHAR
STARTCHAR uni0928094D0938094D
ENCODING -1
SWIDTH 635 0
DWIDTH 5 0
BBX 6 5 0 0
BITMAP
5590
0040
4650
0100
0140
ENDCHAR
STARTCHAR uni092E094D092D094D
ENCODING -1
SWIDTH 533 0
DWIDTH 4 0
BBX 5 3 0 2
BITMAP
9440
4500
5540
ENDCHAR
STARTCHAR uni0932094D092D094D
ENCODING -1
SWIDTH 694 0
DWIDTH 6 0
BBX 6 5 0 0
BITMAP
5540
1540
4490
4440
5000
ENDCHAR
STARTCHAR uni0938094D0924094D0930094D
ENCODING -1
SWIDTH 575 0
DWIDTH 5 0
BBX 6 5 0 0
BITMAP
6540
1150
6510
5050
1140
ENDCHAR
STARTCHAR uni0915094D0924094D092F
ENCODING -1
SWIDTH 1356 0
DWIDTH 11 0
BBX 11 5 0 0
BITMAP
5955A4
051550
444110
444160
141010
ENDCHAR
STARTCHAR uni0915094D0924094D0930
ENCODING -1
SWIDTH 997 0
DWIDTH 8 0
BBX 8 5 0 0
BITMAP
5956
0555
4445
4405
1815
ENDCHAR
STARTCHAR uni0915094D0924094D0935
ENCODING -1
SWIDTH 1242 0
DWIDTH 10 0
BBX 10 5 0 0
BITMAP
595550
055450
444450
444450
185150
ENDCHAR
STARTCHAR uni0915094D092A094D0930
ENCODING -1
SWIDTH 1007 0
DWIDTH 8 0
BBX 8 5 0 0
BITMAP
5996
1581
4441
5809
0411
ENDCHAR
STARTCHAR uni0915094D0935094D092F
ENCODING -1
SWIDTH 1384 0
DWIDTH 11 0
BBX 11 5 0 0
BITMAP
595598
155044
445144
445154
141404
ENDCHAR
STARTCHAR uni0915094D0938094D091F
ENCODING -1
SWIDTH 1376 0
DWIDTH 11 0
BBX 11 5 0 0
BITMAP
595954
154450
442600
441104
180454
ENDCHAR
STARTCHAR uni0915094D0938094D0921
ENCODING -1
SWIDTH 1388 0
DWIDTH 11 0
BBX 11 5 0 0
BITMAP
595958
154454
442540
441054
180454
ENDCHAR
STARTCHAR uni0915094D0938094D0924
ENCODING -1
SWIDTH 1423 0
DWIDTH 11 0
BBX 11 5 0 0
BITMAP
595958
050454
442544
441044
180484
ENDCHAR
STARTCHAR uni0915094D0938094D092A094D0930
ENCODING -1
SWIDTH 1437 0
DWIDTH 12 0
BBX 12 5 0 0
BITMAP
595999
154444
442544
581018
040454
ENDCHAR
STARTCHAR uni0915094D0938094D092A094D0932
ENCODING -1
SWIDTH 1866 0
DWIDTH 15 0
BBX 15 5 0 0
BITMAP
59599554
15444554
44254454
44105414
18040514
ENDCHAR
STARTCHAR uni0917094D0927094D092F
ENCODING -1
SWIDTH 1156 0
DWIDTH 9 0
BBX 9 5 0 0
BITMAP
661980
140440
121440
041540
014040
ENDCHAR
STARTCHAR uni0917094D0927094D0935
ENCODING -1
SWIDTH 1084 0
DWIDTH 9 0
BBX 9 5 0 0
BITMAP
661640
141500
121100
441100
015600
ENDCHAR
STARTCHAR uni0917094D0928094D092F
ENCODING -1
SWIDTH 1069 0
DWIDTH 9 0
BBX 9 5 0 0
BITMAP
656640
101100
155100
001600
000100
ENDCHAR
STARTCHAR uni0917094D092D094D092F
ENCODING -1
SWIDTH 1102 0
DWIDTH 9 0
BBX 9 5 0 0
BITMAP
645A40
110500
125100
401600
000100
ENDCHAR
STARTCHAR uni0917094D0930094D092F
ENCODING -1
SWIDTH 817 0
DWIDTH 7 0
BBX 7 5 0 0
BITMAP
6664
1110
1510
01A0
0150
ENDCHAR
STARTCHAR uni091A094D091B094D0935
ENCODING -1
SWIDTH 913 0
DWIDTH 7 0
BBX 7 6 0 -1
BITMAP
5658
6514
1144
1554
0104
0050
ENDCHAR
STARTCHAR uni091C094D091C094D091E
ENCODING -1
SWIDTH 945 0
DWIDTH 8 0
BBX 8 5 0 0
BITMAP
5559
2504
1554
1514
5254
ENDCHAR
STARTCHAR uni091C094D091C094D092F
ENCODING -1
SWIDTH 1252 0
DWIDTH 10 0
BBX 10 5 0 0
BITMAP
555660
249110
144910
144550
514010
ENDCHAR
STARTCHAR uni091C094D091C094D0935
ENCODING -1
SWIDTH 1243 0
DWIDTH 10 0
BBX 10 5 0 0
BITMAP
555590
249440
144440
144440
514540
ENDCHAR
STARTCHAR uni0924094D0915094D092F
ENCODING -1
SWIDTH 1346 0
DWIDTH 11 0
BBX 11 5 0 0
BITMAP
5565A4
152510
441510
441160
515010
ENDCHAR
STARTCHAR uni0924094D0915094D0930
ENCODING -1
SWIDTH 995 0
DWIDTH 8 0
BBX 8 6 0 -1
BITMAP
5565
1510
4411
4411
5194
0100
ENDCHAR
STARTCHAR uni0924094D0915094D0935
ENCODING -1
SWIDTH 1282 0
DWIDTH 10 0
BBX 10 5 0 0
BITMAP
556560
151110
441110
445110
515150
ENDCHAR
STARTCHAR uni0924094D0915094D0937
ENCODING -1
SWIDTH 943 0
DWIDTH 8 0
BBX 8 5 0 0
BITMAP
5555
1658
4504
4114
5154
ENDCHAR
STARTCHAR uni0924094D0916094D0930
ENCODING -1
SWIDTH 1008 0
DWIDTH 8 0
BBX 8 6 0 -1
BITMAP
5596
1455
4551
4119
5055
0010
ENDCHAR
STARTCHAR uni0924094D0924094D092F
ENCODING -1
SWIDTH 888 0
DWIDTH 7 0
BBX 7 5 0 0
BITMAP
5598
6444
1244
1154
2004
ENDCHAR
STARTCHAR uni0924094D0924094D0935
ENCODING -1
SWIDTH 788 0
DWIDTH 6 0
BBX 6 5 0 0
BITMAP
5560
6510
1110
1110
2150
ENDCHAR
STARTCHAR uni0924094D0928094D092F
ENCODING -1
SWIDTH 1098 0
DWIDTH 9 0
BBX 9 5 0 0
BITMAP
555A40
140500
455100
401600
500100
ENDCHAR
STARTCHAR uni0924094D092A094D0930
ENCODING -1
SWIDTH 763 0
DWIDTH 6 0
BBX 6 5 0 0
BITMAP
5960
1810
4410
4190
5110
ENDCHAR
STARTCHAR uni0924094D092A094D0932
ENCODING -1
SWIDTH 1219 0
DWIDTH 10 0
BBX 10 5 0 0
BITMAP
595590
181580
441540
415040
502440
ENDCHAR
STARTCHAR uni0924094D092E094D092F
ENCODING -1
SWIDTH 1096 0
DWIDTH 9 0
BBX 9 5 0 0
BITMAP
595A40
180500
455100
401600
500100
ENDCHAR
STARTCHAR uni0924094D0930094D092F
ENCODING -1
SWIDTH 848 0
DWIDTH 7 0
BBX 7 5 0 0
BITMAP
55A4
1450
4510
0560
1010
ENDCHAR
STARTCHAR uni0924094D0938094D092F
ENCODING -1
SWIDTH 1234 0
DWIDTH 10 0
BBX 10 5 0 0
BITMAP
559690
144140
425440
410580
504040
ENDCHAR
STARTCHAR uni0924094D0938094D0935
ENCODING -1
SWIDTH 1155 0
DWIDTH 9 0
BBX 9 5 0 0
BITMAP
559580
144440
425440
410440
504540
ENDCHAR
STARTCHAR uni0926094D0917094D0930
ENCODING -1
SWIDTH 493 0
DWIDTH 4 0
BBX 4 7 0 -2
BITMAP
55
14
40
25
15
55
10
ENDCHAR
STARTCHAR uni0926094D092C094D0930
ENCODING -1
SWIDTH 483 0
DWIDTH 4 0
BBX 4 7 0 -2
BITMAP
55
14
40
41
65
19
14
ENDCHAR
STARTCHAR uni0926094D092F094D092D
ENCODING -1
SWIDTH 607 0
DWIDTH 5 0
BBX 5 6 0 -1
BITMAP
5A40
1500
2100
4100
1600
1500
ENDCHAR
STARTCHAR uni0926094D092F094D0930
ENCODING -1
SWIDTH 595 0
DWIDTH 5 0
BBX 5 6 0 -1
BITMAP
5A40
1500
5100
4100
5600
0400
ENDCHAR
STARTCHAR uni0927094D0928094D092F
ENCODING -1
SWIDTH 1138 0
DWIDTH 9 0
BBX 9 5 0 0
BITMAP
915980
500440
415440
151540
000040
ENDCHAR
STARTCHAR uni0928094D0915094D0938
ENCODING -1
SWIDTH 1384 0
DWIDTH 11 0
BBX 11 5 0 0
BITMAP
559598
015444
444654
044104
018144
ENDCHAR
STARTCHAR uni0928094D0924094D092F
ENCODING -1
SWIDTH 1073 0
DWIDTH 9 0
BBX 9 5 0 0
BITMAP
556640
015100
544100
041600
050100
ENDCHAR
STARTCHAR uni0928094D0924094D0930
ENCODING -1
SWIDTH 732 0
DWIDTH 6 0
BBX 6 5 0 0
BITMAP
5590
0180
5440
4440
0140
ENDCHAR
STARTCHAR uni0928094D0924094D0938
ENCODING -1
SWIDTH 1134 0
DWIDTH 9 0
BBX 9 5 0 0
BITMAP
555980
014440
446540
041040
051440
ENDCHAR
STARTCHAR uni0928094D0925094D092F
ENCODING -1
SWIDTH 1168 0
DWIDTH 9 0
BBX 9 5 0 0
BITMAP
555980
044440
555440
055540
000040
ENDCHAR
STARTCHAR uni0928094D0925094D0935
ENCODING -1
SWIDTH 1089 0
DWIDTH 9 0
BBX 9 5 0 0
BITMAP
555640
045500
555100
055100
000600
ENDCHAR
STARTCHAR uni0928094D0926094D0930
ENCODING -1
SWIDTH 734 0
DWIDTH 6 0
BBX 6 6 0 -1
BITMAP
5590
0140
5800
4410
0190
0100
ENDCHAR
STARTCHAR uni0928094D0926094D0935
ENCODING -1
SWIDTH 732 0
DWIDTH 6 0
BBX 6 6 0 -1
BITMAP
5590
0140
5800
4410
0550
0540
ENDCHAR
STARTCHAR uni0928094D0927094D092F
ENCODING -1
SWIDTH 1097 0
DWIDTH 9 0
BBX 9 5 0 0
BITMAP
595A40
040500
591100
042600
054100
ENDCHAR
STARTCHAR uni0928094D0927094D0930
ENCODING -1
SWIDTH 783 0
DWIDTH 6 0
BBX 6 6 0 -1
BITMAP
5960
0410
5910
4410
0590
0100
ENDCHAR
STARTCHAR uni0928094D0927094D0935
ENCODING -1
SWIDTH 1036 0
DWIDTH 8 0
BBX 8 5 0 0
BITMAP
5956
0415
5911
4411
0555
ENDCHAR
STARTCHAR uni0928094D0928094D092F
ENCODING -1
SWIDTH 1071 0
DWIDTH 9 0
BBX 9 5 0 0
BITMAP
556640
001100
555100
001600
000100
ENDCHAR
STARTCHAR uni0928094D092A094D0930
ENCODING -1
SWIDTH 737 0
DWIDTH 6 0
BBX 6 5 0 0
BITMAP
5950
0450
5850
4190
0140
ENDCHAR
STARTCHAR uni0928094D092B094D0930
ENCODING -1
SWIDTH 975 0
DWIDTH 8 0
BBX 8 5 0 0
BITMAP
5995
0454
5841
0194
0140
ENDCHAR
STARTCHAR uni0928094D092D094D092F
ENCODING -1
SWIDTH 1071 0
DWIDTH 9 0
BBX 9 5 0 0
BITMAP
546640
041100
594100
001600
000100
ENDCHAR
STARTCHAR uni0928094D092D094D0935
ENCODING -1
SWIDTH 995 0
DWIDTH 8 0
BBX 8 5 0 0
BITMAP
5455
0415
5981
4445
0015
ENDCHAR
STARTCHAR uni0928094D092E094D092F
ENCODING -1
SWIDTH 1071 0
DWIDTH 9 0
BBX 9 5 0 0
BITMAP
596640
041100
594100
001600
000100
ENDCHAR
STARTCHAR uni0928094D0938094D091F
ENCODING -1
SWIDTH 1113 0
DWIDTH 9 0
BBX 9 5 0 0
BITMAP
565640
010500
466000
011040
011540
ENDCHAR
STARTCHAR uni0928094D0938094D092E094D092F
ENCODING -1
SWIDTH 1453 0
DWIDTH 12 0
BBX 12 5 0 0
BITMAP
566599
011054
466504
010058
010004
ENDCHAR
STARTCHAR uni0928094D0938094D092F
ENCODING -1
SWIDTH 1194 0
DWIDTH 10 0
BBX 10 5 0 0
BITMAP
565990
010440
465040
010580
010040
ENDCHAR
STARTCHAR uni092A094D0924094D092F
ENCODING -1
SWIDTH 1119 0
DWIDTH 9 0
BBX 9 5 0 0
BITMAP
955940
400540
416540
051540
010040
ENDCHAR
STARTCHAR uni092C094D091C094D092F
ENCODING -1
SWIDTH 1235 0
DWIDTH 10 0
BBX 10 5 0 0
BITMAP
555690
119140
504840
444580
154040
ENDCHAR
STARTCHAR uni092C094D0927094D0935
ENCODING -1
SWIDTH 1097 0
DWIDTH 9 0
BBX 9 5 0 0
BITMAP
561640
110500
525100
451100
155600
ENDCHAR
STARTCHAR uni092C094D092D094D0930
ENCODING -1
SWIDTH 764 0
DWIDTH 6 0
BBX 6 5 0 0
BITMAP
5460
1510
5550
4990
1510
ENDCHAR
STARTCHAR uni092C094D0932094D092F
ENCODING -1
SWIDTH 480 0
DWIDTH 4 0
BBX 11 5 0 0
BITMAP
555664
115510
554510
450160
150010
ENDCHAR
STARTCHAR uni092D094D0930094D092F
ENCODING -1
SWIDTH 830 0
DWIDTH 7 0
BBX 7 5 0 0
BITMAP
4664
4050
5410
0560
1010
ENDCHAR
STARTCHAR uni092E094D092A094D0930
ENCODING -1
SWIDTH 765 0
DWIDTH 6 0
BBX 6 5 0 0
BITMAP
9960
4410
5410
4190
0110
ENDCHAR
STARTCHAR uni092E094D092C094D092F
ENCODING -1
SWIDTH 1124 0
DWIDTH 9 0
BBX 9 5 0 0
BITMAP
955980
410440
595040
045540
014040
ENDCHAR
STARTCHAR uni092E094D092C094D0930
ENCODING -1
SWIDTH 768 0
DWIDTH 6 0
BBX 6 6 0 -1
BITMAP
9560
4110
5910
4450
0190
0100
ENDCHAR
STARTCHAR uni092E094D092D094D092F
ENCODING -1
SWIDTH 1101 0
DWIDTH 9 0
BBX 9 5 0 0
BITMAP
945A40
450500
555100
001600
000100
ENDCHAR
STARTCHAR uni092E094D092D094D0930
ENCODING -1
SWIDTH 759 0
DWIDTH 6 0
BBX 6 5 0 0
BITMAP
9460
4510
5550
4050
0110
ENDCHAR
STARTCHAR uni092E094D092D094D0935
ENCODING -1
SWIDTH 1028 0
DWIDTH 8 0
BBX 8 5 0 0
BITMAP
9456
4515
5551
4111
0015
ENDCHAR
STARTCHAR uni0932094D0915094D092F
ENCODING -1
SWIDTH 1534 0
DWIDTH 12 0
BBX 12 5 0 0
BITMAP
555966
154551
444441
404455
505401
ENDCHAR
STARTCHAR uni0932094D0925094D092F
ENCODING -1
SWIDTH 1397 0
DWIDTH 11 0
BBX 11 5 0 0
BITMAP
555598
154444
449104
444104
505554
ENDCHAR
STARTCHAR uni0932094D0926094D0930
ENCODING -1
SWIDTH 933 0
DWIDTH 7 0
BBX 8 6 0 -1
BITMAP
5559
1554
4440
4444
5068
0010
ENDCHAR
STARTCHAR uni0932094D0932094D092F
ENCODING -1
SWIDTH 1476 0
DWIDTH 12 0
BBX 12 5 0 0
BITMAP
555569
155514
444484
404058
505004
ENDCHAR
STARTCHAR uni0932094D0935094D0921
ENCODING -1
SWIDTH 1247 0
DWIDTH 10 0
BBX 10 5 0 0
BITMAP
555560
155140
444100
444410
505950
ENDCHAR
STARTCHAR uni0937094D0915094D0930
ENCODING -1
SWIDTH 1042 0
DWIDTH 8 0
BBX 8 5 0 0
BITMAP
A565
5165
4511
1511
0195
ENDCHAR
STARTCHAR uni0937094D091F094D092F
ENCODING -1
SWIDTH 997 0
DWIDTH 8 0
BBX 8 5 0 0
BITMAP
A656
5651
5051
4045
5555
ENDCHAR
STARTCHAR uni0937094D091F094D0930
ENCODING -1
SWIDTH 493 0
DWIDTH 4 0
BBX 4 6 0 -1
BITMAP
A6
55
65
41
55
14
ENDCHAR
STARTCHAR uni0937094D091F094D0935
ENCODING -1
SWIDTH 493 0
DWIDTH 4 0
BBX 4 7 0 -2
BITMAP
A6
55
25
41
55
41
14
ENDCHAR
STARTCHAR uni0937094D0920094D092F
ENCODING -1
SWIDTH 1006 0
DWIDTH 8 0
BBX 8 5 0 0
BITMAP
BE56
7E51
5551
4141
5515
ENDCHAR
STARTCHAR uni0937094D0920094D0930
ENCODING -1
SWIDTH 512 0
DWIDTH 4 0
BBX 4 6 0 -1
BITMAP
BE
7D
69
41
55
14
ENDCHAR
STARTCHAR uni0937094D0923094D092F
ENCODING -1
SWIDTH 1273 0
DWIDTH 10 0
BBX 10 5 0 0
BITMAP
A66660
511110
451510
010550
000010
ENDCHAR
STARTCHAR uni0937094D092A094D0930
ENCODING -1
SWIDTH 798 0
DWIDTH 6 0
BBX 6 5 0 0
BITMAP
A660
5110
4510
1550
0110
ENDCHAR
STARTCHAR uni0937094D092E094D092F
ENCODING -1
SWIDTH 1121 0
DWIDTH 9 0
BBX 9 5 0 0
BITMAP
A65980
510440
465140
001540
000040
ENDCHAR
STARTCHAR uni0938094D0915094D0930
ENCODING -1
SWIDTH 1084 0
DWIDTH 9 0
BBX 9 6 0 -1
BITMAP
656540
115500
661100
511100
106100
004000
ENDCHAR
STARTCHAR uni0938094D0915094D0935
ENCODING -1
SWIDTH 1369 0
DWIDTH 11 0
BBX 11 5 0 0
BITMAP
656554
115554
661104
511114
106054
ENDCHAR
STARTCHAR uni0938094D0924094D092F
ENCODING -1
SWIDTH 1185 0
DWIDTH 9 0
BBX 10 5 0 0
BITMAP
655990
100440
651040
510580
114040
ENDCHAR
STARTCHAR uni0938094D0924094D0930
ENCODING -1
SWIDTH 818 0
DWIDTH 7 0
BBX 7 5 0 0
BITMAP
6564
1160
6510
5060
1150
ENDCHAR
STARTCHAR uni0938094D0924094D0935
ENCODING -1
SWIDTH 1126 0
DWIDTH 9 0
BBX 9 5 0 0
BITMAP
655580
115440
661040
511040
114540
ENDCHAR
STARTCHAR uni0938094D0925094D092F
ENCODING -1
SWIDTH 1303 0
DWIDTH 10 0
BBX 11 5 0 0
BITMAP
655664
111110
655410
515550
100010
ENDCHAR
STARTCHAR uni0938094D092A094D0930
ENCODING -1
SWIDTH 850 0
DWIDTH 7 0
BBX 7 5 0 0
BITMAP
6664
1110
6610
5060
1050
ENDCHAR
STARTCHAR uni0938094D092E094D092F
ENCODING -1
SWIDTH 1189 0
DWIDTH 10 0
BBX 10 5 0 0
BITMAP
665990
110440
665040
500580
100040
ENDCHAR
STARTCHAR uni093F.a01
ENCODING -1
SWIDTH 231 0
DWIDTH 2 0
BBX 4 7 0 0
BITMAP
15
41
90
40
40
40
40
ENDCHAR
STARTCHAR uni093F.a04
ENCODING -1
SWIDTH 231 0
DWIDTH 2 0
BBX 5 7 0 0
BITMAP
1580
4040
9000
4000
4000
4000
4000
ENDCHAR
STARTCHAR uni093F.a05
ENCODING -1
SWIDTH 231 0
DWIDTH 2 0
BBX 6 7 0 0
BITMAP
1550
4010
9000
4000
4000
4000
4000
ENDCHAR
STARTCHAR uni093F.a06
ENCODING -1
SWIDTH 231 0
DWIDTH 2 0
BBX 6 7 0 0
BITMAP
1550
4010
9000
4000
4000
4000
4000
ENDCHAR
STARTCHAR uni093F.a07
ENCODING -1
SWIDTH 231 0
DWIDTH 2 0
BBX 6 7 0 0
BITMAP
1560
4000
9000
4000
4000
4000
4000
ENDCHAR
STARTCHAR uni093F.a08
ENCODING -1
SWIDTH 231 0
DWIDTH 2 0
BBX 7 7 0 0
BITMAP
1554
4004
9000
4000
4000
4000
4000
ENDCHAR
STARTCHAR uni093F.a09
ENCODING -1
SWIDTH 231 0
DWIDTH 2 0
BBX 7 7 0 0
BITMAP
1554
4004
9000
4000
4000
4000
4000
ENDCHAR
STARTCHAR uni093F.a10
ENCODING -1
SWIDTH 231 0
DWIDTH 2 0
BBX 7 7 0 0
BITMAP
1554
4000
9000
4000
4000
4000
4000
ENDCHAR
STARTCHAR uni093F.a11
ENCODING -1
SWIDTH 231 0
DWIDTH 2 0
BBX 8 7 0 0
BITMAP
1555
4001
9000
4000
4000
4000
4000
ENDCHAR
STARTCHAR uni093F.a12
ENCODING -1
SWIDTH 231 0
DWIDTH 2 0
BBX 8 7 0 0
BITMAP
1556
4000
9000
4000
4000
4000
4000
ENDCHAR
STARTCHAR uni093F.a13
ENCODING -1
SWIDTH 231 0
DWIDTH 2 0
BBX 9 7 0 0
BITMAP
155540
400040
900000
400000
400000
400000
400000
ENDCHAR
STARTCHAR uni093F.a14
ENCODING -1
SWIDTH 231 0
DWIDTH 2 0
BBX 9 7 0 0
BITMAP
155540
400040
900000
400000
400000
400000
400000
ENDCHAR
STARTCHAR uni093F.a15
ENCODING -1
SWIDTH 231 0
DWIDTH 2 0
BBX 9 7 0 0
BITMAP
155580
400000
900000
400000
400000
400000
400000
ENDCHAR
STARTCHAR uni093F.a16
ENCODING -1
SWIDTH 231 0
DWIDTH 2 0
BBX 10 7 0 0
BITMAP
155550
400010
900000
400000
400000
400000
400000
ENDCHAR
STARTCHAR uni093F.a17
ENCODING -1
SWIDTH 231 0
DWIDTH 2 0
BBX 10 7 0 0
BITMAP
155550
400010
900000
400000
400000
400000
400000
ENDCHAR
STARTCHAR uni093F.a18
ENCODING -1
SWIDTH 231 0
DWIDTH 2 0
BBX 10 7 0 0
BITMAP
155550
400000
900000
400000
400000
400000
400000
ENDCHAR
STARTCHAR uni093F.a19
ENCODING -1
SWIDTH 231 0
DWIDTH 2 0
BBX 11 7 0 0
BITMAP
155554
400004
900000
400000
400000
400000
400000
ENDCHAR
STARTCHAR uni093F.a20
ENCODING -1
SWIDTH 231 0
DWIDTH 2 0
BBX 11 7 0 0
BITMAP
155558
400000
900000
400000
400000
400000
400000
ENDCHAR
STARTCHAR uni093F.a21
ENCODING -1
SWIDTH 231 0
DWIDTH 2 0
BBX 12 7 0 0
BITMAP
155555
400001
900000
400000
400000
400000
400000
ENDCHAR
STARTCHAR uni093F.a22
ENCODING -1
SWIDTH 231 0
DWIDTH 2 0
BBX 12 7 0 0
BITMAP
155555
400001
900000
400000
400000
400000
400000
ENDCHAR
STARTCHAR uni093F.a23
ENCODING -1
SWIDTH 231 0
DWIDTH 2 0
BBX 12 7 0 0
BITMAP
155556
400000
900000
400000
400000
400000
400000
ENDCHAR
STARTCHAR uni093F.a24
ENCODING -1
SWIDTH 231 0
DWIDTH 2 0
BBX 13 7 0 0
BITMAP
15555540
40000040
90000000
40000000
40000000
40000000
40000000
ENDCHAR
STARTCHAR uni093F.a25
ENCODING -1
SWIDTH 231 0
DWIDTH 2 0
BBX 13 7 0 0
BITMAP
15555540
40000040
90000000
40000000
40000000
40000000
40000000
ENDCHAR
STARTCHAR uni093F.a26
ENCODING -1
SWIDTH 231 0
DWIDTH 2 0
BBX 13 7 0 0
BITMAP
15555540
40000000
90000000
40000000
40000000
40000000
40000000
ENDCHAR
STARTCHAR uni093F.a32
ENCODING -1
SWIDTH 231 0
DWIDTH 2 0
BBX 16 7 0 0
BITMAP
15555556
40000000
90000000
40000000
40000000
40000000
40000000
ENDCHAR
STARTCHAR uni093E0901
ENCODING -1
SWIDTH 231 0
DWIDTH 2 0
BBX 2 6 0 0
BITMAP
50
90
40
40
40
40
ENDCHAR
STARTCHAR dvNG_GA
ENCODING -1
SWIDTH 562 0
DWIDTH 5 0
BBX 5 7 0 -2
BITMAP
5640
1500
4000
1500
5500
1500
5500
ENDCHAR
STARTCHAR dvNG_MA
ENCODING -1
SWIDTH 728 0
DWIDTH 6 0
BBX 6 7 0 -2
BITMAP
5990
5440
1440
4140
5540
0580
0040
ENDCHAR
STARTCHAR dvNY_CA
ENCODING -1
SWIDTH 963 0
DWIDTH 8 0
BBX 8 5 0 0
BITMAP
5559
5194
0844
0458
5004
ENDCHAR
STARTCHAR dvTT_GA
ENCODING -1
SWIDTH 510 0
DWIDTH 4 0
BBX 4 7 0 -2
BITMAP
56
14
40
41
25
15
55
ENDCHAR
STARTCHAR dvTTH_TTHA
ENCODING -1
SWIDTH 511 0
DWIDTH 4 0
BBX 4 8 0 -3
BITMAP
59
18
41
19
18
41
41
14
ENDCHAR
STARTCHAR dvDD_GA
ENCODING -1
SWIDTH 541 0
DWIDTH 4 0
BBX 4 7 0 -2
BITMAP
56
15
40
15
55
15
55
ENDCHAR
STARTCHAR dvDDH_DDHA
ENCODING -1
SWIDTH 487 0
DWIDTH 4 0
BBX 4 7 0 -2
BITMAP
59
14
45
65
44
45
15
ENDCHAR
STARTCHAR dvSHA_MatraVocalicR
ENCODING -1
SWIDTH 558 0
DWIDTH 4 0
BBX 5 7 0 -2
BITMAP
5540
4500
6500
0200
0100
0400
0540
ENDCHAR
STARTCHAR dvT_KH_NA
ENCODING -1
SWIDTH 1341 0
DWIDTH 11 0
BBX 11 5 0 0
BITMAP
559564
145410
455210
411410
504010
ENDCHAR
STARTCHAR dvT_S_NA
ENCODING -1
SWIDTH 1169 0
DWIDTH 9 0
BBX 9 5 0 0
BITMAP
559580
144040
425440
410040
504040
ENDCHAR
ENDFONT
